<svg width="415" height="917" viewBox="0 0 415 917" fill="none" xmlns="http://www.w3.org/2000/svg">
<rect width="415" height="917" rx="40" fill="#F5F5F6"/>
<g clip-path="url(#clip0)">
<rect x="20" y="20" width="375" height="877" rx="22" fill="white"/>
<line x1="40" y1="764.75" x2="375" y2="764.75" stroke="#CDCED2" stroke-width="0.5"/>
<line x1="40" y1="764.75" x2="375" y2="764.75" stroke="#CDCED2" stroke-width="0.5"/>
<rect x="40" y="131" width="335" height="148" rx="4" fill="#FACA51"/>
<g opacity="0.1">
<circle cx="254.724" cy="183.767" r="14.8001" stroke="white" stroke-width="3.84723"/>
<circle cx="325.501" cy="174.213" r="14.8001" stroke="white" stroke-width="3.84723"/>
<path d="M272.939 264.996V286.497H378.06V264.996" stroke="white" stroke-width="3.84723" stroke-linejoin="round"/>
<path d="M272.936 264.998L258.911 197.718L294.438 231.551L325.497 188.547L354.166 231.551L390.002 195.714L378.057 264.998H272.936Z" stroke="white" stroke-width="3.84723" stroke-linejoin="round"/>
<circle cx="396.275" cy="182.276" r="14.8001" stroke="white" stroke-width="3.84723"/>
</g>
<circle cx="98" cy="204" r="38" fill="white"/>
<circle cx="82.1845" cy="195.433" r="3.18426" fill="white" stroke="black" stroke-width="1.26667"/>
<circle cx="98.0005" cy="193.251" r="3.18426" fill="white" stroke="black" stroke-width="1.26667"/>
<path d="M85.967 218.884V214.134H110.034V218.884H85.967Z" fill="white"/>
<path d="M86.002 213.975L82.7297 199.25L90.9103 205.795L98.0001 196.523L104.545 205.795L112.725 198.16L109.998 213.975H86.002Z" fill="#FACA51"/>
<path d="M86.002 213.976V218.884H109.998V213.976" stroke="black" stroke-width="1.26667" stroke-linejoin="round"/>
<path d="M86.0015 213.975L82.7998 198.617L90.9099 206.34L97.9997 196.523L104.544 206.34L112.725 198.16L109.998 213.975H86.0015Z" stroke="black" stroke-width="1.26667" stroke-linejoin="round"/>
<circle cx="113.816" cy="195.433" r="3.18426" fill="white" stroke="black" stroke-width="1.26667"/>
<path d="M169.216 205.192C172.704 205.192 176.032 204.072 178.112 202.344V192.872H168.704V196.328H174.272V200.168C172.736 201.192 171.04 201.672 169.216 201.672C164.672 201.672 161.792 198.216 161.792 193.672C161.792 188.744 164.96 185.672 169.056 185.672C171.616 185.672 173.664 186.6 175.232 188.136L177.952 185.768C175.584 183.208 172.256 182.024 169.088 182.024C162.08 182.024 157.76 186.984 157.76 193.672C157.76 200.872 162.688 205.192 169.216 205.192ZM188.641 205.256C193.441 205.256 196.833 201.96 196.833 197.224C196.833 192.424 193.441 189.16 188.641 189.16C183.713 189.16 180.449 192.616 180.449 197.224C180.449 201.8 183.713 205.256 188.641 205.256ZM188.641 201.992C185.953 201.992 184.097 199.88 184.097 197.224C184.097 194.504 185.921 192.392 188.641 192.392C191.201 192.392 193.185 194.344 193.185 197.224C193.185 200.04 191.169 201.992 188.641 201.992ZM199.549 205H203.133V181.448H199.549V205ZM213.427 205.256C215.667 205.256 217.363 204.392 218.515 202.888H218.547V205H221.972V181.448H218.419V191.304H218.387C217.203 189.896 215.443 189.16 213.395 189.16C209.107 189.16 205.843 192.552 205.843 197.256C205.843 202.088 209.107 205.256 213.427 205.256ZM213.971 201.992C211.347 201.992 209.491 200.04 209.491 197.288C209.491 194.28 211.507 192.392 214.003 192.392C216.691 192.392 218.547 194.504 218.547 197.288C218.547 200.104 216.531 201.992 213.971 201.992Z" fill="white"/>
<path d="M160.172 230H161.264L165.016 220.06H163.714L160.732 228.236H160.718L157.736 220.06H156.42L160.172 230ZM168.21 230.084C169.316 230.084 170.156 229.58 170.646 228.768H170.66V230H171.752V223.182H170.618V224.386L170.59 224.4C170.1 223.574 169.218 223.098 168.21 223.098C166.278 223.098 164.892 224.624 164.892 226.64C164.892 228.712 166.334 230.084 168.21 230.084ZM168.378 229.048C166.978 229.048 166.04 228.012 166.04 226.64C166.04 225.128 167.09 224.134 168.378 224.134C169.722 224.134 170.66 225.24 170.66 226.64C170.66 228.082 169.638 229.048 168.378 229.048ZM173.713 230H174.847V219.696H173.713V230ZM177.558 221.936C178.02 221.936 178.384 221.572 178.384 221.124C178.384 220.676 178.02 220.312 177.558 220.312C177.096 220.312 176.732 220.676 176.732 221.124C176.732 221.572 177.096 221.936 177.558 221.936ZM176.984 230H178.118V223.182H176.984V230ZM183.07 230.084C184.176 230.084 185.044 229.566 185.534 228.74H185.548V230H186.64V219.696H185.506V224.4H185.492C184.974 223.574 184.092 223.098 183.056 223.098C181.138 223.098 179.724 224.624 179.724 226.64C179.724 228.712 181.18 230.084 183.07 230.084ZM183.224 229.048C181.838 229.048 180.886 228.012 180.886 226.64C180.886 225.128 181.936 224.134 183.238 224.134C184.61 224.134 185.548 225.24 185.548 226.64C185.548 228.082 184.512 229.048 183.224 229.048ZM194.17 230.084C194.982 230.084 195.444 229.888 195.822 229.664L195.528 228.67C195.192 228.852 194.772 229.02 194.366 229.02C193.722 229.02 193.54 228.628 193.54 227.802V224.162H195.794V223.182H193.54V220.732L192.406 220.858V223.182H191.524V224.162H192.406V227.97C192.406 229.342 192.966 230.084 194.17 230.084ZM197.151 230H198.285V226.57C198.285 225.03 199.125 224.134 200.483 224.134C201.477 224.134 202.163 224.694 202.163 226.234V230H203.297V225.912C203.297 223.966 202.289 223.098 200.819 223.098C199.727 223.098 198.831 223.56 198.299 224.372H198.285V219.696H197.151V230ZM205.126 230H206.26V226.71C206.26 225.338 207.03 224.344 208.332 224.344C208.444 224.344 208.612 224.358 208.78 224.372V223.112C208.682 223.098 208.598 223.098 208.5 223.098C207.562 223.098 206.778 223.602 206.288 224.428H206.26V223.182H205.126V230ZM212.777 230.084C214.793 230.084 216.291 228.67 216.291 226.598C216.291 224.526 214.793 223.098 212.777 223.098C210.663 223.098 209.249 224.638 209.249 226.598C209.249 228.558 210.663 230.084 212.777 230.084ZM212.777 229.048C211.363 229.048 210.411 227.956 210.411 226.598C210.411 225.24 211.349 224.134 212.777 224.134C214.093 224.134 215.129 225.142 215.129 226.598C215.129 228.054 214.079 229.048 212.777 229.048ZM220.229 230.084C221.125 230.084 221.965 229.636 222.483 228.824H222.497V230H223.631V223.182H222.497V226.486C222.497 228.11 221.559 229.048 220.467 229.048C219.389 229.048 218.801 228.46 218.801 226.92V223.182H217.667V227.242C217.667 229.188 218.661 230.084 220.229 230.084ZM228.533 232.856C230.913 232.856 231.893 231.456 231.893 229.496V223.182H230.759V224.274H230.731C230.185 223.532 229.303 223.098 228.337 223.098C226.419 223.098 225.075 224.554 225.075 226.5C225.075 228.53 226.517 229.874 228.379 229.874C229.429 229.874 230.241 229.412 230.745 228.684H230.773V229.776C230.773 230.924 230.031 231.82 228.491 231.82C227.511 231.82 226.825 231.554 226.041 231.106L225.761 232.114C226.573 232.604 227.511 232.856 228.533 232.856ZM228.519 228.824C227.231 228.824 226.223 227.914 226.223 226.472C226.223 225.142 227.147 224.148 228.533 224.148C229.807 224.148 230.801 225.072 230.801 226.444C230.801 227.802 229.891 228.824 228.519 228.824ZM233.757 230H234.891V226.57C234.891 225.03 235.731 224.134 237.089 224.134C238.083 224.134 238.769 224.694 238.769 226.234V230H239.903V225.912C239.903 223.966 238.895 223.098 237.425 223.098C236.333 223.098 235.437 223.56 234.905 224.372H234.891V219.696H233.757V230ZM244.673 230H245.947L246.829 227.578H251.267L252.163 230H253.437L249.657 220.06H248.439L244.673 230ZM247.221 226.514L249.027 221.53H249.055L250.889 226.514H247.221ZM254.687 232.772H255.821V228.824H255.835C256.339 229.608 257.179 230.084 258.257 230.084C260.133 230.084 261.575 228.712 261.575 226.64C261.575 224.624 260.189 223.098 258.257 223.098C257.221 223.098 256.353 223.574 255.835 224.386H255.821V223.182H254.687V232.772ZM258.103 229.048C256.801 229.048 255.765 228.082 255.765 226.64C255.765 225.24 256.703 224.134 258.089 224.134C259.377 224.134 260.427 225.128 260.427 226.64C260.427 228.012 259.475 229.048 258.103 229.048ZM263.127 230H264.261V226.71C264.261 225.338 265.031 224.344 266.333 224.344C266.445 224.344 266.613 224.358 266.781 224.372V223.112C266.683 223.098 266.599 223.098 266.501 223.098C265.563 223.098 264.779 223.602 264.289 224.428H264.261V223.182H263.127V230ZM274.147 230.084C275.925 230.084 277.255 229.02 277.255 227.424C277.255 226.276 276.611 225.408 275.589 225.016V224.974C276.499 224.582 277.003 223.714 277.003 222.818C277.003 221.222 275.687 220.298 274.049 220.298C272.663 220.298 271.683 220.942 271.179 221.824L272.131 222.356C272.509 221.796 273.069 221.39 274.021 221.39C275.029 221.39 275.813 222.02 275.813 222.972C275.813 223.742 275.309 224.512 274.077 224.512H273.139V225.52H273.937C275.365 225.52 276.051 226.332 276.051 227.256C276.051 228.306 275.183 228.992 274.063 228.992C272.943 228.992 272.215 228.488 271.879 227.718L270.857 228.18C271.333 229.286 272.509 230.084 274.147 230.084ZM280.57 230H281.746V220.382H280.766L278.078 222.37L278.652 223.252L280.57 221.796V230Z" fill="white"/>
<line x1="40" y1="302.75" x2="375" y2="302.75" stroke="#CDCED2" stroke-width="0.5"/>
<path d="M41.408 706H42.816V697.344H42.832L46.528 703.712H47.472L51.168 697.344H51.2V706H52.592V694.64H51.2L47.024 701.984H46.992L42.816 694.64H41.408V706ZM58.256 706.096C59.52 706.096 60.48 705.52 61.04 704.592H61.056V706H62.304V698.208H61.008V699.584L60.976 699.6C60.416 698.656 59.408 698.112 58.256 698.112C56.048 698.112 54.464 699.856 54.464 702.16C54.464 704.528 56.112 706.096 58.256 706.096ZM58.448 704.912C56.848 704.912 55.776 703.728 55.776 702.16C55.776 700.432 56.976 699.296 58.448 699.296C59.984 699.296 61.056 700.56 61.056 702.16C61.056 703.808 59.888 704.912 58.448 704.912ZM64.3923 706H65.6883V704.064L67.2883 702.336L69.6403 706H71.1283L68.1843 701.424L71.0963 698.208H69.5283L65.7043 702.48L65.6883 702.464V694.224H64.3923V706ZM78.9553 701.968C78.9553 699.744 77.4993 698.112 75.3713 698.112C73.1473 698.112 71.5313 699.76 71.5313 702.112C71.5313 704.496 73.1633 706.096 75.4673 706.096C77.0353 706.096 78.0113 705.504 78.6833 704.64L77.7713 703.872C77.2913 704.464 76.5553 704.912 75.5153 704.912C74.0433 704.912 73.0193 703.952 72.8433 702.496H78.9233C78.9233 702.4 78.9553 702.176 78.9553 701.968ZM75.3553 699.296C76.6353 699.296 77.4673 700.16 77.6593 701.44H72.8753C73.1153 700.112 74.1073 699.296 75.3553 699.296ZM92.0147 702.96C92.0147 700.88 90.5747 700.336 88.4947 699.68C87.2787 699.296 86.5747 698.976 86.5747 698.224C86.5747 697.52 87.1667 697.104 88.0947 697.104C88.8307 697.104 89.7747 697.392 90.6387 698.016L91.7267 696.672C90.9907 696.08 89.9347 695.6 88.9107 695.408V693.344H87.5027V695.36C85.6307 695.552 84.5587 696.752 84.5587 698.352C84.5587 700.336 86.1747 700.928 87.9507 701.472C89.3267 701.904 89.9827 702.24 89.9827 703.104C89.9827 703.856 89.3267 704.32 88.3827 704.32C87.4547 704.32 86.3507 703.92 85.4547 703.056L84.3187 704.416C85.2467 705.328 86.3507 705.84 87.5027 706V707.952H88.9107V706.032C90.8307 705.84 92.0147 704.672 92.0147 702.96ZM92.8186 695.008V696.704H97.5706L93.7466 705.872L95.6186 706.224L99.6506 696.24V695.008H92.8186ZM104.712 698.944C104.328 698.944 103.8 699.024 103.288 699.184L103.432 696.72H107.64V695.008H101.688L101.368 700.768L102.376 701.12C102.904 700.688 103.496 700.544 104.168 700.544C105.208 700.544 106.296 701.216 106.296 702.448C106.296 703.568 105.48 704.416 104.136 704.416C103.16 704.416 102.36 703.952 101.896 703.28L100.552 704.352C101.416 705.504 102.792 706.128 104.296 706.128C106.632 706.128 108.184 704.64 108.184 702.48C108.184 700.272 106.616 698.944 104.712 698.944ZM113.683 706.128C116.339 706.128 117.907 703.824 117.907 700.512C117.907 696.928 116.163 694.896 113.683 694.896C111.043 694.896 109.459 697.184 109.459 700.512C109.459 704.08 111.203 706.128 113.683 706.128ZM113.683 704.4C112.275 704.4 111.347 702.944 111.347 700.512C111.347 698.048 112.243 696.608 113.683 696.608C115.123 696.608 116.019 698.048 116.019 700.512C116.019 702.96 115.155 704.4 113.683 704.4ZM123.832 706H125.128V702.128C125.128 700.384 126.088 699.296 127.368 699.296C128.536 699.296 129.176 700.208 129.176 701.872V706H130.472V702.128C130.472 700.384 131.448 699.296 132.664 699.296C133.848 699.296 134.44 700.208 134.44 701.872V706H135.736V701.52C135.736 699.296 134.776 698.112 133.048 698.112C131.832 698.112 130.776 698.72 130.184 699.776H130.168C129.768 698.704 128.92 698.112 127.752 698.112C126.712 698.112 125.736 698.672 125.144 699.616H125.128V698.208H123.832V706ZM141.284 706.096C143.588 706.096 145.3 704.48 145.3 702.112C145.3 699.744 143.588 698.112 141.284 698.112C138.868 698.112 137.252 699.872 137.252 702.112C137.252 704.352 138.868 706.096 141.284 706.096ZM141.284 704.912C139.668 704.912 138.58 703.664 138.58 702.112C138.58 700.56 139.652 699.296 141.284 699.296C142.788 699.296 143.972 700.448 143.972 702.112C143.972 703.776 142.772 704.912 141.284 704.912ZM146.992 706H148.288V702.24C148.288 700.672 149.168 699.536 150.656 699.536C150.784 699.536 150.976 699.552 151.168 699.568V698.128C151.056 698.112 150.96 698.112 150.848 698.112C149.776 698.112 148.88 698.688 148.32 699.632H148.288V698.208H146.992V706ZM159.071 701.968C159.071 699.744 157.615 698.112 155.487 698.112C153.263 698.112 151.647 699.76 151.647 702.112C151.647 704.496 153.279 706.096 155.583 706.096C157.151 706.096 158.127 705.504 158.799 704.64L157.887 703.872C157.407 704.464 156.671 704.912 155.631 704.912C154.159 704.912 153.135 703.952 152.959 702.496H159.039C159.039 702.4 159.071 702.176 159.071 701.968ZM155.471 699.296C156.751 699.296 157.583 700.16 157.775 701.44H152.991C153.231 700.112 154.223 699.296 155.471 699.296ZM168.242 706.096C169.762 706.096 170.802 705.52 171.458 704.736L170.562 703.92C170.082 704.512 169.266 704.912 168.338 704.912C166.754 704.912 165.682 703.776 165.682 702.112C165.682 700.464 166.754 699.296 168.354 699.296C169.282 699.296 170.05 699.712 170.546 700.288L171.426 699.504C170.658 698.592 169.458 698.112 168.29 698.112C165.97 698.112 164.354 699.76 164.354 702.112C164.354 704.48 165.97 706.096 168.242 706.096ZM176.49 706.096C178.794 706.096 180.506 704.48 180.506 702.112C180.506 699.744 178.794 698.112 176.49 698.112C174.074 698.112 172.458 699.872 172.458 702.112C172.458 704.352 174.074 706.096 176.49 706.096ZM176.49 704.912C174.874 704.912 173.786 703.664 173.786 702.112C173.786 700.56 174.858 699.296 176.49 699.296C177.994 699.296 179.178 700.448 179.178 702.112C179.178 703.776 177.978 704.912 176.49 704.912ZM182.198 706H183.494V702.128C183.494 700.384 184.454 699.296 185.734 699.296C186.902 699.296 187.542 700.208 187.542 701.872V706H188.838V702.128C188.838 700.384 189.814 699.296 191.03 699.296C192.214 699.296 192.806 700.208 192.806 701.872V706H194.102V701.52C194.102 699.296 193.142 698.112 191.414 698.112C190.198 698.112 189.142 698.72 188.55 699.776H188.534C188.134 698.704 187.286 698.112 186.118 698.112C185.078 698.112 184.102 698.672 183.51 699.616H183.494V698.208H182.198V706ZM196.115 709.168H197.411V704.656H197.427C198.003 705.552 198.963 706.096 200.195 706.096C202.339 706.096 203.987 704.528 203.987 702.16C203.987 699.856 202.403 698.112 200.195 698.112C199.011 698.112 198.019 698.656 197.427 699.584H197.411V698.208H196.115V709.168ZM200.019 704.912C198.531 704.912 197.347 703.808 197.347 702.16C197.347 700.56 198.419 699.296 200.003 699.296C201.475 699.296 202.675 700.432 202.675 702.16C202.675 703.728 201.587 704.912 200.019 704.912ZM205.799 706H207.095V694.224H205.799V706ZM216.313 701.968C216.313 699.744 214.857 698.112 212.729 698.112C210.505 698.112 208.889 699.76 208.889 702.112C208.889 704.496 210.521 706.096 212.825 706.096C214.393 706.096 215.369 705.504 216.041 704.64L215.129 703.872C214.649 704.464 213.913 704.912 212.873 704.912C211.401 704.912 210.377 703.952 210.201 702.496H216.281C216.281 702.4 216.313 702.176 216.313 701.968ZM212.713 699.296C213.993 699.296 214.825 700.16 215.017 701.44H210.233C210.473 700.112 211.465 699.296 212.713 699.296ZM220.165 706.096C221.093 706.096 221.621 705.872 222.053 705.616L221.717 704.48C221.333 704.688 220.853 704.88 220.389 704.88C219.653 704.88 219.445 704.432 219.445 703.488V699.328H222.021V698.208H219.445V695.408L218.149 695.552V698.208H217.141V699.328H218.149V703.68C218.149 705.248 218.789 706.096 220.165 706.096ZM230.067 701.968C230.067 699.744 228.611 698.112 226.483 698.112C224.259 698.112 222.643 699.76 222.643 702.112C222.643 704.496 224.275 706.096 226.579 706.096C228.147 706.096 229.123 705.504 229.795 704.64L228.883 703.872C228.403 704.464 227.667 704.912 226.627 704.912C225.155 704.912 224.131 703.952 223.955 702.496H230.035C230.035 702.4 230.067 702.176 230.067 701.968ZM226.467 699.296C227.747 699.296 228.579 700.16 228.771 701.44H223.987C224.227 700.112 225.219 699.296 226.467 699.296ZM238.199 706.096C240.071 706.096 240.999 705.088 240.999 703.872C241.015 702.352 239.927 702.064 238.279 701.424C237.431 701.12 236.807 700.816 236.807 700.208C236.807 699.616 237.399 699.264 238.007 699.264C238.679 699.264 239.399 699.472 240.071 700.096L240.743 699.072C239.879 698.368 238.999 698.112 238.055 698.112C236.583 698.112 235.495 699.008 235.495 700.208C235.495 701.632 236.567 702.144 237.831 702.592C238.967 703.008 239.687 703.2 239.687 703.888C239.687 704.48 239.143 704.944 238.199 704.944C237.111 704.944 236.423 704.592 235.815 704L235.159 704.992C235.911 705.648 236.903 706.096 238.199 706.096ZM245.684 706.096C246.948 706.096 247.908 705.52 248.468 704.592H248.484V706H249.732V698.208H248.436V699.584L248.404 699.6C247.844 698.656 246.836 698.112 245.684 698.112C243.476 698.112 241.892 699.856 241.892 702.16C241.892 704.528 243.539 706.096 245.684 706.096ZM245.876 704.912C244.276 704.912 243.204 703.728 243.204 702.16C243.204 700.432 244.404 699.296 245.876 699.296C247.412 699.296 248.484 700.56 248.484 702.16C248.484 703.808 247.316 704.912 245.876 704.912ZM251.916 706H253.212V694.224H251.916V706ZM262.43 701.968C262.43 699.744 260.974 698.112 258.846 698.112C256.622 698.112 255.006 699.76 255.006 702.112C255.006 704.496 256.638 706.096 258.942 706.096C260.51 706.096 261.486 705.504 262.158 704.64L261.246 703.872C260.766 704.464 260.03 704.912 258.99 704.912C257.518 704.912 256.494 703.952 256.318 702.496H262.398C262.398 702.4 262.43 702.176 262.43 701.968ZM258.83 699.296C260.11 699.296 260.942 700.16 261.134 701.44H256.35C256.59 700.112 257.582 699.296 258.83 699.296ZM272.289 706.096C274.433 706.096 276.081 704.528 276.081 702.16C276.081 699.856 274.497 698.112 272.289 698.112C271.105 698.112 270.113 698.64 269.521 699.568H269.505V694.224H268.209V706H269.441V704.592H269.473C270.049 705.52 271.009 706.096 272.289 706.096ZM272.113 704.912C270.625 704.912 269.441 703.808 269.441 702.16C269.441 700.56 270.513 699.296 272.097 699.296C273.569 699.296 274.769 700.432 274.769 702.16C274.769 703.728 273.681 704.912 272.113 704.912ZM278.369 709.168H279.713L284.129 698.208H282.769L280.417 704.128H280.385L277.857 698.208H276.449L279.761 705.696L278.369 709.168ZM289.775 706H293.439C297.087 706 299.295 703.68 299.295 700.336C299.295 696.976 296.991 694.64 293.391 694.64H289.775V706ZM291.711 704.272V696.368H293.423C295.711 696.368 297.295 698.032 297.295 700.336C297.295 702.592 295.727 704.272 293.327 704.272H291.711ZM308.228 702C308.228 699.728 306.74 698.08 304.548 698.08C302.26 698.08 300.628 699.696 300.628 702.096C300.628 704.544 302.308 706.128 304.676 706.128C306.356 706.128 307.332 705.504 307.988 704.656L306.74 703.584C306.34 704.08 305.7 704.496 304.772 704.496C303.556 704.496 302.708 703.824 302.484 702.688H308.18C308.196 702.56 308.228 702.288 308.228 702ZM304.532 699.696C305.556 699.696 306.196 700.336 306.42 701.28H302.516C302.772 700.256 303.54 699.696 304.532 699.696ZM313.356 706.128C315.052 706.128 316.06 705.52 316.716 704.672L315.484 703.584C315.084 704.112 314.38 704.496 313.516 704.496C312.14 704.496 311.196 703.536 311.196 702.096C311.196 700.672 312.124 699.696 313.516 699.696C314.364 699.696 315.036 700.064 315.484 700.592L316.7 699.536C315.916 698.576 314.636 698.08 313.42 698.08C311.052 698.08 309.372 699.712 309.372 702.112C309.372 704.496 311.052 706.128 313.356 706.128ZM325.305 706.128C327.401 706.128 328.953 704.896 328.953 703.024C328.953 701.744 328.249 700.8 327.193 700.32V700.272C328.105 699.776 328.649 698.88 328.649 697.808C328.649 695.952 327.097 694.896 325.177 694.896C323.577 694.896 322.361 695.68 321.833 696.768L323.321 697.568C323.673 697.008 324.217 696.608 325.129 696.608C326.041 696.608 326.777 697.216 326.777 698.096C326.777 698.864 326.329 699.552 325.177 699.552H324.169V701.12H325.001C326.377 701.12 327.065 701.904 327.065 702.768C327.065 703.76 326.217 704.4 325.177 704.4C324.073 704.4 323.369 703.904 323.033 703.088L321.433 703.792C321.977 705.136 323.385 706.128 325.305 706.128ZM332.694 706H334.55V695.008H333.046L329.83 697.344L330.71 698.72L332.694 697.232V706ZM336.125 708.112H337.437L338.557 704.064H336.637L336.125 708.112ZM40.672 728H47.728V726.304H43.488L43.472 726.256L45.792 723.84C47.184 722.4 47.616 721.36 47.616 720.144C47.616 718.128 45.984 716.912 44.176 716.912C42.384 716.912 41.248 717.808 40.624 718.992L41.952 719.936C42.448 719.072 43.168 718.64 44.048 718.64C45.04 718.64 45.728 719.376 45.728 720.352C45.728 721.296 45.072 722.096 44.176 723.04L40.64 726.768L40.672 728ZM53.3316 728.128C55.9876 728.128 57.5556 725.824 57.5556 722.512C57.5556 718.928 55.8116 716.896 53.3316 716.896C50.6916 716.896 49.1076 719.184 49.1076 722.512C49.1076 726.08 50.8516 728.128 53.3316 728.128ZM53.3316 726.4C51.9236 726.4 50.9956 724.944 50.9956 722.512C50.9956 720.048 51.8916 718.608 53.3316 718.608C54.7716 718.608 55.6676 720.048 55.6676 722.512C55.6676 724.96 54.8036 726.4 53.3316 726.4ZM58.817 728H65.873V726.304H61.633L61.617 726.256L63.937 723.84C65.329 722.4 65.761 721.36 65.761 720.144C65.761 718.128 64.129 716.912 62.321 716.912C60.529 716.912 59.393 717.808 58.769 718.992L60.097 719.936C60.593 719.072 61.313 718.64 62.193 718.64C63.185 718.64 63.873 719.376 63.873 720.352C63.873 721.296 63.217 722.096 62.321 723.04L58.785 726.768L58.817 728ZM71.4766 728.128C74.1326 728.128 75.7006 725.824 75.7006 722.512C75.7006 718.928 73.9566 716.896 71.4766 716.896C68.8366 716.896 67.2526 719.184 67.2526 722.512C67.2526 726.08 68.9966 728.128 71.4766 728.128ZM71.4766 726.4C70.0686 726.4 69.1406 724.944 69.1406 722.512C69.1406 720.048 70.0366 718.608 71.4766 718.608C72.9166 718.608 73.8126 720.048 73.8126 722.512C73.8126 724.96 72.9486 726.4 71.4766 726.4ZM83.8174 728.096C84.7454 728.096 85.2734 727.872 85.7054 727.616L85.3694 726.48C84.9854 726.688 84.5054 726.88 84.0414 726.88C83.3054 726.88 83.0974 726.432 83.0974 725.488V721.328H85.6734V720.208H83.0974V717.408L81.8014 717.552V720.208H80.7934V721.328H81.8014V725.68C81.8014 727.248 82.4414 728.096 83.8174 728.096ZM90.3276 728.096C92.6316 728.096 94.3436 726.48 94.3436 724.112C94.3436 721.744 92.6316 720.112 90.3276 720.112C87.9116 720.112 86.2956 721.872 86.2956 724.112C86.2956 726.352 87.9116 728.096 90.3276 728.096ZM90.3276 726.912C88.7116 726.912 87.6236 725.664 87.6236 724.112C87.6236 722.56 88.6956 721.296 90.3276 721.296C91.8316 721.296 93.0156 722.448 93.0156 724.112C93.0156 725.776 91.8156 726.912 90.3276 726.912ZM102.907 728.096C103.931 728.096 104.891 727.584 105.483 726.656H105.499V728H106.795V720.208H105.499V723.984C105.499 725.84 104.427 726.912 103.179 726.912C101.947 726.912 101.275 726.24 101.275 724.48V720.208H99.9794V724.848C99.9794 727.072 101.115 728.096 102.907 728.096ZM108.9 728H110.196V724.112C110.196 722.352 111.156 721.296 112.628 721.296C113.764 721.296 114.548 721.92 114.548 723.744V728H115.844V723.376C115.844 721.152 114.724 720.112 113.044 720.112C111.844 720.112 110.82 720.672 110.212 721.616H110.196V720.208H108.9V728ZM117.974 728H119.27V716.224H117.974V728ZM125.096 728.096C127.4 728.096 129.112 726.48 129.112 724.112C129.112 721.744 127.4 720.112 125.096 720.112C122.68 720.112 121.064 721.872 121.064 724.112C121.064 726.352 122.68 728.096 125.096 728.096ZM125.096 726.912C123.48 726.912 122.392 725.664 122.392 724.112C122.392 722.56 123.464 721.296 125.096 721.296C126.6 721.296 127.784 722.448 127.784 724.112C127.784 725.776 126.584 726.912 125.096 726.912ZM134.197 728.096C135.717 728.096 136.757 727.52 137.413 726.736L136.517 725.92C136.037 726.512 135.221 726.912 134.293 726.912C132.709 726.912 131.637 725.776 131.637 724.112C131.637 722.464 132.709 721.296 134.309 721.296C135.237 721.296 136.005 721.712 136.501 722.288L137.381 721.504C136.613 720.592 135.413 720.112 134.245 720.112C131.925 720.112 130.309 721.76 130.309 724.112C130.309 726.48 131.925 728.096 134.197 728.096ZM138.908 728H140.204V726.064L141.804 724.336L144.156 728H145.644L142.7 723.424L145.612 720.208H144.044L140.22 724.48L140.204 724.464V716.224H138.908V728ZM151.151 728H153.087V723.952H155.039C157.487 723.952 159.151 722.784 159.151 720.32C159.151 718.208 157.983 716.64 155.263 716.64H151.151V728ZM153.087 722.208V718.368H154.991C156.383 718.368 157.151 719.088 157.151 720.288C157.151 721.408 156.431 722.208 154.847 722.208H153.087ZM160.862 728H162.654V716.224H160.862V728ZM168.165 728.128C169.253 728.128 170.085 727.712 170.645 726.96L170.677 726.976V728H172.389V720.192H170.597V721.136L170.565 721.152C170.005 720.448 169.141 720.08 168.149 720.08C166.005 720.08 164.389 721.776 164.389 724.128C164.389 726.544 166.005 728.128 168.165 728.128ZM168.453 726.496C167.125 726.496 166.213 725.52 166.213 724.144C166.213 722.64 167.205 721.696 168.453 721.696C169.733 721.696 170.677 722.752 170.677 724.144C170.677 725.552 169.669 726.496 168.453 726.496ZM176.73 728.128C177.754 728.128 178.25 727.92 178.714 727.664L178.25 726.112C177.834 726.336 177.402 726.448 177.098 726.448C176.586 726.448 176.346 726.16 176.346 725.36V721.712H178.634V720.192H176.346V717.408L174.554 717.6V720.192H173.594V721.712H174.554V725.536C174.554 727.28 175.386 728.128 176.73 728.128ZM181.022 719.04C181.694 719.04 182.238 718.496 182.238 717.84C182.238 717.2 181.694 716.656 181.022 716.656C180.35 716.656 179.822 717.2 179.822 717.84C179.822 718.496 180.35 719.04 181.022 719.04ZM180.126 728H181.918V720.192H180.126V728ZM184.134 728H185.926V724.08C185.926 722.544 186.726 721.696 187.942 721.696C189.014 721.696 189.638 722.224 189.638 723.872V728H191.43V723.408C191.43 721.056 190.278 720.08 188.566 720.08C187.542 720.08 186.598 720.496 185.958 721.264H185.926V720.192H184.134V728ZM196.146 728.128C197.042 728.128 197.906 727.76 198.53 727.008L198.562 727.024V728H200.354V720.192H198.562V723.936C198.562 725.616 197.602 726.496 196.562 726.496C195.49 726.496 195.01 726.016 195.01 724.464V720.192H193.218V724.944C193.218 727.264 194.418 728.128 196.146 728.128ZM202.388 728H204.18V724.112C204.18 722.576 204.98 721.696 206.052 721.696C207.108 721.696 207.604 722.528 207.604 723.936V728H209.396V724.112C209.396 722.576 210.212 721.696 211.22 721.696C212.276 721.696 212.74 722.528 212.74 723.936V728H214.532V723.488C214.532 721.152 213.508 720.08 211.796 720.08C210.644 720.08 209.652 720.528 208.996 721.376H208.964C208.5 720.496 207.684 720.08 206.628 720.08C205.732 720.08 204.836 720.496 204.196 721.264H204.18V720.192H202.388V728ZM217.499 728.128C218.155 728.128 218.699 727.6 218.699 726.944C218.699 726.288 218.155 725.744 217.499 725.744C216.827 725.744 216.283 726.288 216.283 726.944C216.283 727.6 216.827 728.128 217.499 728.128Z" fill="#4C4C4C"/>
<rect x="20" y="765" width="375" height="54" fill="white"/>
<path d="M45.02 809H47.44V802.72L52.22 794.8H49.42L46.26 800.3H46.22L43.04 794.8H40.28L45.02 802.72V809ZM55.9459 809.16C58.9459 809.16 61.0659 807.1 61.0659 804.14C61.0659 801.14 58.9459 799.1 55.9459 799.1C52.8659 799.1 50.8259 801.26 50.8259 804.14C50.8259 807 52.8659 809.16 55.9459 809.16ZM55.9459 807.12C54.2659 807.12 53.1059 805.8 53.1059 804.14C53.1059 802.44 54.2459 801.12 55.9459 801.12C57.5459 801.12 58.7859 802.34 58.7859 804.14C58.7859 805.9 57.5259 807.12 55.9459 807.12ZM66.2181 809.16C67.3381 809.16 68.4181 808.7 69.1981 807.76L69.2381 807.78V809H71.4781V799.24H69.2381V803.92C69.2381 806.02 68.0381 807.12 66.7381 807.12C65.3981 807.12 64.7981 806.52 64.7981 804.58V799.24H62.5581V805.18C62.5581 808.08 64.0581 809.16 66.2181 809.16ZM73.6806 809H75.9206V804.38C75.9206 802.78 76.8806 801.56 78.5806 801.56C78.7406 801.56 79.0006 801.58 79.2606 801.6V799.1H78.9806C77.8006 799.1 76.7206 799.68 75.9606 800.7H75.9206V799.24H73.6806V809ZM84.9136 811.94H89.3936V810.2H86.8936V796.08H89.3936V794.36H84.9136V811.94ZM91.3537 809H93.5937V794.28H91.3537V809ZM104.943 804C104.943 801.16 103.083 799.1 100.343 799.1C97.483 799.1 95.443 801.12 95.443 804.12C95.443 807.18 97.543 809.16 100.503 809.16C102.603 809.16 103.823 808.38 104.643 807.32L103.083 805.98C102.583 806.6 101.783 807.12 100.623 807.12C99.103 807.12 98.043 806.28 97.763 804.86H104.883C104.903 804.7 104.943 804.36 104.943 804ZM100.323 801.12C101.603 801.12 102.403 801.92 102.683 803.1H97.803C98.123 801.82 99.083 801.12 100.323 801.12ZM108.867 809H111.007L114.887 799.24H112.507L109.967 806.2H109.947L107.407 799.24H105.007L108.867 809ZM124.425 804C124.425 801.16 122.565 799.1 119.825 799.1C116.965 799.1 114.925 801.12 114.925 804.12C114.925 807.18 117.025 809.16 119.985 809.16C122.085 809.16 123.305 808.38 124.125 807.32L122.565 805.98C122.065 806.6 121.265 807.12 120.105 807.12C118.585 807.12 117.525 806.28 117.245 804.86H124.365C124.385 804.7 124.425 804.36 124.425 804ZM119.805 801.12C121.085 801.12 121.885 801.92 122.165 803.1H117.285C117.605 801.82 118.565 801.12 119.805 801.12ZM126.235 809H128.475V794.28H126.235V809ZM134.924 811.94V794.36H130.444V796.08H132.944V810.2H130.444V811.94H134.924ZM146.976 809.16C149.696 809.16 151.716 807.18 151.716 804.16C151.716 801.22 149.696 799.1 146.996 799.1C145.716 799.1 144.656 799.54 143.896 800.4H143.876V794.28H141.636V809H143.776V807.7H143.816C144.536 808.64 145.576 809.16 146.976 809.16ZM146.636 807.12C145.036 807.12 143.776 805.94 143.776 804.18C143.776 802.44 144.936 801.12 146.616 801.12C148.176 801.12 149.436 802.3 149.436 804.18C149.436 805.9 148.276 807.12 146.636 807.12ZM162.338 804C162.338 801.16 160.478 799.1 157.738 799.1C154.878 799.1 152.838 801.12 152.838 804.12C152.838 807.18 154.938 809.16 157.898 809.16C159.998 809.16 161.218 808.38 162.038 807.32L160.478 805.98C159.978 806.6 159.178 807.12 158.018 807.12C156.498 807.12 155.438 806.28 155.158 804.86H162.278C162.298 804.7 162.338 804.36 162.338 804ZM157.718 801.12C158.998 801.12 159.798 801.92 160.078 803.1H155.198C155.518 801.82 156.478 801.12 157.718 801.12ZM164.008 809H166.248V804.1C166.248 802.18 167.248 801.12 168.768 801.12C170.108 801.12 170.888 801.78 170.888 803.84V809H173.128V803.26C173.128 800.32 171.688 799.1 169.548 799.1C168.268 799.1 167.088 799.62 166.288 800.58H166.248V799.24H164.008V809ZM184.144 804C184.144 801.16 182.284 799.1 179.544 799.1C176.684 799.1 174.644 801.12 174.644 804.12C174.644 807.18 176.744 809.16 179.704 809.16C181.804 809.16 183.024 808.38 183.844 807.32L182.284 805.98C181.784 806.6 180.984 807.12 179.824 807.12C178.304 807.12 177.244 806.28 176.964 804.86H184.084C184.104 804.7 184.144 804.36 184.144 804ZM179.524 801.12C180.804 801.12 181.604 801.92 181.884 803.1H177.004C177.324 801.82 178.284 801.12 179.524 801.12ZM185.999 809H188.239V801.14H190.639V799.24H188.239V797.7C188.239 796.64 188.599 796.18 189.279 796.18C189.699 796.18 190.259 796.38 190.899 796.68L191.399 794.8C190.879 794.46 190.039 794.12 188.959 794.12C187.039 794.12 185.999 795.28 185.999 797.46V799.24H184.919V801.14H185.999V809ZM193.114 797.8C193.954 797.8 194.634 797.12 194.634 796.3C194.634 795.5 193.954 794.82 193.114 794.82C192.274 794.82 191.614 795.5 191.614 796.3C191.614 797.12 192.274 797.8 193.114 797.8ZM191.994 809H194.234V799.24H191.994V809ZM199.563 809.16C200.843 809.16 201.463 808.9 202.043 808.58L201.463 806.64C200.943 806.92 200.403 807.06 200.023 807.06C199.383 807.06 199.083 806.7 199.083 805.7V801.14H201.943V799.24H199.083V795.76L196.843 796V799.24H195.643V801.14H196.843V805.92C196.843 808.1 197.883 809.16 199.563 809.16ZM206.448 809.16C208.928 809.16 210.088 807.84 210.088 806.2C210.088 804.26 208.788 803.88 206.708 803.06C205.768 802.7 205.168 802.36 205.168 801.88C205.168 801.28 205.788 801.04 206.228 801.04C206.988 801.04 207.888 801.34 208.668 802.08L209.788 800.32C208.708 799.44 207.588 799.1 206.348 799.1C204.348 799.1 202.908 800.26 202.908 801.86C202.908 803.78 204.288 804.5 205.888 805.06C207.168 805.5 207.808 805.74 207.808 806.24C207.808 806.82 207.308 807.2 206.448 807.2C205.248 807.2 204.408 806.82 203.628 806.06L202.508 807.74C203.528 808.64 204.868 809.16 206.448 809.16Z" fill="#4C4C4C"/>
<path d="M122.608 860.096C124.352 860.096 126.016 859.536 127.056 858.672V853.936H122.352V855.664H125.136V857.584C124.368 858.096 123.52 858.336 122.608 858.336C120.336 858.336 118.896 856.608 118.896 854.336C118.896 851.872 120.48 850.336 122.528 850.336C123.808 850.336 124.832 850.8 125.616 851.568L126.976 850.384C125.792 849.104 124.128 848.512 122.544 848.512C119.04 848.512 116.88 850.992 116.88 854.336C116.88 857.936 119.344 860.096 122.608 860.096ZM132.701 860.128C135.101 860.128 136.797 858.48 136.797 856.112C136.797 853.712 135.101 852.08 132.701 852.08C130.237 852.08 128.605 853.808 128.605 856.112C128.605 858.4 130.237 860.128 132.701 860.128ZM132.701 858.496C131.357 858.496 130.429 857.44 130.429 856.112C130.429 854.752 131.341 853.696 132.701 853.696C133.981 853.696 134.973 854.672 134.973 856.112C134.973 857.52 133.965 858.496 132.701 858.496ZM138.534 860H140.326V848.224H138.534V860ZM145.854 860.128C146.974 860.128 147.822 859.696 148.398 858.944H148.414V860H150.126V848.224H148.35V853.152H148.334C147.742 852.448 146.862 852.08 145.838 852.08C143.694 852.08 142.062 853.776 142.062 856.128C142.062 858.544 143.694 860.128 145.854 860.128ZM146.126 858.496C144.814 858.496 143.886 857.52 143.886 856.144C143.886 854.64 144.894 853.696 146.142 853.696C147.486 853.696 148.414 854.752 148.414 856.144C148.414 857.552 147.406 858.496 146.126 858.496Z" fill="#4C4C4C"/>
<path d="M120.102 885.084C121.838 885.084 123.434 884.104 123.434 882.284C123.434 880.422 122.02 879.974 120.354 879.316C119.108 878.84 118.212 878.49 118.226 877.538C118.24 876.586 119.066 876.082 120.004 876.082C120.746 876.082 121.6 876.432 122.398 877.09L123.14 876.124C122.202 875.368 121.11 874.962 120.004 874.962C118.296 874.962 116.966 876.11 116.966 877.594C116.966 879.344 118.464 879.974 119.934 880.52C121.264 881.024 122.16 881.318 122.16 882.424C122.16 883.39 121.334 883.95 120.116 883.95C119.15 883.95 118.086 883.502 117.372 882.606L116.588 883.544C117.582 884.608 118.856 885.084 120.102 885.084ZM131.087 881.472C131.087 879.526 129.813 878.098 127.951 878.098C126.005 878.098 124.591 879.54 124.591 881.598C124.591 883.684 126.019 885.084 128.035 885.084C129.407 885.084 130.261 884.566 130.849 883.81L130.051 883.138C129.631 883.656 128.987 884.048 128.077 884.048C126.789 884.048 125.893 883.208 125.739 881.934H131.059C131.059 881.85 131.087 881.654 131.087 881.472ZM127.937 879.134C129.057 879.134 129.785 879.89 129.953 881.01H125.767C125.977 879.848 126.845 879.134 127.937 879.134ZM132.674 885H133.808V874.696H132.674V885ZM135.945 885H137.079V874.696H135.945V885ZM139.791 876.936C140.253 876.936 140.617 876.572 140.617 876.124C140.617 875.676 140.253 875.312 139.791 875.312C139.329 875.312 138.965 875.676 138.965 876.124C138.965 876.572 139.329 876.936 139.791 876.936ZM139.217 885H140.351V878.182H139.217V885ZM142.405 885H143.539V881.598C143.539 880.058 144.379 879.134 145.667 879.134C146.661 879.134 147.347 879.68 147.347 881.276V885H148.481V880.954C148.481 879.008 147.501 878.098 146.031 878.098C144.981 878.098 144.085 878.588 143.553 879.414H143.539V878.182H142.405V885ZM153.321 887.856C155.701 887.856 156.681 886.456 156.681 884.496V878.182H155.547V879.274H155.519C154.973 878.532 154.091 878.098 153.125 878.098C151.207 878.098 149.863 879.554 149.863 881.5C149.863 883.53 151.305 884.874 153.167 884.874C154.217 884.874 155.029 884.412 155.533 883.684H155.561V884.776C155.561 885.924 154.819 886.82 153.279 886.82C152.299 886.82 151.613 886.554 150.829 886.106L150.549 887.114C151.361 887.604 152.299 887.856 153.321 887.856ZM153.307 883.824C152.019 883.824 151.011 882.914 151.011 881.472C151.011 880.142 151.935 879.148 153.321 879.148C154.595 879.148 155.589 880.072 155.589 881.444C155.589 882.802 154.679 883.824 153.307 883.824ZM162.48 885H163.614V879.162H165.546V878.182H163.614V876.908C163.614 876.012 163.978 875.648 164.538 875.648C164.916 875.648 165.294 875.788 165.728 876.012L165.98 875.046C165.602 874.808 165.084 874.598 164.398 874.598C163.18 874.598 162.48 875.34 162.48 876.796V878.182H161.654V879.162H162.48V885ZM172.586 881.472C172.586 879.526 171.312 878.098 169.45 878.098C167.504 878.098 166.09 879.54 166.09 881.598C166.09 883.684 167.518 885.084 169.534 885.084C170.906 885.084 171.76 884.566 172.348 883.81L171.55 883.138C171.13 883.656 170.486 884.048 169.576 884.048C168.288 884.048 167.392 883.208 167.238 881.934H172.558C172.558 881.85 172.586 881.654 172.586 881.472ZM169.436 879.134C170.556 879.134 171.284 879.89 171.452 881.01H167.266C167.476 879.848 168.344 879.134 169.436 879.134ZM180.151 881.472C180.151 879.526 178.877 878.098 177.015 878.098C175.069 878.098 173.655 879.54 173.655 881.598C173.655 883.684 175.083 885.084 177.099 885.084C178.471 885.084 179.325 884.566 179.913 883.81L179.115 883.138C178.695 883.656 178.051 884.048 177.141 884.048C175.853 884.048 174.957 883.208 174.803 881.934H180.123C180.123 881.85 180.151 881.654 180.151 881.472ZM177.001 879.134C178.121 879.134 178.849 879.89 179.017 881.01H174.831C175.041 879.848 175.909 879.134 177.001 879.134ZM188.402 885.084C190.418 885.084 191.916 883.67 191.916 881.598C191.916 879.526 190.418 878.098 188.402 878.098C186.288 878.098 184.874 879.638 184.874 881.598C184.874 883.558 186.288 885.084 188.402 885.084ZM188.402 884.048C186.988 884.048 186.036 882.956 186.036 881.598C186.036 880.24 186.974 879.134 188.402 879.134C189.718 879.134 190.754 880.142 190.754 881.598C190.754 883.054 189.704 884.048 188.402 884.048ZM193.7 885H194.834V879.162H196.766V878.182H194.834V876.908C194.834 876.012 195.198 875.648 195.758 875.648C196.136 875.648 196.514 875.788 196.948 876.012L197.2 875.046C196.822 874.808 196.304 874.598 195.618 874.598C194.4 874.598 193.7 875.34 193.7 876.796V878.182H192.874V879.162H193.7V885ZM204.488 885.084C206.378 885.084 207.876 884.02 207.876 882.354C207.876 881.052 207.092 880.128 206.028 879.806V879.778C206.7 879.554 207.4 878.784 207.4 877.748C207.4 876.278 206.224 875.298 204.488 875.298C202.85 875.298 201.59 876.208 201.59 877.748C201.59 878.77 202.276 879.526 202.948 879.778V879.806C201.898 880.142 201.114 881.066 201.114 882.354C201.114 883.922 202.5 885.084 204.488 885.084ZM204.488 879.288C203.452 879.288 202.724 878.728 202.724 877.846C202.724 877.02 203.41 876.348 204.488 876.348C205.51 876.348 206.266 876.964 206.266 877.846C206.266 878.728 205.538 879.288 204.488 879.288ZM204.488 884.02C203.27 884.02 202.318 883.264 202.318 882.228C202.318 881.122 203.172 880.38 204.488 880.38C205.79 880.38 206.672 881.122 206.672 882.228C206.672 883.194 205.804 884.02 204.488 884.02ZM209.92 885.098C210.382 885.098 210.746 884.734 210.746 884.272C210.746 883.81 210.382 883.446 209.92 883.446C209.458 883.446 209.08 883.81 209.08 884.272C209.08 884.734 209.458 885.098 209.92 885.098ZM215.379 878.896C214.987 878.896 214.413 878.994 213.909 879.176L214.063 876.474H218.039V875.382H212.957L212.677 880.24L213.363 880.45C213.853 880.072 214.427 879.918 215.057 879.918C216.233 879.918 217.283 880.646 217.283 881.948C217.283 883.138 216.387 883.992 215.043 883.992C214.063 883.992 213.251 883.53 212.817 882.83L211.935 883.488C212.607 884.496 213.811 885.084 215.141 885.084C217.087 885.084 218.487 883.824 218.487 881.962C218.487 880.03 217.087 878.896 215.379 878.896ZM224.108 885.238L228.462 875.284L227.538 874.892L223.184 884.846L224.108 885.238ZM222.246 880.478C223.912 880.478 225.032 879.232 225.032 877.706C225.032 876.068 223.772 874.962 222.246 874.962C220.58 874.962 219.46 876.194 219.46 877.706C219.46 879.372 220.706 880.478 222.246 880.478ZM222.246 879.582C221.252 879.582 220.454 878.84 220.454 877.72C220.454 876.698 221.168 875.872 222.246 875.872C223.268 875.872 224.066 876.614 224.066 877.72C224.066 878.756 223.352 879.582 222.246 879.582ZM229.33 885.084C231.01 885.084 232.13 883.852 232.13 882.326C232.13 880.674 230.87 879.582 229.33 879.582C227.664 879.582 226.544 880.814 226.544 882.326C226.544 883.978 227.804 885.084 229.33 885.084ZM229.344 884.202C228.336 884.202 227.524 883.446 227.524 882.34C227.524 881.318 228.252 880.492 229.344 880.492C230.352 880.492 231.164 881.234 231.164 882.34C231.164 883.376 230.436 884.202 229.344 884.202Z" fill="#4C4C4C"/>
<circle cx="72" cy="877" r="32" fill="#F5F5F6"/>
<circle cx="58.6814" cy="869.785" r="2.68148" fill="white" stroke="black" stroke-width="1.06667"/>
<circle cx="71.9997" cy="867.948" r="2.68148" fill="white" stroke="black" stroke-width="1.06667"/>
<path d="M61.8665 889.533V885.533H82.1331V889.533H61.8665Z" fill="white"/>
<path d="M61.8959 885.4L59.1404 873L66.0293 878.512L71.9996 870.704L77.5107 878.512L84.3996 872.082L82.1033 885.4H61.8959Z" fill="#FACA51"/>
<path d="M61.8962 885.4V889.533H82.1036V885.4" stroke="black" stroke-width="1.06667" stroke-linejoin="round"/>
<path d="M61.8961 885.4L59.2 872.467L66.0295 878.971L71.9998 870.704L77.5109 878.971L84.3998 872.082L82.1035 885.4H61.8961Z" stroke="black" stroke-width="1.06667" stroke-linejoin="round"/>
<circle cx="85.3183" cy="869.785" r="2.68148" fill="white" stroke="black" stroke-width="1.06667"/>
<path d="M168.462 533.92C168.462 529.76 165.582 528.672 161.422 527.36C158.99 526.592 157.582 525.952 157.582 524.448C157.582 523.04 158.766 522.208 160.622 522.208C162.094 522.208 163.982 522.784 165.71 524.032L167.886 521.344C166.414 520.16 164.302 519.2 162.254 518.816V514.688H159.438V518.72C155.694 519.104 153.55 521.504 153.55 524.704C153.55 528.672 156.782 529.856 160.334 530.944C163.086 531.808 164.398 532.48 164.398 534.208C164.398 535.712 163.086 536.64 161.198 536.64C159.342 536.64 157.134 535.84 155.342 534.112L153.07 536.832C154.926 538.656 157.134 539.68 159.438 540V543.904H162.254V540.064C166.094 539.68 168.462 537.344 168.462 533.92ZM169.918 540H184.03V536.608H175.55L175.518 536.512L180.158 531.68C182.942 528.8 183.806 526.72 183.806 524.288C183.806 520.256 180.542 517.824 176.926 517.824C173.342 517.824 171.07 519.616 169.822 521.984L172.478 523.872C173.47 522.144 174.91 521.28 176.67 521.28C178.654 521.28 180.03 522.752 180.03 524.704C180.03 526.592 178.718 528.192 176.926 530.08L169.854 537.536L169.918 540ZM193.837 525.888C193.069 525.888 192.013 526.048 190.989 526.368L191.277 521.44H199.693V518.016H187.789L187.149 529.536L189.165 530.24C190.221 529.376 191.405 529.088 192.749 529.088C194.829 529.088 197.005 530.432 197.005 532.896C197.005 535.136 195.373 536.832 192.685 536.832C190.733 536.832 189.133 535.904 188.205 534.56L185.517 536.704C187.245 539.008 189.997 540.256 193.005 540.256C197.677 540.256 200.781 537.28 200.781 532.96C200.781 528.544 197.645 525.888 193.837 525.888ZM211.018 540.256C216.33 540.256 219.466 535.648 219.466 529.024C219.466 521.856 215.978 517.792 211.018 517.792C205.738 517.792 202.57 522.368 202.57 529.024C202.57 536.16 206.058 540.256 211.018 540.256ZM211.018 536.8C208.202 536.8 206.346 533.888 206.346 529.024C206.346 524.096 208.138 521.216 211.018 521.216C213.898 521.216 215.69 524.096 215.69 529.024C215.69 533.92 213.962 536.8 211.018 536.8ZM223.736 540.256C225.048 540.256 226.136 539.2 226.136 537.888C226.136 536.576 225.048 535.488 223.736 535.488C222.392 535.488 221.304 536.576 221.304 537.888C221.304 539.2 222.392 540.256 223.736 540.256ZM236.445 540.256C241.757 540.256 244.893 535.648 244.893 529.024C244.893 521.856 241.405 517.792 236.445 517.792C231.165 517.792 227.997 522.368 227.997 529.024C227.997 536.16 231.485 540.256 236.445 540.256ZM236.445 536.8C233.629 536.8 231.773 533.888 231.773 529.024C231.773 524.096 233.565 521.216 236.445 521.216C239.325 521.216 241.117 524.096 241.117 529.024C241.117 533.92 239.389 536.8 236.445 536.8ZM255.423 540.256C260.735 540.256 263.871 535.648 263.871 529.024C263.871 521.856 260.383 517.792 255.423 517.792C250.143 517.792 246.975 522.368 246.975 529.024C246.975 536.16 250.463 540.256 255.423 540.256ZM255.423 536.8C252.607 536.8 250.751 533.888 250.751 529.024C250.751 524.096 252.543 521.216 255.423 521.216C258.303 521.216 260.095 524.096 260.095 529.024C260.095 533.92 258.367 536.8 255.423 536.8Z" fill="#4C4C4C"/>
<path d="M178.173 567.096C180.477 567.096 182.189 565.48 182.189 563.112C182.189 560.744 180.477 559.112 178.173 559.112C175.757 559.112 174.141 560.872 174.141 563.112C174.141 565.352 175.757 567.096 178.173 567.096ZM178.173 565.912C176.557 565.912 175.469 564.664 175.469 563.112C175.469 561.56 176.541 560.296 178.173 560.296C179.677 560.296 180.861 561.448 180.861 563.112C180.861 564.776 179.661 565.912 178.173 565.912ZM184.17 567H185.466V560.328H187.674V559.208H185.466V557.752C185.466 556.728 185.882 556.312 186.522 556.312C186.954 556.312 187.386 556.472 187.882 556.728L188.17 555.624C187.738 555.352 187.146 555.112 186.362 555.112C184.97 555.112 184.17 555.96 184.17 557.624V559.208H183.226V560.328H184.17V567ZM200.114 564.104C200.114 562.056 198.626 561.528 196.658 560.888C195.33 560.456 194.354 560.104 194.354 559.096C194.354 558.168 195.138 557.624 196.258 557.624C197.042 557.624 198.114 557.96 198.946 558.568L199.746 557.592C199.026 557.016 197.954 556.568 196.962 556.408V554.344H195.922V556.344C193.986 556.456 192.898 557.64 192.898 559.176C192.898 561.08 194.514 561.64 196.258 562.184C197.73 562.664 198.642 563.048 198.642 564.2C198.642 565.192 197.778 565.784 196.594 565.784C195.57 565.784 194.418 565.336 193.522 564.456L192.674 565.448C193.618 566.376 194.738 566.872 195.922 567.016V568.968H196.962V567.032C198.946 566.904 200.114 565.736 200.114 564.104ZM203.738 567H205.082V556.008H203.962L200.89 558.28L201.546 559.288L203.738 557.624V567ZM206.763 569.096H207.739L208.699 565.24H207.291L206.763 569.096ZM214.098 567.096C216.722 567.096 218.226 564.76 218.226 561.512C218.226 557.912 216.482 555.912 214.098 555.912C211.49 555.912 209.97 558.248 209.97 561.512C209.97 565.096 211.714 567.096 214.098 567.096ZM214.098 565.848C212.482 565.848 211.346 564.296 211.346 561.512C211.346 558.872 212.354 557.16 214.098 557.16C215.73 557.16 216.85 558.712 216.85 561.512C216.85 564.136 215.858 565.848 214.098 565.848ZM223.842 567.096C226.466 567.096 227.97 564.76 227.97 561.512C227.97 557.912 226.226 555.912 223.842 555.912C221.234 555.912 219.714 558.248 219.714 561.512C219.714 565.096 221.458 567.096 223.842 567.096ZM223.842 565.848C222.226 565.848 221.09 564.296 221.09 561.512C221.09 558.872 222.098 557.16 223.842 557.16C225.474 557.16 226.594 558.712 226.594 561.512C226.594 564.136 225.602 565.848 223.842 565.848ZM233.587 567.096C236.211 567.096 237.715 564.76 237.715 561.512C237.715 557.912 235.971 555.912 233.587 555.912C230.979 555.912 229.459 558.248 229.459 561.512C229.459 565.096 231.203 567.096 233.587 567.096ZM233.587 565.848C231.971 565.848 230.835 564.296 230.835 561.512C230.835 558.872 231.843 557.16 233.587 557.16C235.219 557.16 236.339 558.712 236.339 561.512C236.339 564.136 235.347 565.848 233.587 565.848Z" fill="#999999"/>
<circle cx="208" cy="535" r="114" stroke="#F5F5F6" stroke-width="32"/>
<mask id="mask0" mask-type="alpha" maskUnits="userSpaceOnUse" x="78" y="405" width="260" height="260">
<circle cx="208" cy="535" r="114" stroke="#F5F5F6" stroke-width="32"/>
</mask>
<g mask="url(#mask0)">
<rect x="207" y="405" width="131" height="130" fill="#FACA51"/>
</g>
<circle cx="207" cy="421" r="16" fill="#FACA51"/>
<circle cx="322" cy="535" r="16" fill="#FACA51"/>
<rect x="20" y="303" width="375" height="78" fill="white"/>
<path d="M238 360C234.13 360 231 363.13 231 367C231 370.87 234.13 374 238 374C241.87 374 245 370.87 245 367C245 363.13 241.87 360 238 360ZM238 371C237.72 371 237.5 370.78 237.5 370.5C237.5 370.22 237.72 370 238 370C238.28 370 238.5 370.22 238.5 370.5C238.5 370.78 238.28 371 238 371ZM239.22 367.45C238.75 367.68 238.5 367.81 238.5 368.5C238.5 368.78 238.28 369 238 369C237.72 369 237.5 368.78 237.5 368.5C237.5 367.19 238.24 366.82 238.78 366.55C239.25 366.32 239.5 366.19 239.5 365.5C239.5 365.25 239.41 364 238 364C236.59 364 236.5 365.25 236.5 365.5C236.5 365.77 236.27 366 236 366C235.72 366 235.5 365.78 235.5 365.5C235.5 364.64 236.02 363 238 363C239.98 363 240.5 364.64 240.5 365.5C240.5 366.81 239.76 367.18 239.22 367.45Z" fill="#CDCED2"/>
<path d="M44.66 347H47.08V334.96H51.16V332.8H40.64V334.96H44.66V347ZM55.3209 347.16C58.3209 347.16 60.4409 345.1 60.4409 342.14C60.4409 339.14 58.3209 337.1 55.3209 337.1C52.2409 337.1 50.2009 339.26 50.2009 342.14C50.2009 345 52.2409 347.16 55.3209 347.16ZM55.3209 345.12C53.6409 345.12 52.4809 343.8 52.4809 342.14C52.4809 340.44 53.6209 339.12 55.3209 339.12C56.9209 339.12 58.1609 340.34 58.1609 342.14C58.1609 343.9 56.9009 345.12 55.3209 345.12ZM66.8447 347H69.0847V342.1C69.0847 340.18 70.0847 339.12 71.6047 339.12C72.9447 339.12 73.7247 339.78 73.7247 341.84V347H75.9647V341.26C75.9647 338.32 74.5247 337.1 72.3847 337.1C71.1047 337.1 69.9247 337.62 69.1247 338.58H69.0847V337.24H66.8447V347ZM86.9802 342C86.9802 339.16 85.1202 337.1 82.3802 337.1C79.5202 337.1 77.4802 339.12 77.4802 342.12C77.4802 345.18 79.5802 347.16 82.5402 347.16C84.6402 347.16 85.8602 346.38 86.6802 345.32L85.1202 343.98C84.6202 344.6 83.8202 345.12 82.6602 345.12C81.1402 345.12 80.0802 344.28 79.8002 342.86H86.9202C86.9402 342.7 86.9802 342.36 86.9802 342ZM82.3602 339.12C83.6402 339.12 84.4402 339.92 84.7202 341.1H79.8402C80.1602 339.82 81.1202 339.12 82.3602 339.12ZM87.1837 347H89.6637L91.9037 343.92H91.9237L94.1437 347H96.6437L93.1837 342.04L96.5837 337.24H94.0037L91.9037 340.32H91.8637L89.8037 337.24H87.2037L90.6237 342.02L87.1837 347ZM100.911 347.16C102.191 347.16 102.811 346.9 103.391 346.58L102.811 344.64C102.291 344.92 101.751 345.06 101.371 345.06C100.731 345.06 100.431 344.7 100.431 343.7V339.14H103.291V337.24H100.431V333.76L98.1906 334V337.24H96.9906V339.14H98.1906V343.92C98.1906 346.1 99.2306 347.16 100.911 347.16ZM109.527 347H111.767V332.28H109.527V347ZM123.116 342C123.116 339.16 121.256 337.1 118.516 337.1C115.656 337.1 113.616 339.12 113.616 342.12C113.616 345.18 115.716 347.16 118.676 347.16C120.776 347.16 121.996 346.38 122.816 345.32L121.256 343.98C120.756 344.6 119.956 345.12 118.796 345.12C117.276 345.12 116.216 344.28 115.936 342.86H123.056C123.076 342.7 123.116 342.36 123.116 342ZM118.496 339.12C119.776 339.12 120.576 339.92 120.856 341.1H115.976C116.296 339.82 117.256 339.12 118.496 339.12ZM127.04 347H129.18L133.06 337.24H130.68L128.14 344.2H128.12L125.58 337.24H123.18L127.04 347ZM142.598 342C142.598 339.16 140.738 337.1 137.998 337.1C135.138 337.1 133.098 339.12 133.098 342.12C133.098 345.18 135.198 347.16 138.158 347.16C140.258 347.16 141.478 346.38 142.298 345.32L140.738 343.98C140.238 344.6 139.438 345.12 138.278 345.12C136.758 345.12 135.698 344.28 135.418 342.86H142.538C142.558 342.7 142.598 342.36 142.598 342ZM137.978 339.12C139.258 339.12 140.058 339.92 140.338 341.1H135.458C135.778 339.82 136.738 339.12 137.978 339.12ZM144.408 347H146.648V332.28H144.408V347Z" fill="#4C4C4C"/>
<path d="M41.232 372H47.616V370.894H42.45V367.604H46.44V366.498H42.45V363.166H47.322V362.06H41.232V372ZM51.8814 372.084C52.9874 372.084 53.8274 371.58 54.3174 370.768H54.3314V372H55.4234V365.182H54.2894V366.386L54.2614 366.4C53.7714 365.574 52.8894 365.098 51.8814 365.098C49.9494 365.098 48.5634 366.624 48.5634 368.64C48.5634 370.712 50.0054 372.084 51.8814 372.084ZM52.0494 371.048C50.6494 371.048 49.7114 370.012 49.7114 368.64C49.7114 367.128 50.7614 366.134 52.0494 366.134C53.3934 366.134 54.3314 367.24 54.3314 368.64C54.3314 370.082 53.3094 371.048 52.0494 371.048ZM57.3006 372H58.4346V368.71C58.4346 367.338 59.2046 366.344 60.5066 366.344C60.6186 366.344 60.7866 366.358 60.9546 366.372V365.112C60.8566 365.098 60.7726 365.098 60.6746 365.098C59.7366 365.098 58.9526 365.602 58.4626 366.428H58.4346V365.182H57.3006V372ZM62.0762 372H63.2102V368.598C63.2102 367.058 64.0502 366.134 65.3382 366.134C66.3322 366.134 67.0182 366.68 67.0182 368.276V372H68.1522V367.954C68.1522 366.008 67.1722 365.098 65.7022 365.098C64.6522 365.098 63.7562 365.588 63.2242 366.414H63.2102V365.182H62.0762V372ZM70.6406 363.936C71.1026 363.936 71.4666 363.572 71.4666 363.124C71.4666 362.676 71.1026 362.312 70.6406 362.312C70.1786 362.312 69.8146 362.676 69.8146 363.124C69.8146 363.572 70.1786 363.936 70.6406 363.936ZM70.0666 372H71.2006V365.182H70.0666V372ZM73.2542 372H74.3882V368.598C74.3882 367.058 75.2282 366.134 76.5162 366.134C77.5102 366.134 78.1962 366.68 78.1962 368.276V372H79.3302V367.954C79.3302 366.008 78.3502 365.098 76.8802 365.098C75.8302 365.098 74.9342 365.588 74.4022 366.414H74.3882V365.182H73.2542V372ZM84.1706 374.856C86.5506 374.856 87.5306 373.456 87.5306 371.496V365.182H86.3966V366.274H86.3686C85.8226 365.532 84.9406 365.098 83.9746 365.098C82.0566 365.098 80.7126 366.554 80.7126 368.5C80.7126 370.53 82.1546 371.874 84.0166 371.874C85.0666 371.874 85.8786 371.412 86.3826 370.684H86.4106V371.776C86.4106 372.924 85.6686 373.82 84.1286 373.82C83.1486 373.82 82.4626 373.554 81.6786 373.106L81.3986 374.114C82.2106 374.604 83.1486 374.856 84.1706 374.856ZM84.1566 370.824C82.8686 370.824 81.8606 369.914 81.8606 368.472C81.8606 367.142 82.7846 366.148 84.1706 366.148C85.4446 366.148 86.4386 367.072 86.4386 368.444C86.4386 369.802 85.5286 370.824 84.1566 370.824ZM93.0496 374.772H94.1836V370.824H94.1976C94.7016 371.608 95.5416 372.084 96.6196 372.084C98.4956 372.084 99.9376 370.712 99.9376 368.64C99.9376 366.624 98.5516 365.098 96.6196 365.098C95.5836 365.098 94.7156 365.574 94.1976 366.386H94.1836V365.182H93.0496V374.772ZM96.4656 371.048C95.1636 371.048 94.1276 370.082 94.1276 368.64C94.1276 367.24 95.0656 366.134 96.4516 366.134C97.7396 366.134 98.7896 367.128 98.7896 368.64C98.7896 370.012 97.8376 371.048 96.4656 371.048ZM107.551 368.472C107.551 366.526 106.277 365.098 104.415 365.098C102.469 365.098 101.055 366.54 101.055 368.598C101.055 370.684 102.483 372.084 104.499 372.084C105.871 372.084 106.725 371.566 107.313 370.81L106.515 370.138C106.095 370.656 105.451 371.048 104.541 371.048C103.253 371.048 102.357 370.208 102.203 368.934H107.523C107.523 368.85 107.551 368.654 107.551 368.472ZM104.401 366.134C105.521 366.134 106.249 366.89 106.417 368.01H102.231C102.441 366.848 103.309 366.134 104.401 366.134ZM109.054 372H110.188V368.71C110.188 367.338 110.958 366.344 112.26 366.344C112.372 366.344 112.54 366.358 112.708 366.372V365.112C112.61 365.098 112.526 365.098 112.428 365.098C111.49 365.098 110.706 365.602 110.216 366.428H110.188V365.182H109.054V372ZM114.487 363.936C114.949 363.936 115.313 363.572 115.313 363.124C115.313 362.676 114.949 362.312 114.487 362.312C114.025 362.312 113.661 362.676 113.661 363.124C113.661 363.572 114.025 363.936 114.487 363.936ZM113.913 372H115.047V365.182H113.913V372ZM120.195 372.084C122.211 372.084 123.709 370.67 123.709 368.598C123.709 366.526 122.211 365.098 120.195 365.098C118.081 365.098 116.667 366.638 116.667 368.598C116.667 370.558 118.081 372.084 120.195 372.084ZM120.195 371.048C118.781 371.048 117.829 369.956 117.829 368.598C117.829 367.24 118.767 366.134 120.195 366.134C121.511 366.134 122.547 367.142 122.547 368.598C122.547 370.054 121.497 371.048 120.195 371.048ZM128.138 372.084C129.244 372.084 130.112 371.566 130.602 370.74H130.616V372H131.708V361.696H130.574V366.4H130.56C130.042 365.574 129.16 365.098 128.124 365.098C126.206 365.098 124.792 366.624 124.792 368.64C124.792 370.712 126.248 372.084 128.138 372.084ZM128.292 371.048C126.906 371.048 125.954 370.012 125.954 368.64C125.954 367.128 127.004 366.134 128.306 366.134C129.678 366.134 130.616 367.24 130.616 368.64C130.616 370.082 129.58 371.048 128.292 371.048ZM134.198 366.75C134.66 366.75 135.024 366.386 135.024 365.924C135.024 365.462 134.66 365.098 134.198 365.098C133.736 365.098 133.358 365.462 133.358 365.924C133.358 366.386 133.736 366.75 134.198 366.75ZM134.198 372.098C134.66 372.098 135.024 371.734 135.024 371.272C135.024 370.81 134.66 370.446 134.198 370.446C133.736 370.446 133.358 370.81 133.358 371.272C133.358 371.734 133.736 372.098 134.198 372.098ZM143.466 372.084C145.202 372.084 146.798 371.104 146.798 369.284C146.798 367.422 145.384 366.974 143.718 366.316C142.472 365.84 141.576 365.49 141.59 364.538C141.604 363.586 142.43 363.082 143.368 363.082C144.11 363.082 144.964 363.432 145.762 364.09L146.504 363.124C145.566 362.368 144.474 361.962 143.368 361.962C141.66 361.962 140.33 363.11 140.33 364.594C140.33 366.344 141.828 366.974 143.298 367.52C144.628 368.024 145.524 368.318 145.524 369.424C145.524 370.39 144.698 370.95 143.48 370.95C142.514 370.95 141.45 370.502 140.736 369.606L139.952 370.544C140.946 371.608 142.22 372.084 143.466 372.084ZM154.451 368.472C154.451 366.526 153.177 365.098 151.315 365.098C149.369 365.098 147.955 366.54 147.955 368.598C147.955 370.684 149.383 372.084 151.399 372.084C152.771 372.084 153.625 371.566 154.213 370.81L153.415 370.138C152.995 370.656 152.351 371.048 151.441 371.048C150.153 371.048 149.257 370.208 149.103 368.934H154.423C154.423 368.85 154.451 368.654 154.451 368.472ZM151.301 366.134C152.421 366.134 153.149 366.89 153.317 368.01H149.131C149.341 366.848 150.209 366.134 151.301 366.134ZM155.954 374.772H157.088V370.824H157.102C157.606 371.608 158.446 372.084 159.524 372.084C161.4 372.084 162.842 370.712 162.842 368.64C162.842 366.624 161.456 365.098 159.524 365.098C158.488 365.098 157.62 365.574 157.102 366.386H157.088V365.182H155.954V374.772ZM159.37 371.048C158.068 371.048 157.032 370.082 157.032 368.64C157.032 367.24 157.97 366.134 159.356 366.134C160.644 366.134 161.694 367.128 161.694 368.64C161.694 370.012 160.742 371.048 159.37 371.048ZM169.756 372H170.932V362.382H169.952L167.264 364.37L167.838 365.252L169.756 363.796V372ZM176.457 368.248H180.601V367.128H176.457V368.248ZM186.101 372H189.111C192.289 372 194.235 369.97 194.235 367.044C194.235 364.104 192.219 362.06 189.069 362.06H186.101V372ZM187.319 370.894V363.166H189.083C191.407 363.166 192.975 364.776 192.975 367.044C192.975 369.284 191.463 370.894 189.041 370.894H187.319ZM201.993 368.472C201.993 366.526 200.719 365.098 198.857 365.098C196.911 365.098 195.497 366.54 195.497 368.598C195.497 370.684 196.925 372.084 198.941 372.084C200.313 372.084 201.167 371.566 201.755 370.81L200.957 370.138C200.537 370.656 199.893 371.048 198.983 371.048C197.695 371.048 196.799 370.208 196.645 368.934H201.965C201.965 368.85 201.993 368.654 201.993 368.472ZM198.843 366.134C199.963 366.134 200.691 366.89 200.859 368.01H196.673C196.883 366.848 197.751 366.134 198.843 366.134ZM206.464 372.084C207.794 372.084 208.704 371.58 209.278 370.894L208.494 370.18C208.074 370.698 207.36 371.048 206.548 371.048C205.162 371.048 204.224 370.054 204.224 368.598C204.224 367.156 205.162 366.134 206.562 366.134C207.374 366.134 208.046 366.498 208.48 367.002L209.25 366.316C208.578 365.518 207.528 365.098 206.506 365.098C204.476 365.098 203.062 366.54 203.062 368.598C203.062 370.67 204.476 372.084 206.464 372.084ZM216.881 372.084C218.659 372.084 219.989 371.02 219.989 369.424C219.989 368.276 219.345 367.408 218.323 367.016V366.974C219.233 366.582 219.737 365.714 219.737 364.818C219.737 363.222 218.421 362.298 216.783 362.298C215.397 362.298 214.417 362.942 213.913 363.824L214.865 364.356C215.243 363.796 215.803 363.39 216.755 363.39C217.763 363.39 218.547 364.02 218.547 364.972C218.547 365.742 218.043 366.512 216.811 366.512H215.873V367.52H216.671C218.099 367.52 218.785 368.332 218.785 369.256C218.785 370.306 217.917 370.992 216.797 370.992C215.677 370.992 214.949 370.488 214.613 369.718L213.591 370.18C214.067 371.286 215.243 372.084 216.881 372.084ZM223.304 372H224.48V362.382H223.5L220.812 364.37L221.386 365.252L223.304 363.796V372Z" fill="#999999"/>
<path d="M351.627 88H358.923V86.736H353.019V82.976H357.579V81.712H353.019V77.904H358.587V76.64H351.627V88ZM364.012 88.096C365.276 88.096 366.268 87.504 366.828 86.56H366.844V88H368.092V76.224H366.796V81.6H366.78C366.188 80.656 365.18 80.112 363.996 80.112C361.804 80.112 360.188 81.856 360.188 84.16C360.188 86.528 361.852 88.096 364.012 88.096ZM364.188 86.912C362.604 86.912 361.516 85.728 361.516 84.16C361.516 82.432 362.716 81.296 364.204 81.296C365.772 81.296 366.844 82.56 366.844 84.16C366.844 85.808 365.66 86.912 364.188 86.912ZM371.265 78.784C371.793 78.784 372.209 78.368 372.209 77.856C372.209 77.344 371.793 76.928 371.265 76.928C370.737 76.928 370.321 77.344 370.321 77.856C370.321 78.368 370.737 78.784 371.265 78.784ZM370.609 88H371.905V80.208H370.609V88ZM376.627 88.096C377.555 88.096 378.083 87.872 378.515 87.616L378.179 86.48C377.795 86.688 377.315 86.88 376.851 86.88C376.115 86.88 375.907 86.432 375.907 85.488V81.328H378.483V80.208H375.907V77.408L374.611 77.552V80.208H373.603V81.328H374.611V85.68C374.611 87.248 375.251 88.096 376.627 88.096Z" fill="#4C4C4C"/>
<path d="M20 20H395V63H20V20Z" fill="white"/>
<path opacity="0.35" d="M358.667 36.833H375.333C376.53 36.833 377.5 37.8031 377.5 38.9997V44.9997C377.5 46.1963 376.53 47.1663 375.333 47.1663H358.667C357.47 47.1663 356.5 46.1963 356.5 44.9997V38.9997C356.5 37.8031 357.47 36.833 358.667 36.833Z" stroke="black"/>
<path opacity="0.4" d="M379 39.9995V43.9995C379.805 43.6607 380.328 42.8726 380.328 41.9995C380.328 41.1264 379.805 40.3383 379 39.9995" fill="black"/>
<path d="M358 39.6663C358 38.93 358.597 38.333 359.333 38.333H374.667C375.403 38.333 376 38.93 376 39.6663V44.333C376 45.0694 375.403 45.6663 374.667 45.6663H359.333C358.597 45.6663 358 45.0694 358 44.333V39.6663Z" fill="black"/>
<path fill-rule="evenodd" clip-rule="evenodd" d="M343.33 38.6084C345.546 38.6085 347.677 39.4599 349.283 40.9867C349.404 41.1046 349.597 41.1031 349.716 40.9834L350.872 39.8167C350.933 39.756 350.966 39.6737 350.966 39.5882C350.965 39.5026 350.931 39.4207 350.87 39.3607C346.655 35.3212 340.005 35.3212 335.79 39.3607C335.729 39.4207 335.694 39.5025 335.693 39.5881C335.693 39.6737 335.726 39.7559 335.787 39.8167L336.943 40.9834C337.062 41.1033 337.255 41.1048 337.376 40.9867C338.982 39.4598 341.114 38.6084 343.33 38.6084ZM343.33 42.404C344.547 42.404 345.721 42.8565 346.624 43.6737C346.746 43.7897 346.938 43.7872 347.057 43.668L348.212 42.5014C348.273 42.4402 348.307 42.3572 348.306 42.2709C348.305 42.1846 348.269 42.1023 348.207 42.0424C345.459 39.486 341.203 39.486 338.455 42.0424C338.393 42.1023 338.357 42.1847 338.357 42.271C338.356 42.3573 338.39 42.4403 338.451 42.5014L339.605 43.668C339.724 43.7872 339.916 43.7897 340.038 43.6737C340.94 42.857 342.113 42.4046 343.33 42.404ZM345.643 44.9579C345.645 45.0444 345.611 45.1278 345.549 45.1884L343.552 47.204C343.493 47.2633 343.413 47.2966 343.33 47.2966C343.247 47.2966 343.167 47.2633 343.108 47.204L341.111 45.1884C341.049 45.1277 341.015 45.0443 341.017 44.9578C341.019 44.8713 341.056 44.7894 341.12 44.7314C342.396 43.6525 344.264 43.6525 345.54 44.7314C345.604 44.7894 345.641 44.8714 345.643 44.9579Z" fill="black"/>
<path fill-rule="evenodd" clip-rule="evenodd" d="M329.667 36.667H328.667C328.115 36.667 327.667 37.1147 327.667 37.667V46.3337C327.667 46.8859 328.115 47.3337 328.667 47.3337H329.667C330.219 47.3337 330.667 46.8859 330.667 46.3337V37.667C330.667 37.1147 330.219 36.667 329.667 36.667ZM324 39.0003H325C325.553 39.0003 326 39.448 326 40.0003V46.3337C326 46.8859 325.553 47.3337 325 47.3337H324C323.448 47.3337 323 46.8859 323 46.3337V40.0003C323 39.448 323.448 39.0003 324 39.0003ZM320.334 41.3337H319.334C318.781 41.3337 318.334 41.7814 318.334 42.3337V46.3337C318.334 46.8859 318.781 47.3337 319.334 47.3337H320.334C320.886 47.3337 321.334 46.8859 321.334 46.3337V42.3337C321.334 41.7814 320.886 41.3337 320.334 41.3337ZM315.667 43.3337H314.667C314.115 43.3337 313.667 43.7814 313.667 44.3337V46.3337C313.667 46.8859 314.115 47.3337 314.667 47.3337H315.667C316.219 47.3337 316.667 46.8859 316.667 46.3337V44.3337C316.667 43.7814 316.219 43.3337 315.667 43.3337Z" fill="black"/>
<path d="M57.2841 47.2563C59.9721 47.2563 61.5688 45.1543 61.5688 41.5947C61.5688 38.1011 59.8695 36.1675 57.3427 36.1675C55.0429 36.1675 53.4169 37.7129 53.4169 39.8809C53.4169 41.9097 54.8817 43.3892 56.8959 43.3892C58.1337 43.3892 59.1371 42.8179 59.6352 41.8145H59.7597C59.7377 44.2607 58.8515 45.6743 57.3061 45.6743C56.3979 45.6743 55.6728 45.1836 55.4457 44.3926H53.5634C53.871 46.1211 55.3505 47.2563 57.2841 47.2563ZM57.35 41.895C56.1195 41.895 55.2699 41.0454 55.2699 39.8223C55.2699 38.6431 56.1635 37.7422 57.3573 37.7422C58.5512 37.7422 59.4447 38.6577 59.4447 39.8589C59.4447 41.0381 58.5731 41.895 57.35 41.895ZM64.5866 45.5425C65.2824 45.5425 65.7585 45.0444 65.7585 44.3853C65.7585 43.7188 65.2824 43.228 64.5866 43.228C63.8981 43.228 63.4147 43.7188 63.4147 44.3853C63.4147 45.0444 63.8981 45.5425 64.5866 45.5425ZM64.5866 40.1958C65.2824 40.1958 65.7585 39.7051 65.7585 39.0459C65.7585 38.3794 65.2824 37.8887 64.5866 37.8887C63.8981 37.8887 63.4147 38.3794 63.4147 39.0459C63.4147 39.7051 63.8981 40.1958 64.5866 40.1958ZM72.7607 47H74.5698V44.9858H75.998V43.3892H74.5698V36.4312H71.9038C70.4683 38.6138 68.9668 41.0234 67.5972 43.4111V44.9858H72.7607V47ZM69.3477 43.3306C70.3804 41.5508 71.6035 39.6099 72.6875 37.9692H72.79V43.4331H69.3477V43.3306ZM80.0267 47H81.9163V36.4312H80.034L77.2728 38.3647V40.1812L79.9021 38.3354H80.0267V47Z" fill="black"/>
<rect x="20" y="63" width="375" height="44" fill="white"/>
<path d="M43.2918 80.0002L52.9007 89.3532L52.2737 90L42 79.9999L52.2824 70L52.9091 70.6471L43.2918 80.0002Z" fill="#4C4C4C"/>
<path d="M172.932 85.128C174.756 85.128 176.852 84.072 176.852 81.72C176.852 79.528 175.284 79 173.332 78.232C171.956 77.704 171.188 77.416 171.204 76.584C171.22 75.736 171.924 75.256 172.804 75.256C173.572 75.256 174.484 75.656 175.412 76.424L176.564 74.904C175.412 73.992 174.148 73.512 172.804 73.512C170.836 73.512 169.204 74.904 169.204 76.68C169.204 78.76 170.916 79.528 172.644 80.136C174.084 80.648 174.836 80.968 174.836 81.96C174.836 82.792 174.196 83.336 172.948 83.336C171.972 83.336 170.852 82.84 170.036 81.848L168.82 83.336C170.004 84.568 171.476 85.128 172.932 85.128ZM185.906 81C185.906 78.728 184.418 77.08 182.226 77.08C179.938 77.08 178.306 78.696 178.306 81.096C178.306 83.544 179.986 85.128 182.354 85.128C184.034 85.128 185.01 84.504 185.666 83.656L184.418 82.584C184.018 83.08 183.378 83.496 182.45 83.496C181.234 83.496 180.386 82.824 180.162 81.688H185.858C185.874 81.56 185.906 81.288 185.906 81ZM182.21 78.696C183.234 78.696 183.874 79.336 184.098 80.28H180.194C180.45 79.256 181.218 78.696 182.21 78.696ZM187.866 85H189.658V73.224H187.866V85ZM192.225 85H194.017V73.224H192.225V85ZM203.609 81C203.609 78.728 202.121 77.08 199.929 77.08C197.641 77.08 196.009 78.696 196.009 81.096C196.009 83.544 197.689 85.128 200.057 85.128C201.737 85.128 202.713 84.504 203.369 83.656L202.121 82.584C201.721 83.08 201.081 83.496 200.153 83.496C198.937 83.496 198.089 82.824 197.865 81.688H203.561C203.577 81.56 203.609 81.288 203.609 81ZM199.913 78.696C200.937 78.696 201.577 79.336 201.801 80.28H197.897C198.153 79.256 198.921 78.696 199.913 78.696ZM205.457 85H207.249V81.304C207.249 80.024 208.017 79.048 209.377 79.048C209.505 79.048 209.713 79.064 209.921 79.08V77.08H209.697C208.753 77.08 207.889 77.544 207.281 78.36H207.249V77.192H205.457V85ZM218.011 85.128C219.035 85.128 219.531 84.92 219.995 84.664L219.531 83.112C219.115 83.336 218.683 83.448 218.379 83.448C217.867 83.448 217.627 83.16 217.627 82.36V78.712H219.915V77.192H217.627V74.408L215.835 74.6V77.192H214.875V78.712H215.835V82.536C215.835 84.28 216.667 85.128 218.011 85.128ZM222.543 76.04C223.215 76.04 223.759 75.496 223.759 74.84C223.759 74.2 223.215 73.656 222.543 73.656C221.871 73.656 221.343 74.2 221.343 74.84C221.343 75.496 221.871 76.04 222.543 76.04ZM221.647 85H223.439V77.192H221.647V85ZM233.031 81C233.031 78.728 231.543 77.08 229.351 77.08C227.063 77.08 225.431 78.696 225.431 81.096C225.431 83.544 227.111 85.128 229.479 85.128C231.159 85.128 232.135 84.504 232.791 83.656L231.543 82.584C231.143 83.08 230.503 83.496 229.575 83.496C228.359 83.496 227.511 82.824 227.287 81.688H232.983C232.999 81.56 233.031 81.288 233.031 81ZM229.335 78.696C230.359 78.696 230.999 79.336 231.223 80.28H227.319C227.575 79.256 228.343 78.696 229.335 78.696ZM234.879 85H236.671V81.304C236.671 80.024 237.439 79.048 238.799 79.048C238.927 79.048 239.135 79.064 239.343 79.08V77.08H239.119C238.175 77.08 237.311 77.544 236.703 78.36H236.671V77.192H234.879V85ZM243.328 85.128C245.312 85.128 246.24 84.072 246.24 82.76C246.24 81.208 245.2 80.904 243.536 80.248C242.784 79.96 242.304 79.688 242.304 79.304C242.304 78.824 242.8 78.632 243.152 78.632C243.76 78.632 244.48 78.872 245.104 79.464L246 78.056C245.136 77.352 244.24 77.08 243.248 77.08C241.648 77.08 240.496 78.008 240.496 79.288C240.496 80.824 241.6 81.4 242.88 81.848C243.904 82.2 244.416 82.392 244.416 82.792C244.416 83.256 244.016 83.56 243.328 83.56C242.368 83.56 241.696 83.256 241.072 82.648L240.176 83.992C240.992 84.712 242.064 85.128 243.328 85.128Z" fill="#4C4C4C"/>
<rect x="20" y="106.5" width="375" height="0.5" fill="#CDCED2"/>
</g>
<defs>
<clipPath id="clip0">
<rect x="20" y="20" width="375" height="877" rx="22" fill="white"/>
</clipPath>
</defs>
</svg>
