<svg width="415" height="917" viewBox="0 0 415 917" fill="none" xmlns="http://www.w3.org/2000/svg">
<rect width="415" height="917" rx="40" fill="#F5F5F6"/>
<g clip-path="url(#clip0)">
<rect x="20" y="20" width="375" height="877" rx="23" fill="white"/>
<line x1="40" y1="302.75" x2="375" y2="302.75" stroke="#CDCED2" stroke-width="0.5"/>
<rect x="40" y="131" width="335" height="148" rx="4" fill="#68758F"/>
<g opacity="0.08">
<circle cx="254.724" cy="183.767" r="14.8001" stroke="white" stroke-width="3.84723"/>
<circle cx="325.501" cy="174.213" r="14.8001" stroke="white" stroke-width="3.84723"/>
<path d="M272.939 264.996V286.497H378.06V264.996" stroke="white" stroke-width="3.84723" stroke-linejoin="round"/>
<path d="M272.936 264.998L258.911 197.718L294.438 231.551L325.497 188.547L354.166 231.551L390.002 195.714L378.057 264.998H272.936Z" stroke="white" stroke-width="3.84723" stroke-linejoin="round"/>
<circle cx="396.275" cy="182.276" r="14.8001" stroke="white" stroke-width="3.84723"/>
</g>
<circle cx="98" cy="204" r="38" fill="white"/>
<circle cx="82.1848" cy="195.433" r="3.18426" fill="white" stroke="black" stroke-width="1.26667"/>
<circle cx="98.0005" cy="193.251" r="3.18426" fill="white" stroke="black" stroke-width="1.26667"/>
<path d="M85.9673 218.884V214.134H110.034V218.884H85.9673Z" fill="white"/>
<path d="M86.002 213.975L82.7297 199.25L90.9103 205.795L98.0001 196.523L104.545 205.795L112.725 198.16L109.998 213.975H86.002Z" fill="#7886A2"/>
<path d="M86.002 213.976V218.884H109.998V213.976" stroke="black" stroke-width="1.26667" stroke-linejoin="round"/>
<path d="M86.0018 213.975L82.8 198.617L90.9101 206.34L97.9999 196.523L104.544 206.34L112.725 198.16L109.998 213.975H86.0018Z" stroke="black" stroke-width="1.26667" stroke-linejoin="round"/>
<circle cx="113.816" cy="195.433" r="3.18426" fill="white" stroke="black" stroke-width="1.26667"/>
<path d="M158.784 205H162.656V196.904H166.56C171.456 196.904 174.784 194.568 174.784 189.64C174.784 185.416 172.448 182.28 167.008 182.28H158.784V205ZM162.656 193.416V185.736H166.464C169.248 185.736 170.784 187.176 170.784 189.576C170.784 191.816 169.344 193.416 166.176 193.416H162.656ZM177.445 205H181.029V181.448H177.445V205ZM191.292 205.256C193.468 205.256 195.132 204.424 196.252 202.92L196.316 202.952V205H199.74V189.384H196.156V191.272L196.092 191.304C194.972 189.896 193.244 189.16 191.26 189.16C186.972 189.16 183.74 192.552 183.74 197.256C183.74 202.088 186.972 205.256 191.292 205.256ZM191.868 201.992C189.212 201.992 187.388 200.04 187.388 197.288C187.388 194.28 189.372 192.392 191.868 192.392C194.428 192.392 196.316 194.504 196.316 197.288C196.316 200.104 194.3 201.992 191.868 201.992ZM207.662 205.256C209.71 205.256 210.702 204.84 211.63 204.328L210.702 201.224C209.87 201.672 209.006 201.896 208.398 201.896C207.374 201.896 206.894 201.32 206.894 199.72V192.424H211.47V189.384H206.894V183.816L203.31 184.2V189.384H201.39V192.424H203.31V200.072C203.31 203.56 204.974 205.256 207.662 205.256ZM215.486 187.08C216.83 187.08 217.918 185.992 217.918 184.68C217.918 183.4 216.83 182.312 215.486 182.312C214.142 182.312 213.086 183.4 213.086 184.68C213.086 185.992 214.142 187.08 215.486 187.08ZM213.694 205H217.278V189.384H213.694V205ZM220.948 205H224.532V197.16C224.532 194.088 226.132 192.392 228.564 192.392C230.708 192.392 231.957 193.448 231.957 196.744V205H235.541V195.816C235.541 191.112 233.236 189.16 229.812 189.16C227.764 189.16 225.876 189.992 224.596 191.528H224.532V189.384H220.948V205ZM244.213 205.256C246.005 205.256 247.733 204.52 248.981 203.016L249.045 203.048V205H252.629V189.384H249.045V196.872C249.045 200.232 247.125 201.992 245.045 201.992C242.901 201.992 241.941 201.032 241.941 197.928V189.384H238.357V198.888C238.357 203.528 240.757 205.256 244.213 205.256ZM255.937 205H259.521V197.224C259.521 194.152 261.121 192.392 263.265 192.392C265.377 192.392 266.369 194.056 266.369 196.872V205H269.953V197.224C269.953 194.152 271.585 192.392 273.601 192.392C275.713 192.392 276.641 194.056 276.641 196.872V205H280.225V195.976C280.225 191.304 278.177 189.16 274.753 189.16C272.449 189.16 270.465 190.056 269.153 191.752H269.089C268.161 189.992 266.529 189.16 264.417 189.16C262.625 189.16 260.833 189.992 259.553 191.528H259.521V189.384H255.937V205Z" fill="white"/>
<path d="M160.172 230H161.264L165.016 220.06H163.714L160.732 228.236H160.718L157.736 220.06H156.42L160.172 230ZM168.21 230.084C169.316 230.084 170.156 229.58 170.646 228.768H170.66V230H171.752V223.182H170.618V224.386L170.59 224.4C170.1 223.574 169.218 223.098 168.21 223.098C166.278 223.098 164.892 224.624 164.892 226.64C164.892 228.712 166.334 230.084 168.21 230.084ZM168.378 229.048C166.978 229.048 166.04 228.012 166.04 226.64C166.04 225.128 167.09 224.134 168.378 224.134C169.722 224.134 170.66 225.24 170.66 226.64C170.66 228.082 169.638 229.048 168.378 229.048ZM173.713 230H174.847V219.696H173.713V230ZM177.558 221.936C178.02 221.936 178.384 221.572 178.384 221.124C178.384 220.676 178.02 220.312 177.558 220.312C177.096 220.312 176.732 220.676 176.732 221.124C176.732 221.572 177.096 221.936 177.558 221.936ZM176.984 230H178.118V223.182H176.984V230ZM183.07 230.084C184.176 230.084 185.044 229.566 185.534 228.74H185.548V230H186.64V219.696H185.506V224.4H185.492C184.974 223.574 184.092 223.098 183.056 223.098C181.138 223.098 179.724 224.624 179.724 226.64C179.724 228.712 181.18 230.084 183.07 230.084ZM183.224 229.048C181.838 229.048 180.886 228.012 180.886 226.64C180.886 225.128 181.936 224.134 183.238 224.134C184.61 224.134 185.548 225.24 185.548 226.64C185.548 228.082 184.512 229.048 183.224 229.048ZM194.17 230.084C194.982 230.084 195.444 229.888 195.822 229.664L195.528 228.67C195.192 228.852 194.772 229.02 194.366 229.02C193.722 229.02 193.54 228.628 193.54 227.802V224.162H195.794V223.182H193.54V220.732L192.406 220.858V223.182H191.524V224.162H192.406V227.97C192.406 229.342 192.966 230.084 194.17 230.084ZM197.151 230H198.285V226.57C198.285 225.03 199.125 224.134 200.483 224.134C201.477 224.134 202.163 224.694 202.163 226.234V230H203.297V225.912C203.297 223.966 202.289 223.098 200.819 223.098C199.727 223.098 198.831 223.56 198.299 224.372H198.285V219.696H197.151V230ZM205.126 230H206.26V226.71C206.26 225.338 207.03 224.344 208.332 224.344C208.444 224.344 208.612 224.358 208.78 224.372V223.112C208.682 223.098 208.598 223.098 208.5 223.098C207.562 223.098 206.778 223.602 206.288 224.428H206.26V223.182H205.126V230ZM212.777 230.084C214.793 230.084 216.291 228.67 216.291 226.598C216.291 224.526 214.793 223.098 212.777 223.098C210.663 223.098 209.249 224.638 209.249 226.598C209.249 228.558 210.663 230.084 212.777 230.084ZM212.777 229.048C211.363 229.048 210.411 227.956 210.411 226.598C210.411 225.24 211.349 224.134 212.777 224.134C214.093 224.134 215.129 225.142 215.129 226.598C215.129 228.054 214.079 229.048 212.777 229.048ZM220.229 230.084C221.125 230.084 221.965 229.636 222.483 228.824H222.497V230H223.631V223.182H222.497V226.486C222.497 228.11 221.559 229.048 220.467 229.048C219.389 229.048 218.801 228.46 218.801 226.92V223.182H217.667V227.242C217.667 229.188 218.661 230.084 220.229 230.084ZM228.533 232.856C230.913 232.856 231.893 231.456 231.893 229.496V223.182H230.759V224.274H230.731C230.185 223.532 229.303 223.098 228.337 223.098C226.419 223.098 225.075 224.554 225.075 226.5C225.075 228.53 226.517 229.874 228.379 229.874C229.429 229.874 230.241 229.412 230.745 228.684H230.773V229.776C230.773 230.924 230.031 231.82 228.491 231.82C227.511 231.82 226.825 231.554 226.041 231.106L225.761 232.114C226.573 232.604 227.511 232.856 228.533 232.856ZM228.519 228.824C227.231 228.824 226.223 227.914 226.223 226.472C226.223 225.142 227.147 224.148 228.533 224.148C229.807 224.148 230.801 225.072 230.801 226.444C230.801 227.802 229.891 228.824 228.519 228.824ZM233.757 230H234.891V226.57C234.891 225.03 235.731 224.134 237.089 224.134C238.083 224.134 238.769 224.694 238.769 226.234V230H239.903V225.912C239.903 223.966 238.895 223.098 237.425 223.098C236.333 223.098 235.437 223.56 234.905 224.372H234.891V219.696H233.757V230ZM244.673 230H245.947L246.829 227.578H251.267L252.163 230H253.437L249.657 220.06H248.439L244.673 230ZM247.221 226.514L249.027 221.53H249.055L250.889 226.514H247.221ZM254.687 232.772H255.821V228.824H255.835C256.339 229.608 257.179 230.084 258.257 230.084C260.133 230.084 261.575 228.712 261.575 226.64C261.575 224.624 260.189 223.098 258.257 223.098C257.221 223.098 256.353 223.574 255.835 224.386H255.821V223.182H254.687V232.772ZM258.103 229.048C256.801 229.048 255.765 228.082 255.765 226.64C255.765 225.24 256.703 224.134 258.089 224.134C259.377 224.134 260.427 225.128 260.427 226.64C260.427 228.012 259.475 229.048 258.103 229.048ZM263.127 230H264.261V226.71C264.261 225.338 265.031 224.344 266.333 224.344C266.445 224.344 266.613 224.358 266.781 224.372V223.112C266.683 223.098 266.599 223.098 266.501 223.098C265.563 223.098 264.779 223.602 264.289 224.428H264.261V223.182H263.127V230ZM274.147 230.084C275.925 230.084 277.255 229.02 277.255 227.424C277.255 226.276 276.611 225.408 275.589 225.016V224.974C276.499 224.582 277.003 223.714 277.003 222.818C277.003 221.222 275.687 220.298 274.049 220.298C272.663 220.298 271.683 220.942 271.179 221.824L272.131 222.356C272.509 221.796 273.069 221.39 274.021 221.39C275.029 221.39 275.813 222.02 275.813 222.972C275.813 223.742 275.309 224.512 274.077 224.512H273.139V225.52H273.937C275.365 225.52 276.051 226.332 276.051 227.256C276.051 228.306 275.183 228.992 274.063 228.992C272.943 228.992 272.215 228.488 271.879 227.718L270.857 228.18C271.333 229.286 272.509 230.084 274.147 230.084ZM280.57 230H281.746V220.382H280.766L278.078 222.37L278.652 223.252L280.57 221.796V230Z" fill="white"/>
<line x1="40" y1="696.75" x2="375" y2="696.75" stroke="#CDCED2" stroke-width="0.5"/>
<line x1="40" y1="696.75" x2="375" y2="696.75" stroke="#CDCED2" stroke-width="0.5"/>
<rect x="20" y="697" width="375" height="54" fill="white"/>
<path d="M45.02 741H47.44V734.72L52.22 726.8H49.42L46.26 732.3H46.22L43.04 726.8H40.28L45.02 734.72V741ZM55.9459 741.16C58.9459 741.16 61.0659 739.1 61.0659 736.14C61.0659 733.14 58.9459 731.1 55.9459 731.1C52.8659 731.1 50.8259 733.26 50.8259 736.14C50.8259 739 52.8659 741.16 55.9459 741.16ZM55.9459 739.12C54.2659 739.12 53.1059 737.8 53.1059 736.14C53.1059 734.44 54.2459 733.12 55.9459 733.12C57.5459 733.12 58.7859 734.34 58.7859 736.14C58.7859 737.9 57.5259 739.12 55.9459 739.12ZM66.2181 741.16C67.3381 741.16 68.4181 740.7 69.1981 739.76L69.2381 739.78V741H71.4781V731.24H69.2381V735.92C69.2381 738.02 68.0381 739.12 66.7381 739.12C65.3981 739.12 64.7981 738.52 64.7981 736.58V731.24H62.5581V737.18C62.5581 740.08 64.0581 741.16 66.2181 741.16ZM73.6806 741H75.9206V736.38C75.9206 734.78 76.8806 733.56 78.5806 733.56C78.7406 733.56 79.0006 733.58 79.2606 733.6V731.1H78.9806C77.8006 731.1 76.7206 731.68 75.9606 732.7H75.9206V731.24H73.6806V741ZM84.9136 743.94H89.3936V742.2H86.8936V728.08H89.3936V726.36H84.9136V743.94ZM91.3537 741H93.5937V726.28H91.3537V741ZM104.943 736C104.943 733.16 103.083 731.1 100.343 731.1C97.483 731.1 95.443 733.12 95.443 736.12C95.443 739.18 97.543 741.16 100.503 741.16C102.603 741.16 103.823 740.38 104.643 739.32L103.083 737.98C102.583 738.6 101.783 739.12 100.623 739.12C99.103 739.12 98.043 738.28 97.763 736.86H104.883C104.903 736.7 104.943 736.36 104.943 736ZM100.323 733.12C101.603 733.12 102.403 733.92 102.683 735.1H97.803C98.123 733.82 99.083 733.12 100.323 733.12ZM108.867 741H111.007L114.887 731.24H112.507L109.967 738.2H109.947L107.407 731.24H105.007L108.867 741ZM124.425 736C124.425 733.16 122.565 731.1 119.825 731.1C116.965 731.1 114.925 733.12 114.925 736.12C114.925 739.18 117.025 741.16 119.985 741.16C122.085 741.16 123.305 740.38 124.125 739.32L122.565 737.98C122.065 738.6 121.265 739.12 120.105 739.12C118.585 739.12 117.525 738.28 117.245 736.86H124.365C124.385 736.7 124.425 736.36 124.425 736ZM119.805 733.12C121.085 733.12 121.885 733.92 122.165 735.1H117.285C117.605 733.82 118.565 733.12 119.805 733.12ZM126.235 741H128.475V726.28H126.235V741ZM134.924 743.94V726.36H130.444V728.08H132.944V742.2H130.444V743.94H134.924ZM146.976 741.16C149.696 741.16 151.716 739.18 151.716 736.16C151.716 733.22 149.696 731.1 146.996 731.1C145.716 731.1 144.656 731.54 143.896 732.4H143.876V726.28H141.636V741H143.776V739.7H143.816C144.536 740.64 145.576 741.16 146.976 741.16ZM146.636 739.12C145.036 739.12 143.776 737.94 143.776 736.18C143.776 734.44 144.936 733.12 146.616 733.12C148.176 733.12 149.436 734.3 149.436 736.18C149.436 737.9 148.276 739.12 146.636 739.12ZM162.338 736C162.338 733.16 160.478 731.1 157.738 731.1C154.878 731.1 152.838 733.12 152.838 736.12C152.838 739.18 154.938 741.16 157.898 741.16C159.998 741.16 161.218 740.38 162.038 739.32L160.478 737.98C159.978 738.6 159.178 739.12 158.018 739.12C156.498 739.12 155.438 738.28 155.158 736.86H162.278C162.298 736.7 162.338 736.36 162.338 736ZM157.718 733.12C158.998 733.12 159.798 733.92 160.078 735.1H155.198C155.518 733.82 156.478 733.12 157.718 733.12ZM164.008 741H166.248V736.1C166.248 734.18 167.248 733.12 168.768 733.12C170.108 733.12 170.888 733.78 170.888 735.84V741H173.128V735.26C173.128 732.32 171.688 731.1 169.548 731.1C168.268 731.1 167.088 731.62 166.288 732.58H166.248V731.24H164.008V741ZM184.144 736C184.144 733.16 182.284 731.1 179.544 731.1C176.684 731.1 174.644 733.12 174.644 736.12C174.644 739.18 176.744 741.16 179.704 741.16C181.804 741.16 183.024 740.38 183.844 739.32L182.284 737.98C181.784 738.6 180.984 739.12 179.824 739.12C178.304 739.12 177.244 738.28 176.964 736.86H184.084C184.104 736.7 184.144 736.36 184.144 736ZM179.524 733.12C180.804 733.12 181.604 733.92 181.884 735.1H177.004C177.324 733.82 178.284 733.12 179.524 733.12ZM185.999 741H188.239V733.14H190.639V731.24H188.239V729.7C188.239 728.64 188.599 728.18 189.279 728.18C189.699 728.18 190.259 728.38 190.899 728.68L191.399 726.8C190.879 726.46 190.039 726.12 188.959 726.12C187.039 726.12 185.999 727.28 185.999 729.46V731.24H184.919V733.14H185.999V741ZM193.114 729.8C193.954 729.8 194.634 729.12 194.634 728.3C194.634 727.5 193.954 726.82 193.114 726.82C192.274 726.82 191.614 727.5 191.614 728.3C191.614 729.12 192.274 729.8 193.114 729.8ZM191.994 741H194.234V731.24H191.994V741ZM199.563 741.16C200.843 741.16 201.463 740.9 202.043 740.58L201.463 738.64C200.943 738.92 200.403 739.06 200.023 739.06C199.383 739.06 199.083 738.7 199.083 737.7V733.14H201.943V731.24H199.083V727.76L196.843 728V731.24H195.643V733.14H196.843V737.92C196.843 740.1 197.883 741.16 199.563 741.16ZM206.448 741.16C208.928 741.16 210.088 739.84 210.088 738.2C210.088 736.26 208.788 735.88 206.708 735.06C205.768 734.7 205.168 734.36 205.168 733.88C205.168 733.28 205.788 733.04 206.228 733.04C206.988 733.04 207.888 733.34 208.668 734.08L209.788 732.32C208.708 731.44 207.588 731.1 206.348 731.1C204.348 731.1 202.908 732.26 202.908 733.86C202.908 735.78 204.288 736.5 205.888 737.06C207.168 737.5 207.808 737.74 207.808 738.24C207.808 738.82 207.308 739.2 206.448 739.2C205.248 739.2 204.408 738.82 203.628 738.06L202.508 739.74C203.528 740.64 204.868 741.16 206.448 741.16Z" fill="#4C4C4C"/>
<path d="M148.914 896.144C150.966 896.144 153.324 894.956 153.324 892.31C153.324 889.844 151.56 889.25 149.364 888.386C147.816 887.792 146.952 887.468 146.97 886.532C146.988 885.578 147.78 885.038 148.77 885.038C149.634 885.038 150.66 885.488 151.704 886.352L153 884.642C151.704 883.616 150.282 883.076 148.77 883.076C146.556 883.076 144.72 884.642 144.72 886.64C144.72 888.98 146.646 889.844 148.59 890.528C150.21 891.104 151.056 891.464 151.056 892.58C151.056 893.516 150.336 894.128 148.932 894.128C147.834 894.128 146.574 893.57 145.656 892.454L144.288 894.128C145.62 895.514 147.276 896.144 148.914 896.144ZM163.509 891.5C163.509 888.944 161.835 887.09 159.369 887.09C156.795 887.09 154.959 888.908 154.959 891.608C154.959 894.362 156.849 896.144 159.513 896.144C161.403 896.144 162.501 895.442 163.239 894.488L161.835 893.282C161.385 893.84 160.665 894.308 159.621 894.308C158.253 894.308 157.299 893.552 157.047 892.274H163.455C163.473 892.13 163.509 891.824 163.509 891.5ZM159.351 888.908C160.503 888.908 161.223 889.628 161.475 890.69H157.083C157.371 889.538 158.235 888.908 159.351 888.908ZM173.616 891.5C173.616 888.944 171.942 887.09 169.476 887.09C166.902 887.09 165.066 888.908 165.066 891.608C165.066 894.362 166.956 896.144 169.62 896.144C171.51 896.144 172.608 895.442 173.346 894.488L171.942 893.282C171.492 893.84 170.772 894.308 169.728 894.308C168.36 894.308 167.406 893.552 167.154 892.274H173.562C173.58 892.13 173.616 891.824 173.616 891.5ZM169.458 888.908C170.61 888.908 171.33 889.628 171.582 890.69H167.19C167.478 889.538 168.342 888.908 169.458 888.908ZM184.22 896.144C185.444 896.144 186.38 895.676 187.01 894.83L187.046 894.848V896H188.972V887.216H186.956V888.278L186.92 888.296C186.29 887.504 185.318 887.09 184.202 887.09C181.79 887.09 179.972 888.998 179.972 891.644C179.972 894.362 181.79 896.144 184.22 896.144ZM184.544 894.308C183.05 894.308 182.024 893.21 182.024 891.662C182.024 889.97 183.14 888.908 184.544 888.908C185.984 888.908 187.046 890.096 187.046 891.662C187.046 893.246 185.912 894.308 184.544 894.308ZM191.642 896H193.658V882.752H191.642V896ZM196.546 896H198.562V882.752H196.546V896ZM210.947 896.144C213.395 896.144 215.213 894.362 215.213 891.644C215.213 888.998 213.395 887.09 210.965 887.09C209.813 887.09 208.859 887.486 208.175 888.26H208.157V882.752H206.141V896H208.067V894.83H208.103C208.751 895.676 209.687 896.144 210.947 896.144ZM210.641 894.308C209.201 894.308 208.067 893.246 208.067 891.662C208.067 890.096 209.111 888.908 210.623 888.908C212.027 888.908 213.161 889.97 213.161 891.662C213.161 893.21 212.117 894.308 210.641 894.308ZM225.349 891.5C225.349 888.944 223.675 887.09 221.209 887.09C218.635 887.09 216.799 888.908 216.799 891.608C216.799 894.362 218.689 896.144 221.353 896.144C223.243 896.144 224.341 895.442 225.079 894.488L223.675 893.282C223.225 893.84 222.505 894.308 221.461 894.308C220.093 894.308 219.139 893.552 218.887 892.274H225.295C225.313 892.13 225.349 891.824 225.349 891.5ZM221.191 888.908C222.343 888.908 223.063 889.628 223.315 890.69H218.923C219.211 889.538 220.075 888.908 221.191 888.908ZM227.428 896H229.444V891.59C229.444 889.862 230.344 888.908 231.712 888.908C232.918 888.908 233.62 889.502 233.62 891.356V896H235.636V890.834C235.636 888.188 234.34 887.09 232.414 887.09C231.262 887.09 230.2 887.558 229.48 888.422H229.444V887.216H227.428V896ZM246.126 891.5C246.126 888.944 244.452 887.09 241.986 887.09C239.412 887.09 237.576 888.908 237.576 891.608C237.576 894.362 239.466 896.144 242.13 896.144C244.02 896.144 245.118 895.442 245.856 894.488L244.452 893.282C244.002 893.84 243.282 894.308 242.238 894.308C240.87 894.308 239.916 893.552 239.664 892.274H246.072C246.09 892.13 246.126 891.824 246.126 891.5ZM241.968 888.908C243.12 888.908 243.84 889.628 244.092 890.69H239.7C239.988 889.538 240.852 888.908 241.968 888.908ZM248.371 896H250.387V888.926H252.547V887.216H250.387V885.83C250.387 884.876 250.711 884.462 251.323 884.462C251.701 884.462 252.205 884.642 252.781 884.912L253.231 883.22C252.763 882.914 252.007 882.608 251.035 882.608C249.307 882.608 248.371 883.652 248.371 885.614V887.216H247.399V888.926H248.371V896ZM255.351 885.92C256.107 885.92 256.719 885.308 256.719 884.57C256.719 883.85 256.107 883.238 255.351 883.238C254.595 883.238 254.001 883.85 254.001 884.57C254.001 885.308 254.595 885.92 255.351 885.92ZM254.343 896H256.359V887.216H254.343V896ZM261.732 896.144C262.884 896.144 263.442 895.91 263.964 895.622L263.442 893.876C262.974 894.128 262.488 894.254 262.146 894.254C261.57 894.254 261.3 893.93 261.3 893.03V888.926H263.874V887.216H261.3V884.084L259.284 884.3V887.216H258.204V888.926H259.284V893.228C259.284 895.19 260.22 896.144 261.732 896.144ZM268.504 896.144C270.736 896.144 271.78 894.956 271.78 893.48C271.78 891.734 270.61 891.392 268.738 890.654C267.892 890.33 267.352 890.024 267.352 889.592C267.352 889.052 267.91 888.836 268.306 888.836C268.99 888.836 269.8 889.106 270.502 889.772L271.51 888.188C270.538 887.396 269.53 887.09 268.414 887.09C266.614 887.09 265.318 888.134 265.318 889.574C265.318 891.302 266.56 891.95 268 892.454C269.152 892.85 269.728 893.066 269.728 893.516C269.728 894.038 269.278 894.38 268.504 894.38C267.424 894.38 266.668 894.038 265.966 893.354L264.958 894.866C265.876 895.676 267.082 896.144 268.504 896.144Z" fill="#5E6DF2"/>
<path d="M117.392 792H119.328V787.952H121.28C123.728 787.952 125.392 786.784 125.392 784.32C125.392 782.208 124.224 780.64 121.504 780.64H117.392V792ZM119.328 786.208V782.368H121.232C122.624 782.368 123.392 783.088 123.392 784.288C123.392 785.408 122.672 786.208 121.088 786.208H119.328ZM127.103 792H128.895V780.224H127.103V792ZM134.406 792.128C135.494 792.128 136.326 791.712 136.886 790.96L136.918 790.976V792H138.63V784.192H136.838V785.136L136.806 785.152C136.246 784.448 135.382 784.08 134.39 784.08C132.246 784.08 130.63 785.776 130.63 788.128C130.63 790.544 132.246 792.128 134.406 792.128ZM134.694 790.496C133.366 790.496 132.454 789.52 132.454 788.144C132.454 786.64 133.446 785.696 134.694 785.696C135.974 785.696 136.918 786.752 136.918 788.144C136.918 789.552 135.91 790.496 134.694 790.496ZM142.971 792.128C143.995 792.128 144.491 791.92 144.955 791.664L144.491 790.112C144.075 790.336 143.643 790.448 143.339 790.448C142.827 790.448 142.587 790.16 142.587 789.36V785.712H144.875V784.192H142.587V781.408L140.795 781.6V784.192H139.835V785.712H140.795V789.536C140.795 791.28 141.627 792.128 142.971 792.128ZM147.263 783.04C147.935 783.04 148.479 782.496 148.479 781.84C148.479 781.2 147.935 780.656 147.263 780.656C146.591 780.656 146.063 781.2 146.063 781.84C146.063 782.496 146.591 783.04 147.263 783.04ZM146.367 792H148.159V784.192H146.367V792ZM150.374 792H152.166V788.08C152.166 786.544 152.966 785.696 154.182 785.696C155.254 785.696 155.878 786.224 155.878 787.872V792H157.67V787.408C157.67 785.056 156.518 784.08 154.806 784.08C153.782 784.08 152.838 784.496 152.198 785.264H152.166V784.192H150.374V792ZM162.387 792.128C163.283 792.128 164.147 791.76 164.771 791.008L164.803 791.024V792H166.595V784.192H164.803V787.936C164.803 789.616 163.843 790.496 162.803 790.496C161.731 790.496 161.251 790.016 161.251 788.464V784.192H159.459V788.944C159.459 791.264 160.659 792.128 162.387 792.128ZM168.629 792H170.421V788.112C170.421 786.576 171.221 785.696 172.293 785.696C173.349 785.696 173.845 786.528 173.845 787.936V792H175.637V788.112C175.637 786.576 176.453 785.696 177.461 785.696C178.517 785.696 178.981 786.528 178.981 787.936V792H180.773V787.488C180.773 785.152 179.749 784.08 178.037 784.08C176.885 784.08 175.893 784.528 175.237 785.376H175.205C174.741 784.496 173.925 784.08 172.869 784.08C171.973 784.08 171.077 784.496 170.437 785.264H170.421V784.192H168.629V792Z" fill="#4C4C4C"/>
<path d="M120.102 817.084C121.838 817.084 123.434 816.104 123.434 814.284C123.434 812.422 122.02 811.974 120.354 811.316C119.108 810.84 118.212 810.49 118.226 809.538C118.24 808.586 119.066 808.082 120.004 808.082C120.746 808.082 121.6 808.432 122.398 809.09L123.14 808.124C122.202 807.368 121.11 806.962 120.004 806.962C118.296 806.962 116.966 808.11 116.966 809.594C116.966 811.344 118.464 811.974 119.934 812.52C121.264 813.024 122.16 813.318 122.16 814.424C122.16 815.39 121.334 815.95 120.116 815.95C119.15 815.95 118.086 815.502 117.372 814.606L116.588 815.544C117.582 816.608 118.856 817.084 120.102 817.084ZM131.087 813.472C131.087 811.526 129.813 810.098 127.951 810.098C126.005 810.098 124.591 811.54 124.591 813.598C124.591 815.684 126.019 817.084 128.035 817.084C129.407 817.084 130.261 816.566 130.849 815.81L130.051 815.138C129.631 815.656 128.987 816.048 128.077 816.048C126.789 816.048 125.893 815.208 125.739 813.934H131.059C131.059 813.85 131.087 813.654 131.087 813.472ZM127.937 811.134C129.057 811.134 129.785 811.89 129.953 813.01H125.767C125.977 811.848 126.845 811.134 127.937 811.134ZM132.674 817H133.808V806.696H132.674V817ZM135.945 817H137.079V806.696H135.945V817ZM139.791 808.936C140.253 808.936 140.617 808.572 140.617 808.124C140.617 807.676 140.253 807.312 139.791 807.312C139.329 807.312 138.965 807.676 138.965 808.124C138.965 808.572 139.329 808.936 139.791 808.936ZM139.217 817H140.351V810.182H139.217V817ZM142.405 817H143.539V813.598C143.539 812.058 144.379 811.134 145.667 811.134C146.661 811.134 147.347 811.68 147.347 813.276V817H148.481V812.954C148.481 811.008 147.501 810.098 146.031 810.098C144.981 810.098 144.085 810.588 143.553 811.414H143.539V810.182H142.405V817ZM153.321 819.856C155.701 819.856 156.681 818.456 156.681 816.496V810.182H155.547V811.274H155.519C154.973 810.532 154.091 810.098 153.125 810.098C151.207 810.098 149.863 811.554 149.863 813.5C149.863 815.53 151.305 816.874 153.167 816.874C154.217 816.874 155.029 816.412 155.533 815.684H155.561V816.776C155.561 817.924 154.819 818.82 153.279 818.82C152.299 818.82 151.613 818.554 150.829 818.106L150.549 819.114C151.361 819.604 152.299 819.856 153.321 819.856ZM153.307 815.824C152.019 815.824 151.011 814.914 151.011 813.472C151.011 812.142 151.935 811.148 153.321 811.148C154.595 811.148 155.589 812.072 155.589 813.444C155.589 814.802 154.679 815.824 153.307 815.824ZM162.48 817H163.614V811.162H165.546V810.182H163.614V808.908C163.614 808.012 163.978 807.648 164.538 807.648C164.916 807.648 165.294 807.788 165.728 808.012L165.98 807.046C165.602 806.808 165.084 806.598 164.398 806.598C163.18 806.598 162.48 807.34 162.48 808.796V810.182H161.654V811.162H162.48V817ZM172.586 813.472C172.586 811.526 171.312 810.098 169.45 810.098C167.504 810.098 166.09 811.54 166.09 813.598C166.09 815.684 167.518 817.084 169.534 817.084C170.906 817.084 171.76 816.566 172.348 815.81L171.55 815.138C171.13 815.656 170.486 816.048 169.576 816.048C168.288 816.048 167.392 815.208 167.238 813.934H172.558C172.558 813.85 172.586 813.654 172.586 813.472ZM169.436 811.134C170.556 811.134 171.284 811.89 171.452 813.01H167.266C167.476 811.848 168.344 811.134 169.436 811.134ZM180.151 813.472C180.151 811.526 178.877 810.098 177.015 810.098C175.069 810.098 173.655 811.54 173.655 813.598C173.655 815.684 175.083 817.084 177.099 817.084C178.471 817.084 179.325 816.566 179.913 815.81L179.115 815.138C178.695 815.656 178.051 816.048 177.141 816.048C175.853 816.048 174.957 815.208 174.803 813.934H180.123C180.123 813.85 180.151 813.654 180.151 813.472ZM177.001 811.134C178.121 811.134 178.849 811.89 179.017 813.01H174.831C175.041 811.848 175.909 811.134 177.001 811.134ZM188.402 817.084C190.418 817.084 191.916 815.67 191.916 813.598C191.916 811.526 190.418 810.098 188.402 810.098C186.288 810.098 184.874 811.638 184.874 813.598C184.874 815.558 186.288 817.084 188.402 817.084ZM188.402 816.048C186.988 816.048 186.036 814.956 186.036 813.598C186.036 812.24 186.974 811.134 188.402 811.134C189.718 811.134 190.754 812.142 190.754 813.598C190.754 815.054 189.704 816.048 188.402 816.048ZM193.7 817H194.834V811.162H196.766V810.182H194.834V808.908C194.834 808.012 195.198 807.648 195.758 807.648C196.136 807.648 196.514 807.788 196.948 808.012L197.2 807.046C196.822 806.808 196.304 806.598 195.618 806.598C194.4 806.598 193.7 807.34 193.7 808.796V810.182H192.874V811.162H193.7V817ZM200.848 807.382V808.46H205.496L201.828 816.93L203.004 817.168L206.812 808.208V807.382H200.848ZM208.074 817.098C208.536 817.098 208.9 816.734 208.9 816.272C208.9 815.81 208.536 815.446 208.074 815.446C207.612 815.446 207.234 815.81 207.234 816.272C207.234 816.734 207.612 817.098 208.074 817.098ZM213.533 810.896C213.141 810.896 212.567 810.994 212.063 811.176L212.217 808.474H216.193V807.382H211.111L210.831 812.24L211.517 812.45C212.007 812.072 212.581 811.918 213.211 811.918C214.387 811.918 215.437 812.646 215.437 813.948C215.437 815.138 214.541 815.992 213.197 815.992C212.217 815.992 211.405 815.53 210.971 814.83L210.089 815.488C210.761 816.496 211.965 817.084 213.295 817.084C215.241 817.084 216.641 815.824 216.641 813.962C216.641 812.03 215.241 810.896 213.533 810.896ZM222.263 817.238L226.617 807.284L225.693 806.892L221.339 816.846L222.263 817.238ZM220.401 812.478C222.067 812.478 223.187 811.232 223.187 809.706C223.187 808.068 221.927 806.962 220.401 806.962C218.735 806.962 217.615 808.194 217.615 809.706C217.615 811.372 218.861 812.478 220.401 812.478ZM220.401 811.582C219.407 811.582 218.609 810.84 218.609 809.72C218.609 808.698 219.323 807.872 220.401 807.872C221.423 807.872 222.221 808.614 222.221 809.72C222.221 810.756 221.507 811.582 220.401 811.582ZM227.485 817.084C229.165 817.084 230.285 815.852 230.285 814.326C230.285 812.674 229.025 811.582 227.485 811.582C225.819 811.582 224.699 812.814 224.699 814.326C224.699 815.978 225.959 817.084 227.485 817.084ZM227.499 816.202C226.491 816.202 225.679 815.446 225.679 814.34C225.679 813.318 226.407 812.492 227.499 812.492C228.507 812.492 229.319 813.234 229.319 814.34C229.319 815.376 228.591 816.202 227.499 816.202Z" fill="#4C4C4C"/>
<path d="M120.236 839.072C122.264 839.072 123.548 837.716 123.548 835.532V830.48H122.504V835.46C122.504 837.104 121.556 838.088 120.236 838.088C118.856 838.088 117.98 837.032 117.98 835.46V830.48H116.936V835.532C116.936 837.776 118.28 839.072 120.236 839.072ZM125.305 839H126.277V836.084C126.277 834.764 126.997 833.972 128.101 833.972C128.953 833.972 129.541 834.44 129.541 835.808V839H130.513V835.532C130.513 833.864 129.673 833.084 128.413 833.084C127.513 833.084 126.745 833.504 126.289 834.212H126.277V833.156H125.305V839ZM132.211 839H133.183V830.168H132.211V839ZM137.652 839.072C139.38 839.072 140.664 837.86 140.664 836.084C140.664 834.308 139.38 833.084 137.652 833.084C135.84 833.084 134.628 834.404 134.628 836.084C134.628 837.764 135.84 839.072 137.652 839.072ZM137.652 838.184C136.44 838.184 135.624 837.248 135.624 836.084C135.624 834.92 136.428 833.972 137.652 833.972C138.78 833.972 139.668 834.836 139.668 836.084C139.668 837.332 138.768 838.184 137.652 838.184ZM144.577 839.072C145.717 839.072 146.497 838.64 146.989 838.052L146.317 837.44C145.957 837.884 145.345 838.184 144.649 838.184C143.461 838.184 142.657 837.332 142.657 836.084C142.657 834.848 143.461 833.972 144.661 833.972C145.357 833.972 145.933 834.284 146.305 834.716L146.965 834.128C146.389 833.444 145.489 833.084 144.613 833.084C142.873 833.084 141.661 834.32 141.661 836.084C141.661 837.86 142.873 839.072 144.577 839.072ZM148.211 839H149.183V837.548L150.383 836.252L152.147 839H153.263L151.055 835.568L153.239 833.156H152.063L149.195 836.36L149.183 836.348V830.168H148.211V839ZM159.98 839.072C160.928 839.072 161.648 838.64 162.068 837.944H162.08V839H163.016V833.156H162.044V834.188L162.02 834.2C161.6 833.492 160.844 833.084 159.98 833.084C158.324 833.084 157.136 834.392 157.136 836.12C157.136 837.896 158.372 839.072 159.98 839.072ZM160.124 838.184C158.924 838.184 158.12 837.296 158.12 836.12C158.12 834.824 159.02 833.972 160.124 833.972C161.276 833.972 162.08 834.92 162.08 836.12C162.08 837.356 161.204 838.184 160.124 838.184ZM166.326 839.072C167.022 839.072 167.418 838.904 167.742 838.712L167.49 837.86C167.202 838.016 166.842 838.16 166.494 838.16C165.942 838.16 165.786 837.824 165.786 837.116V833.996H167.718V833.156H165.786V831.056L164.814 831.164V833.156H164.058V833.996H164.814V837.26C164.814 838.436 165.294 839.072 166.326 839.072ZM177.432 836.828C177.432 835.292 176.316 834.896 174.84 834.416C173.844 834.092 173.112 833.828 173.112 833.072C173.112 832.376 173.7 831.968 174.54 831.968C175.128 831.968 175.932 832.22 176.556 832.676L177.156 831.944C176.616 831.512 175.812 831.176 175.068 831.056V829.508H174.288V831.008C172.836 831.092 172.02 831.98 172.02 833.132C172.02 834.56 173.232 834.98 174.54 835.388C175.644 835.748 176.328 836.036 176.328 836.9C176.328 837.644 175.68 838.088 174.792 838.088C174.024 838.088 173.16 837.752 172.488 837.092L171.852 837.836C172.56 838.532 173.4 838.904 174.288 839.012V840.476H175.068V839.024C176.556 838.928 177.432 838.052 177.432 836.828ZM180.25 839H181.258V830.756H180.418L178.114 832.46L178.606 833.216L180.25 831.968V839ZM186.003 839.072C187.971 839.072 189.099 837.32 189.099 834.884C189.099 832.184 187.791 830.684 186.003 830.684C184.047 830.684 182.907 832.436 182.907 834.884C182.907 837.572 184.215 839.072 186.003 839.072ZM186.003 838.136C184.791 838.136 183.939 836.972 183.939 834.884C183.939 832.904 184.695 831.62 186.003 831.62C187.227 831.62 188.067 832.784 188.067 834.884C188.067 836.852 187.323 838.136 186.003 838.136ZM193.411 839.072C195.379 839.072 196.507 837.32 196.507 834.884C196.507 832.184 195.199 830.684 193.411 830.684C191.455 830.684 190.315 832.436 190.315 834.884C190.315 837.572 191.623 839.072 193.411 839.072ZM193.411 838.136C192.199 838.136 191.347 836.972 191.347 834.884C191.347 832.904 192.103 831.62 193.411 831.62C194.635 831.62 195.475 832.784 195.475 834.884C195.475 836.852 194.731 838.136 193.411 838.136ZM200.819 839.072C202.787 839.072 203.915 837.32 203.915 834.884C203.915 832.184 202.607 830.684 200.819 830.684C198.863 830.684 197.723 832.436 197.723 834.884C197.723 837.572 199.031 839.072 200.819 839.072ZM200.819 838.136C199.607 838.136 198.755 836.972 198.755 834.884C198.755 832.904 199.511 831.62 200.819 831.62C202.043 831.62 202.883 832.784 202.883 834.884C202.883 836.852 202.139 838.136 200.819 838.136ZM210.349 839.072C211.753 839.072 212.449 838.316 212.449 837.404C212.461 836.264 211.645 836.048 210.409 835.568C209.773 835.34 209.305 835.112 209.305 834.656C209.305 834.212 209.749 833.948 210.205 833.948C210.709 833.948 211.249 834.104 211.753 834.572L212.257 833.804C211.609 833.276 210.949 833.084 210.241 833.084C209.137 833.084 208.321 833.756 208.321 834.656C208.321 835.724 209.125 836.108 210.073 836.444C210.925 836.756 211.465 836.9 211.465 837.416C211.465 837.86 211.057 838.208 210.349 838.208C209.533 838.208 209.017 837.944 208.561 837.5L208.069 838.244C208.633 838.736 209.377 839.072 210.349 839.072ZM216.063 839.072C217.011 839.072 217.731 838.64 218.151 837.944H218.163V839H219.099V833.156H218.127V834.188L218.103 834.2C217.683 833.492 216.927 833.084 216.063 833.084C214.407 833.084 213.219 834.392 213.219 836.12C213.219 837.896 214.455 839.072 216.063 839.072ZM216.207 838.184C215.007 838.184 214.203 837.296 214.203 836.12C214.203 834.824 215.103 833.972 216.207 833.972C217.359 833.972 218.163 834.92 218.163 836.12C218.163 837.356 217.287 838.184 216.207 838.184ZM220.837 839H221.809V830.168H220.837V839ZM228.822 835.976C228.822 834.308 227.73 833.084 226.134 833.084C224.466 833.084 223.254 834.32 223.254 836.084C223.254 837.872 224.478 839.072 226.206 839.072C227.382 839.072 228.114 838.628 228.618 837.98L227.934 837.404C227.574 837.848 227.022 838.184 226.242 838.184C225.138 838.184 224.37 837.464 224.238 836.372H228.798C228.798 836.3 228.822 836.132 228.822 835.976ZM226.122 833.972C227.082 833.972 227.706 834.62 227.85 835.58H224.262C224.442 834.584 225.186 833.972 226.122 833.972ZM231.931 839.072C233.335 839.072 234.031 838.316 234.031 837.404C234.043 836.264 233.227 836.048 231.991 835.568C231.355 835.34 230.887 835.112 230.887 834.656C230.887 834.212 231.331 833.948 231.787 833.948C232.291 833.948 232.831 834.104 233.335 834.572L233.839 833.804C233.191 833.276 232.531 833.084 231.823 833.084C230.719 833.084 229.903 833.756 229.903 834.656C229.903 835.724 230.707 836.108 231.655 836.444C232.507 836.756 233.047 836.9 233.047 837.416C233.047 837.86 232.639 838.208 231.931 838.208C231.115 838.208 230.599 837.944 230.143 837.5L229.651 838.244C230.215 838.736 230.959 839.072 231.931 839.072Z" fill="#999999"/>
<circle cx="72" cy="809" r="32" fill="#F5F5F6"/>
<circle cx="58.6814" cy="801.785" r="2.68148" fill="white" stroke="black" stroke-width="1.06667"/>
<circle cx="71.9997" cy="799.948" r="2.68148" fill="white" stroke="black" stroke-width="1.06667"/>
<path d="M61.8665 821.533V817.533H82.1331V821.533H61.8665Z" fill="white"/>
<path d="M61.8959 817.4L59.1404 805L66.0293 810.512L71.9996 802.704L77.5107 810.512L84.3996 804.082L82.1033 817.4H61.8959Z" fill="#7886A2"/>
<path d="M61.8962 817.4V821.533H82.1036V817.4" stroke="black" stroke-width="1.06667" stroke-linejoin="round"/>
<path d="M61.8961 817.4L59.2 804.467L66.0295 810.971L71.9998 802.704L77.5109 810.971L84.3998 804.082L82.1035 817.4H61.8961Z" stroke="black" stroke-width="1.06667" stroke-linejoin="round"/>
<circle cx="85.3183" cy="801.785" r="2.68148" fill="white" stroke="black" stroke-width="1.06667"/>
<path fill-rule="evenodd" clip-rule="evenodd" d="M208 407C202.48 407 198 411.48 198 417C198 422.52 202.48 427 208 427C213.52 427 218 422.52 218 417C218 411.48 213.52 407 208 407ZM208 425C203.59 425 200 421.41 200 417C200 412.59 203.59 409 208 409C212.41 409 216 412.59 216 417C216 421.41 212.41 425 208 425ZM205.97 414.47C205.97 415.2 206.54 415.69 208.31 416.14C210.07 416.6 211.96 417.36 211.97 419.56C211.96 421.17 210.76 422.04 209.24 422.33V424H206.9V422.3C205.4 421.99 204.14 421.03 204.04 419.33H205.76C205.85 420.25 206.48 420.97 208.08 420.97C209.79 420.97 210.18 420.11 210.18 419.58C210.18 418.86 209.79 418.17 207.84 417.71C205.67 417.19 204.18 416.29 204.18 414.5C204.18 412.99 205.39 412.01 206.9 411.69V410H209.23V411.71C210.85 412.11 211.67 413.34 211.72 414.68H210.01C209.97 413.7 209.45 413.04 208.07 413.04C206.76 413.04 205.97 413.63 205.97 414.47Z" fill="white"/>
<path d="M159.379 533.92C159.379 529.76 156.499 528.672 152.339 527.36C149.907 526.592 148.499 525.952 148.499 524.448C148.499 523.04 149.683 522.208 151.539 522.208C153.011 522.208 154.899 522.784 156.627 524.032L158.803 521.344C157.331 520.16 155.219 519.2 153.171 518.816V514.688H150.355V518.72C146.611 519.104 144.467 521.504 144.467 524.704C144.467 528.672 147.699 529.856 151.251 530.944C154.003 531.808 155.315 532.48 155.315 534.208C155.315 535.712 154.003 536.64 152.115 536.64C150.259 536.64 148.051 535.84 146.259 534.112L143.987 536.832C145.843 538.656 148.051 539.68 150.355 540V543.904H153.171V540.064C157.011 539.68 159.379 537.344 159.379 533.92ZM165.795 540H169.507V518.016H166.499L160.067 522.688L161.827 525.44L165.795 522.464V540ZM181.144 540.256C186.456 540.256 189.592 535.648 189.592 529.024C189.592 521.856 186.104 517.792 181.144 517.792C175.864 517.792 172.696 522.368 172.696 529.024C172.696 536.16 176.184 540.256 181.144 540.256ZM181.144 536.8C178.328 536.8 176.472 533.888 176.472 529.024C176.472 524.096 178.264 521.216 181.144 521.216C184.024 521.216 185.816 524.096 185.816 529.024C185.816 533.92 184.088 536.8 181.144 536.8ZM200.123 540.256C205.435 540.256 208.571 535.648 208.571 529.024C208.571 521.856 205.083 517.792 200.123 517.792C194.843 517.792 191.675 522.368 191.675 529.024C191.675 536.16 195.163 540.256 200.123 540.256ZM200.123 536.8C197.307 536.8 195.451 533.888 195.451 529.024C195.451 524.096 197.243 521.216 200.123 521.216C203.003 521.216 204.795 524.096 204.795 529.024C204.795 533.92 203.067 536.8 200.123 536.8ZM219.101 540.256C224.413 540.256 227.549 535.648 227.549 529.024C227.549 521.856 224.061 517.792 219.101 517.792C213.821 517.792 210.653 522.368 210.653 529.024C210.653 536.16 214.141 540.256 219.101 540.256ZM219.101 536.8C216.285 536.8 214.429 533.888 214.429 529.024C214.429 524.096 216.221 521.216 219.101 521.216C221.981 521.216 223.773 524.096 223.773 529.024C223.773 533.92 222.045 536.8 219.101 536.8ZM231.819 540.256C233.131 540.256 234.219 539.2 234.219 537.888C234.219 536.576 233.131 535.488 231.819 535.488C230.475 535.488 229.387 536.576 229.387 537.888C229.387 539.2 230.475 540.256 231.819 540.256ZM244.528 540.256C249.84 540.256 252.976 535.648 252.976 529.024C252.976 521.856 249.488 517.792 244.528 517.792C239.248 517.792 236.08 522.368 236.08 529.024C236.08 536.16 239.568 540.256 244.528 540.256ZM244.528 536.8C241.712 536.8 239.856 533.888 239.856 529.024C239.856 524.096 241.648 521.216 244.528 521.216C247.408 521.216 249.2 524.096 249.2 529.024C249.2 533.92 247.472 536.8 244.528 536.8ZM263.506 540.256C268.818 540.256 271.954 535.648 271.954 529.024C271.954 521.856 268.466 517.792 263.506 517.792C258.226 517.792 255.058 522.368 255.058 529.024C255.058 536.16 258.546 540.256 263.506 540.256ZM263.506 536.8C260.69 536.8 258.834 533.888 258.834 529.024C258.834 524.096 260.626 521.216 263.506 521.216C266.386 521.216 268.178 524.096 268.178 529.024C268.178 533.92 266.45 536.8 263.506 536.8Z" fill="#4C4C4C"/>
<path d="M178.173 567.096C180.477 567.096 182.189 565.48 182.189 563.112C182.189 560.744 180.477 559.112 178.173 559.112C175.757 559.112 174.141 560.872 174.141 563.112C174.141 565.352 175.757 567.096 178.173 567.096ZM178.173 565.912C176.557 565.912 175.469 564.664 175.469 563.112C175.469 561.56 176.541 560.296 178.173 560.296C179.677 560.296 180.861 561.448 180.861 563.112C180.861 564.776 179.661 565.912 178.173 565.912ZM184.17 567H185.466V560.328H187.674V559.208H185.466V557.752C185.466 556.728 185.882 556.312 186.522 556.312C186.954 556.312 187.386 556.472 187.882 556.728L188.17 555.624C187.738 555.352 187.146 555.112 186.362 555.112C184.97 555.112 184.17 555.96 184.17 557.624V559.208H183.226V560.328H184.17V567ZM200.114 564.104C200.114 562.056 198.626 561.528 196.658 560.888C195.33 560.456 194.354 560.104 194.354 559.096C194.354 558.168 195.138 557.624 196.258 557.624C197.042 557.624 198.114 557.96 198.946 558.568L199.746 557.592C199.026 557.016 197.954 556.568 196.962 556.408V554.344H195.922V556.344C193.986 556.456 192.898 557.64 192.898 559.176C192.898 561.08 194.514 561.64 196.258 562.184C197.73 562.664 198.642 563.048 198.642 564.2C198.642 565.192 197.778 565.784 196.594 565.784C195.57 565.784 194.418 565.336 193.522 564.456L192.674 565.448C193.618 566.376 194.738 566.872 195.922 567.016V568.968H196.962V567.032C198.946 566.904 200.114 565.736 200.114 564.104ZM203.738 567H205.082V556.008H203.962L200.89 558.28L201.546 559.288L203.738 557.624V567ZM206.763 569.096H207.739L208.699 565.24H207.291L206.763 569.096ZM214.098 567.096C216.722 567.096 218.226 564.76 218.226 561.512C218.226 557.912 216.482 555.912 214.098 555.912C211.49 555.912 209.97 558.248 209.97 561.512C209.97 565.096 211.714 567.096 214.098 567.096ZM214.098 565.848C212.482 565.848 211.346 564.296 211.346 561.512C211.346 558.872 212.354 557.16 214.098 557.16C215.73 557.16 216.85 558.712 216.85 561.512C216.85 564.136 215.858 565.848 214.098 565.848ZM223.842 567.096C226.466 567.096 227.97 564.76 227.97 561.512C227.97 557.912 226.226 555.912 223.842 555.912C221.234 555.912 219.714 558.248 219.714 561.512C219.714 565.096 221.458 567.096 223.842 567.096ZM223.842 565.848C222.226 565.848 221.09 564.296 221.09 561.512C221.09 558.872 222.098 557.16 223.842 557.16C225.474 557.16 226.594 558.712 226.594 561.512C226.594 564.136 225.602 565.848 223.842 565.848ZM233.587 567.096C236.211 567.096 237.715 564.76 237.715 561.512C237.715 557.912 235.971 555.912 233.587 555.912C230.979 555.912 229.459 558.248 229.459 561.512C229.459 565.096 231.203 567.096 233.587 567.096ZM233.587 565.848C231.971 565.848 230.835 564.296 230.835 561.512C230.835 558.872 231.843 557.16 233.587 557.16C235.219 557.16 236.339 558.712 236.339 561.512C236.339 564.136 235.347 565.848 233.587 565.848Z" fill="#999999"/>
<circle cx="208" cy="535" r="114" stroke="#68758F" stroke-width="32"/>
<rect x="20" y="303" width="375" height="78" fill="white"/>
<path d="M238 360C234.13 360 231 363.13 231 367C231 370.87 234.13 374 238 374C241.87 374 245 370.87 245 367C245 363.13 241.87 360 238 360ZM238 371C237.72 371 237.5 370.78 237.5 370.5C237.5 370.22 237.72 370 238 370C238.28 370 238.5 370.22 238.5 370.5C238.5 370.78 238.28 371 238 371ZM239.22 367.45C238.75 367.68 238.5 367.81 238.5 368.5C238.5 368.78 238.28 369 238 369C237.72 369 237.5 368.78 237.5 368.5C237.5 367.19 238.24 366.82 238.78 366.55C239.25 366.32 239.5 366.19 239.5 365.5C239.5 365.25 239.41 364 238 364C236.59 364 236.5 365.25 236.5 365.5C236.5 365.77 236.27 366 236 366C235.72 366 235.5 365.78 235.5 365.5C235.5 364.64 236.02 363 238 363C239.98 363 240.5 364.64 240.5 365.5C240.5 366.81 239.76 367.18 239.22 367.45Z" fill="#CDCED2"/>
<path d="M44.66 347H47.08V334.96H51.16V332.8H40.64V334.96H44.66V347ZM55.3209 347.16C58.3209 347.16 60.4409 345.1 60.4409 342.14C60.4409 339.14 58.3209 337.1 55.3209 337.1C52.2409 337.1 50.2009 339.26 50.2009 342.14C50.2009 345 52.2409 347.16 55.3209 347.16ZM55.3209 345.12C53.6409 345.12 52.4809 343.8 52.4809 342.14C52.4809 340.44 53.6209 339.12 55.3209 339.12C56.9209 339.12 58.1609 340.34 58.1609 342.14C58.1609 343.9 56.9009 345.12 55.3209 345.12ZM66.8447 347H69.0847V344.42L70.6647 342.7L73.2847 347H75.8047L72.2247 341.16L75.7447 337.24H73.0847L69.1247 341.76L69.0847 341.74V332.28H66.8447V347ZM85.2809 342C85.2809 339.16 83.4209 337.1 80.6809 337.1C77.8209 337.1 75.7809 339.12 75.7809 342.12C75.7809 345.18 77.8809 347.16 80.8409 347.16C82.9409 347.16 84.1609 346.38 84.9809 345.32L83.4209 343.98C82.9209 344.6 82.1209 345.12 80.9609 345.12C79.4409 345.12 78.3809 344.28 78.1009 342.86H85.2209C85.2409 342.7 85.2809 342.36 85.2809 342ZM80.6609 339.12C81.9409 339.12 82.7409 339.92 83.0209 341.1H78.1409C78.4609 339.82 79.4209 339.12 80.6609 339.12ZM95.8714 342C95.8714 339.16 94.0114 337.1 91.2714 337.1C88.4114 337.1 86.3714 339.12 86.3714 342.12C86.3714 345.18 88.4714 347.16 91.4314 347.16C93.5314 347.16 94.7514 346.38 95.5714 345.32L94.0114 343.98C93.5114 344.6 92.7114 345.12 91.5514 345.12C90.0314 345.12 88.9714 344.28 88.6914 342.86H95.8114C95.8314 342.7 95.8714 342.36 95.8714 342ZM91.2514 339.12C92.5314 339.12 93.3314 339.92 93.6114 341.1H88.7314C89.0514 339.82 90.0114 339.12 91.2514 339.12ZM97.5419 350.96H99.7819V345.82L99.8219 345.8C100.542 346.68 101.562 347.16 102.882 347.16C105.602 347.16 107.622 345.18 107.622 342.16C107.622 339.22 105.602 337.1 102.902 337.1C101.622 337.1 100.542 337.56 99.8219 338.4H99.7819V337.24H97.5419V350.96ZM102.542 345.12C100.942 345.12 99.6819 343.94 99.6819 342.18C99.6819 340.44 100.842 339.12 102.522 339.12C104.082 339.12 105.342 340.3 105.342 342.18C105.342 343.9 104.182 345.12 102.542 345.12ZM114.175 347H116.415V332.28H114.175V347ZM127.765 342C127.765 339.16 125.905 337.1 123.165 337.1C120.305 337.1 118.265 339.12 118.265 342.12C118.265 345.18 120.365 347.16 123.325 347.16C125.425 347.16 126.645 346.38 127.465 345.32L125.905 343.98C125.405 344.6 124.605 345.12 123.445 345.12C121.925 345.12 120.865 344.28 120.585 342.86H127.705C127.725 342.7 127.765 342.36 127.765 342ZM123.145 339.12C124.425 339.12 125.225 339.92 125.505 341.1H120.625C120.945 339.82 121.905 339.12 123.145 339.12ZM131.688 347H133.828L137.708 337.24H135.328L132.788 344.2H132.768L130.228 337.24H127.828L131.688 347ZM147.246 342C147.246 339.16 145.386 337.1 142.646 337.1C139.786 337.1 137.746 339.12 137.746 342.12C137.746 345.18 139.846 347.16 142.806 347.16C144.906 347.16 146.126 346.38 146.946 345.32L145.386 343.98C144.886 344.6 144.086 345.12 142.926 345.12C141.406 345.12 140.346 344.28 140.066 342.86H147.186C147.206 342.7 147.246 342.36 147.246 342ZM142.626 339.12C143.906 339.12 144.706 339.92 144.986 341.1H140.106C140.426 339.82 141.386 339.12 142.626 339.12ZM149.057 347H151.297V332.28H149.057V347Z" fill="#4C4C4C"/>
<path d="M41.232 372H47.616V370.894H42.45V367.604H46.44V366.498H42.45V363.166H47.322V362.06H41.232V372ZM51.8814 372.084C52.9874 372.084 53.8274 371.58 54.3174 370.768H54.3314V372H55.4234V365.182H54.2894V366.386L54.2614 366.4C53.7714 365.574 52.8894 365.098 51.8814 365.098C49.9494 365.098 48.5634 366.624 48.5634 368.64C48.5634 370.712 50.0054 372.084 51.8814 372.084ZM52.0494 371.048C50.6494 371.048 49.7114 370.012 49.7114 368.64C49.7114 367.128 50.7614 366.134 52.0494 366.134C53.3934 366.134 54.3314 367.24 54.3314 368.64C54.3314 370.082 53.3094 371.048 52.0494 371.048ZM57.3006 372H58.4346V368.71C58.4346 367.338 59.2046 366.344 60.5066 366.344C60.6186 366.344 60.7866 366.358 60.9546 366.372V365.112C60.8566 365.098 60.7726 365.098 60.6746 365.098C59.7366 365.098 58.9526 365.602 58.4626 366.428H58.4346V365.182H57.3006V372ZM62.0762 372H63.2102V368.598C63.2102 367.058 64.0502 366.134 65.3382 366.134C66.3322 366.134 67.0182 366.68 67.0182 368.276V372H68.1522V367.954C68.1522 366.008 67.1722 365.098 65.7022 365.098C64.6522 365.098 63.7562 365.588 63.2242 366.414H63.2102V365.182H62.0762V372ZM70.6406 363.936C71.1026 363.936 71.4666 363.572 71.4666 363.124C71.4666 362.676 71.1026 362.312 70.6406 362.312C70.1786 362.312 69.8146 362.676 69.8146 363.124C69.8146 363.572 70.1786 363.936 70.6406 363.936ZM70.0666 372H71.2006V365.182H70.0666V372ZM73.2542 372H74.3882V368.598C74.3882 367.058 75.2282 366.134 76.5162 366.134C77.5102 366.134 78.1962 366.68 78.1962 368.276V372H79.3302V367.954C79.3302 366.008 78.3502 365.098 76.8802 365.098C75.8302 365.098 74.9342 365.588 74.4022 366.414H74.3882V365.182H73.2542V372ZM84.1706 374.856C86.5506 374.856 87.5306 373.456 87.5306 371.496V365.182H86.3966V366.274H86.3686C85.8226 365.532 84.9406 365.098 83.9746 365.098C82.0566 365.098 80.7126 366.554 80.7126 368.5C80.7126 370.53 82.1546 371.874 84.0166 371.874C85.0666 371.874 85.8786 371.412 86.3826 370.684H86.4106V371.776C86.4106 372.924 85.6686 373.82 84.1286 373.82C83.1486 373.82 82.4626 373.554 81.6786 373.106L81.3986 374.114C82.2106 374.604 83.1486 374.856 84.1706 374.856ZM84.1566 370.824C82.8686 370.824 81.8606 369.914 81.8606 368.472C81.8606 367.142 82.7846 366.148 84.1706 366.148C85.4446 366.148 86.4386 367.072 86.4386 368.444C86.4386 369.802 85.5286 370.824 84.1566 370.824ZM93.0496 374.772H94.1836V370.824H94.1976C94.7016 371.608 95.5416 372.084 96.6196 372.084C98.4956 372.084 99.9376 370.712 99.9376 368.64C99.9376 366.624 98.5516 365.098 96.6196 365.098C95.5836 365.098 94.7156 365.574 94.1976 366.386H94.1836V365.182H93.0496V374.772ZM96.4656 371.048C95.1636 371.048 94.1276 370.082 94.1276 368.64C94.1276 367.24 95.0656 366.134 96.4516 366.134C97.7396 366.134 98.7896 367.128 98.7896 368.64C98.7896 370.012 97.8376 371.048 96.4656 371.048ZM107.551 368.472C107.551 366.526 106.277 365.098 104.415 365.098C102.469 365.098 101.055 366.54 101.055 368.598C101.055 370.684 102.483 372.084 104.499 372.084C105.871 372.084 106.725 371.566 107.313 370.81L106.515 370.138C106.095 370.656 105.451 371.048 104.541 371.048C103.253 371.048 102.357 370.208 102.203 368.934H107.523C107.523 368.85 107.551 368.654 107.551 368.472ZM104.401 366.134C105.521 366.134 106.249 366.89 106.417 368.01H102.231C102.441 366.848 103.309 366.134 104.401 366.134ZM109.054 372H110.188V368.71C110.188 367.338 110.958 366.344 112.26 366.344C112.372 366.344 112.54 366.358 112.708 366.372V365.112C112.61 365.098 112.526 365.098 112.428 365.098C111.49 365.098 110.706 365.602 110.216 366.428H110.188V365.182H109.054V372ZM114.487 363.936C114.949 363.936 115.313 363.572 115.313 363.124C115.313 362.676 114.949 362.312 114.487 362.312C114.025 362.312 113.661 362.676 113.661 363.124C113.661 363.572 114.025 363.936 114.487 363.936ZM113.913 372H115.047V365.182H113.913V372ZM120.195 372.084C122.211 372.084 123.709 370.67 123.709 368.598C123.709 366.526 122.211 365.098 120.195 365.098C118.081 365.098 116.667 366.638 116.667 368.598C116.667 370.558 118.081 372.084 120.195 372.084ZM120.195 371.048C118.781 371.048 117.829 369.956 117.829 368.598C117.829 367.24 118.767 366.134 120.195 366.134C121.511 366.134 122.547 367.142 122.547 368.598C122.547 370.054 121.497 371.048 120.195 371.048ZM128.138 372.084C129.244 372.084 130.112 371.566 130.602 370.74H130.616V372H131.708V361.696H130.574V366.4H130.56C130.042 365.574 129.16 365.098 128.124 365.098C126.206 365.098 124.792 366.624 124.792 368.64C124.792 370.712 126.248 372.084 128.138 372.084ZM128.292 371.048C126.906 371.048 125.954 370.012 125.954 368.64C125.954 367.128 127.004 366.134 128.306 366.134C129.678 366.134 130.616 367.24 130.616 368.64C130.616 370.082 129.58 371.048 128.292 371.048ZM134.198 366.75C134.66 366.75 135.024 366.386 135.024 365.924C135.024 365.462 134.66 365.098 134.198 365.098C133.736 365.098 133.358 365.462 133.358 365.924C133.358 366.386 133.736 366.75 134.198 366.75ZM134.198 372.098C134.66 372.098 135.024 371.734 135.024 371.272C135.024 370.81 134.66 370.446 134.198 370.446C133.736 370.446 133.358 370.81 133.358 371.272C133.358 371.734 133.736 372.098 134.198 372.098ZM143.466 372.084C145.202 372.084 146.798 371.104 146.798 369.284C146.798 367.422 145.384 366.974 143.718 366.316C142.472 365.84 141.576 365.49 141.59 364.538C141.604 363.586 142.43 363.082 143.368 363.082C144.11 363.082 144.964 363.432 145.762 364.09L146.504 363.124C145.566 362.368 144.474 361.962 143.368 361.962C141.66 361.962 140.33 363.11 140.33 364.594C140.33 366.344 141.828 366.974 143.298 367.52C144.628 368.024 145.524 368.318 145.524 369.424C145.524 370.39 144.698 370.95 143.48 370.95C142.514 370.95 141.45 370.502 140.736 369.606L139.952 370.544C140.946 371.608 142.22 372.084 143.466 372.084ZM154.451 368.472C154.451 366.526 153.177 365.098 151.315 365.098C149.369 365.098 147.955 366.54 147.955 368.598C147.955 370.684 149.383 372.084 151.399 372.084C152.771 372.084 153.625 371.566 154.213 370.81L153.415 370.138C152.995 370.656 152.351 371.048 151.441 371.048C150.153 371.048 149.257 370.208 149.103 368.934H154.423C154.423 368.85 154.451 368.654 154.451 368.472ZM151.301 366.134C152.421 366.134 153.149 366.89 153.317 368.01H149.131C149.341 366.848 150.209 366.134 151.301 366.134ZM155.954 374.772H157.088V370.824H157.102C157.606 371.608 158.446 372.084 159.524 372.084C161.4 372.084 162.842 370.712 162.842 368.64C162.842 366.624 161.456 365.098 159.524 365.098C158.488 365.098 157.62 365.574 157.102 366.386H157.088V365.182H155.954V374.772ZM159.37 371.048C158.068 371.048 157.032 370.082 157.032 368.64C157.032 367.24 157.97 366.134 159.356 366.134C160.644 366.134 161.694 367.128 161.694 368.64C161.694 370.012 160.742 371.048 159.37 371.048ZM169.756 372H170.932V362.382H169.952L167.264 364.37L167.838 365.252L169.756 363.796V372ZM176.457 368.248H180.601V367.128H176.457V368.248ZM186.101 372H189.111C192.289 372 194.235 369.97 194.235 367.044C194.235 364.104 192.219 362.06 189.069 362.06H186.101V372ZM187.319 370.894V363.166H189.083C191.407 363.166 192.975 364.776 192.975 367.044C192.975 369.284 191.463 370.894 189.041 370.894H187.319ZM201.993 368.472C201.993 366.526 200.719 365.098 198.857 365.098C196.911 365.098 195.497 366.54 195.497 368.598C195.497 370.684 196.925 372.084 198.941 372.084C200.313 372.084 201.167 371.566 201.755 370.81L200.957 370.138C200.537 370.656 199.893 371.048 198.983 371.048C197.695 371.048 196.799 370.208 196.645 368.934H201.965C201.965 368.85 201.993 368.654 201.993 368.472ZM198.843 366.134C199.963 366.134 200.691 366.89 200.859 368.01H196.673C196.883 366.848 197.751 366.134 198.843 366.134ZM206.464 372.084C207.794 372.084 208.704 371.58 209.278 370.894L208.494 370.18C208.074 370.698 207.36 371.048 206.548 371.048C205.162 371.048 204.224 370.054 204.224 368.598C204.224 367.156 205.162 366.134 206.562 366.134C207.374 366.134 208.046 366.498 208.48 367.002L209.25 366.316C208.578 365.518 207.528 365.098 206.506 365.098C204.476 365.098 203.062 366.54 203.062 368.598C203.062 370.67 204.476 372.084 206.464 372.084ZM216.881 372.084C218.659 372.084 219.989 371.02 219.989 369.424C219.989 368.276 219.345 367.408 218.323 367.016V366.974C219.233 366.582 219.737 365.714 219.737 364.818C219.737 363.222 218.421 362.298 216.783 362.298C215.397 362.298 214.417 362.942 213.913 363.824L214.865 364.356C215.243 363.796 215.803 363.39 216.755 363.39C217.763 363.39 218.547 364.02 218.547 364.972C218.547 365.742 218.043 366.512 216.811 366.512H215.873V367.52H216.671C218.099 367.52 218.785 368.332 218.785 369.256C218.785 370.306 217.917 370.992 216.797 370.992C215.677 370.992 214.949 370.488 214.613 369.718L213.591 370.18C214.067 371.286 215.243 372.084 216.881 372.084ZM223.304 372H224.48V362.382H223.5L220.812 364.37L221.386 365.252L223.304 363.796V372Z" fill="#999999"/>
<g filter="url(#filter0_d)">
<circle cx="208" cy="421" r="19" fill="white"/>
</g>
<circle cx="208" cy="421" r="16" fill="#68758F"/>
<path d="M201.354 422.604L205.085 426.335C205.177 426.427 205.323 426.427 205.406 426.335L214.646 417.104" stroke="white" stroke-width="2" stroke-miterlimit="10" stroke-linecap="round"/>
<path d="M351.627 88H358.923V86.736H353.019V82.976H357.579V81.712H353.019V77.904H358.587V76.64H351.627V88ZM364.012 88.096C365.276 88.096 366.268 87.504 366.828 86.56H366.844V88H368.092V76.224H366.796V81.6H366.78C366.188 80.656 365.18 80.112 363.996 80.112C361.804 80.112 360.188 81.856 360.188 84.16C360.188 86.528 361.852 88.096 364.012 88.096ZM364.188 86.912C362.604 86.912 361.516 85.728 361.516 84.16C361.516 82.432 362.716 81.296 364.204 81.296C365.772 81.296 366.844 82.56 366.844 84.16C366.844 85.808 365.66 86.912 364.188 86.912ZM371.265 78.784C371.793 78.784 372.209 78.368 372.209 77.856C372.209 77.344 371.793 76.928 371.265 76.928C370.737 76.928 370.321 77.344 370.321 77.856C370.321 78.368 370.737 78.784 371.265 78.784ZM370.609 88H371.905V80.208H370.609V88ZM376.627 88.096C377.555 88.096 378.083 87.872 378.515 87.616L378.179 86.48C377.795 86.688 377.315 86.88 376.851 86.88C376.115 86.88 375.907 86.432 375.907 85.488V81.328H378.483V80.208H375.907V77.408L374.611 77.552V80.208H373.603V81.328H374.611V85.68C374.611 87.248 375.251 88.096 376.627 88.096Z" fill="#4C4C4C"/>
<path d="M20 20H395V63H20V20Z" fill="white"/>
<path opacity="0.35" d="M358.667 36.833H375.333C376.53 36.833 377.5 37.8031 377.5 38.9997V44.9997C377.5 46.1963 376.53 47.1663 375.333 47.1663H358.667C357.47 47.1663 356.5 46.1963 356.5 44.9997V38.9997C356.5 37.8031 357.47 36.833 358.667 36.833Z" stroke="black"/>
<path opacity="0.4" d="M379 39.9995V43.9995C379.805 43.6607 380.328 42.8726 380.328 41.9995C380.328 41.1264 379.805 40.3383 379 39.9995" fill="black"/>
<path d="M358 39.6663C358 38.93 358.597 38.333 359.333 38.333H374.667C375.403 38.333 376 38.93 376 39.6663V44.333C376 45.0694 375.403 45.6663 374.667 45.6663H359.333C358.597 45.6663 358 45.0694 358 44.333V39.6663Z" fill="black"/>
<path fill-rule="evenodd" clip-rule="evenodd" d="M343.33 38.6084C345.546 38.6085 347.677 39.4599 349.283 40.9867C349.404 41.1046 349.597 41.1031 349.716 40.9834L350.872 39.8167C350.933 39.756 350.966 39.6737 350.966 39.5882C350.965 39.5026 350.931 39.4207 350.87 39.3607C346.655 35.3212 340.005 35.3212 335.79 39.3607C335.729 39.4207 335.694 39.5025 335.693 39.5881C335.693 39.6737 335.726 39.7559 335.787 39.8167L336.943 40.9834C337.062 41.1033 337.255 41.1048 337.376 40.9867C338.982 39.4598 341.114 38.6084 343.33 38.6084ZM343.33 42.404C344.547 42.404 345.721 42.8565 346.624 43.6737C346.746 43.7897 346.938 43.7872 347.057 43.668L348.212 42.5014C348.273 42.4402 348.307 42.3572 348.306 42.2709C348.305 42.1846 348.269 42.1023 348.207 42.0424C345.459 39.486 341.203 39.486 338.455 42.0424C338.393 42.1023 338.357 42.1847 338.357 42.271C338.356 42.3573 338.39 42.4403 338.451 42.5014L339.605 43.668C339.724 43.7872 339.916 43.7897 340.038 43.6737C340.94 42.857 342.113 42.4046 343.33 42.404ZM345.643 44.9579C345.645 45.0444 345.611 45.1278 345.549 45.1884L343.552 47.204C343.493 47.2633 343.413 47.2966 343.33 47.2966C343.247 47.2966 343.167 47.2633 343.108 47.204L341.111 45.1884C341.049 45.1277 341.015 45.0443 341.017 44.9578C341.019 44.8713 341.056 44.7894 341.12 44.7314C342.396 43.6525 344.264 43.6525 345.54 44.7314C345.604 44.7894 345.641 44.8714 345.643 44.9579Z" fill="black"/>
<path fill-rule="evenodd" clip-rule="evenodd" d="M329.667 36.667H328.667C328.115 36.667 327.667 37.1147 327.667 37.667V46.3337C327.667 46.8859 328.115 47.3337 328.667 47.3337H329.667C330.219 47.3337 330.667 46.8859 330.667 46.3337V37.667C330.667 37.1147 330.219 36.667 329.667 36.667ZM324 39.0003H325C325.553 39.0003 326 39.448 326 40.0003V46.3337C326 46.8859 325.553 47.3337 325 47.3337H324C323.448 47.3337 323 46.8859 323 46.3337V40.0003C323 39.448 323.448 39.0003 324 39.0003ZM320.334 41.3337H319.334C318.781 41.3337 318.334 41.7814 318.334 42.3337V46.3337C318.334 46.8859 318.781 47.3337 319.334 47.3337H320.334C320.886 47.3337 321.334 46.8859 321.334 46.3337V42.3337C321.334 41.7814 320.886 41.3337 320.334 41.3337ZM315.667 43.3337H314.667C314.115 43.3337 313.667 43.7814 313.667 44.3337V46.3337C313.667 46.8859 314.115 47.3337 314.667 47.3337H315.667C316.219 47.3337 316.667 46.8859 316.667 46.3337V44.3337C316.667 43.7814 316.219 43.3337 315.667 43.3337Z" fill="black"/>
<path d="M57.2841 47.2563C59.9721 47.2563 61.5688 45.1543 61.5688 41.5947C61.5688 38.1011 59.8695 36.1675 57.3427 36.1675C55.0429 36.1675 53.4169 37.7129 53.4169 39.8809C53.4169 41.9097 54.8817 43.3892 56.8959 43.3892C58.1337 43.3892 59.1371 42.8179 59.6352 41.8145H59.7597C59.7377 44.2607 58.8515 45.6743 57.3061 45.6743C56.3979 45.6743 55.6728 45.1836 55.4457 44.3926H53.5634C53.871 46.1211 55.3505 47.2563 57.2841 47.2563ZM57.35 41.895C56.1195 41.895 55.2699 41.0454 55.2699 39.8223C55.2699 38.6431 56.1635 37.7422 57.3573 37.7422C58.5512 37.7422 59.4447 38.6577 59.4447 39.8589C59.4447 41.0381 58.5731 41.895 57.35 41.895ZM64.5866 45.5425C65.2824 45.5425 65.7585 45.0444 65.7585 44.3853C65.7585 43.7188 65.2824 43.228 64.5866 43.228C63.8981 43.228 63.4147 43.7188 63.4147 44.3853C63.4147 45.0444 63.8981 45.5425 64.5866 45.5425ZM64.5866 40.1958C65.2824 40.1958 65.7585 39.7051 65.7585 39.0459C65.7585 38.3794 65.2824 37.8887 64.5866 37.8887C63.8981 37.8887 63.4147 38.3794 63.4147 39.0459C63.4147 39.7051 63.8981 40.1958 64.5866 40.1958ZM72.7607 47H74.5698V44.9858H75.998V43.3892H74.5698V36.4312H71.9038C70.4683 38.6138 68.9668 41.0234 67.5972 43.4111V44.9858H72.7607V47ZM69.3477 43.3306C70.3804 41.5508 71.6035 39.6099 72.6875 37.9692H72.79V43.4331H69.3477V43.3306ZM80.0267 47H81.9163V36.4312H80.034L77.2728 38.3647V40.1812L79.9021 38.3354H80.0267V47Z" fill="black"/>
<rect x="20" y="63" width="375" height="44" fill="white"/>
<path d="M43.2918 80.0002L52.9007 89.3532L52.2737 90L42 79.9999L52.2824 70L52.9091 70.6471L43.2918 80.0002Z" fill="#4C4C4C"/>
<path d="M172.932 85.128C174.756 85.128 176.852 84.072 176.852 81.72C176.852 79.528 175.284 79 173.332 78.232C171.956 77.704 171.188 77.416 171.204 76.584C171.22 75.736 171.924 75.256 172.804 75.256C173.572 75.256 174.484 75.656 175.412 76.424L176.564 74.904C175.412 73.992 174.148 73.512 172.804 73.512C170.836 73.512 169.204 74.904 169.204 76.68C169.204 78.76 170.916 79.528 172.644 80.136C174.084 80.648 174.836 80.968 174.836 81.96C174.836 82.792 174.196 83.336 172.948 83.336C171.972 83.336 170.852 82.84 170.036 81.848L168.82 83.336C170.004 84.568 171.476 85.128 172.932 85.128ZM185.906 81C185.906 78.728 184.418 77.08 182.226 77.08C179.938 77.08 178.306 78.696 178.306 81.096C178.306 83.544 179.986 85.128 182.354 85.128C184.034 85.128 185.01 84.504 185.666 83.656L184.418 82.584C184.018 83.08 183.378 83.496 182.45 83.496C181.234 83.496 180.386 82.824 180.162 81.688H185.858C185.874 81.56 185.906 81.288 185.906 81ZM182.21 78.696C183.234 78.696 183.874 79.336 184.098 80.28H180.194C180.45 79.256 181.218 78.696 182.21 78.696ZM187.866 85H189.658V73.224H187.866V85ZM192.225 85H194.017V73.224H192.225V85ZM203.609 81C203.609 78.728 202.121 77.08 199.929 77.08C197.641 77.08 196.009 78.696 196.009 81.096C196.009 83.544 197.689 85.128 200.057 85.128C201.737 85.128 202.713 84.504 203.369 83.656L202.121 82.584C201.721 83.08 201.081 83.496 200.153 83.496C198.937 83.496 198.089 82.824 197.865 81.688H203.561C203.577 81.56 203.609 81.288 203.609 81ZM199.913 78.696C200.937 78.696 201.577 79.336 201.801 80.28H197.897C198.153 79.256 198.921 78.696 199.913 78.696ZM205.457 85H207.249V81.304C207.249 80.024 208.017 79.048 209.377 79.048C209.505 79.048 209.713 79.064 209.921 79.08V77.08H209.697C208.753 77.08 207.889 77.544 207.281 78.36H207.249V77.192H205.457V85ZM218.011 85.128C219.035 85.128 219.531 84.92 219.995 84.664L219.531 83.112C219.115 83.336 218.683 83.448 218.379 83.448C217.867 83.448 217.627 83.16 217.627 82.36V78.712H219.915V77.192H217.627V74.408L215.835 74.6V77.192H214.875V78.712H215.835V82.536C215.835 84.28 216.667 85.128 218.011 85.128ZM222.543 76.04C223.215 76.04 223.759 75.496 223.759 74.84C223.759 74.2 223.215 73.656 222.543 73.656C221.871 73.656 221.343 74.2 221.343 74.84C221.343 75.496 221.871 76.04 222.543 76.04ZM221.647 85H223.439V77.192H221.647V85ZM233.031 81C233.031 78.728 231.543 77.08 229.351 77.08C227.063 77.08 225.431 78.696 225.431 81.096C225.431 83.544 227.111 85.128 229.479 85.128C231.159 85.128 232.135 84.504 232.791 83.656L231.543 82.584C231.143 83.08 230.503 83.496 229.575 83.496C228.359 83.496 227.511 82.824 227.287 81.688H232.983C232.999 81.56 233.031 81.288 233.031 81ZM229.335 78.696C230.359 78.696 230.999 79.336 231.223 80.28H227.319C227.575 79.256 228.343 78.696 229.335 78.696ZM234.879 85H236.671V81.304C236.671 80.024 237.439 79.048 238.799 79.048C238.927 79.048 239.135 79.064 239.343 79.08V77.08H239.119C238.175 77.08 237.311 77.544 236.703 78.36H236.671V77.192H234.879V85ZM243.328 85.128C245.312 85.128 246.24 84.072 246.24 82.76C246.24 81.208 245.2 80.904 243.536 80.248C242.784 79.96 242.304 79.688 242.304 79.304C242.304 78.824 242.8 78.632 243.152 78.632C243.76 78.632 244.48 78.872 245.104 79.464L246 78.056C245.136 77.352 244.24 77.08 243.248 77.08C241.648 77.08 240.496 78.008 240.496 79.288C240.496 80.824 241.6 81.4 242.88 81.848C243.904 82.2 244.416 82.392 244.416 82.792C244.416 83.256 244.016 83.56 243.328 83.56C242.368 83.56 241.696 83.256 241.072 82.648L240.176 83.992C240.992 84.712 242.064 85.128 243.328 85.128Z" fill="#4C4C4C"/>
<rect x="20" y="106.5" width="375" height="0.5" fill="#CDCED2"/>
</g>
<defs>
<filter id="filter0_d" x="185" y="398" width="46" height="46" filterUnits="userSpaceOnUse" color-interpolation-filters="sRGB">
<feFlood flood-opacity="0" result="BackgroundImageFix"/>
<feColorMatrix in="SourceAlpha" type="matrix" values="0 0 0 0 0 0 0 0 0 0 0 0 0 0 0 0 0 0 127 0"/>
<feOffset/>
<feGaussianBlur stdDeviation="2"/>
<feColorMatrix type="matrix" values="0 0 0 0 0 0 0 0 0 0 0 0 0 0 0 0 0 0 0.24 0"/>
<feBlend mode="normal" in2="BackgroundImageFix" result="effect1_dropShadow"/>
<feBlend mode="normal" in="SourceGraphic" in2="effect1_dropShadow" result="shape"/>
</filter>
<clipPath id="clip0">
<rect x="20" y="20" width="375" height="877" rx="23" fill="white"/>
</clipPath>
</defs>
</svg>
