<svg width="415" height="917" viewBox="0 0 415 917" fill="none" xmlns="http://www.w3.org/2000/svg">
<rect width="415" height="917" rx="40" fill="#F5F5F6"/>
<g clip-path="url(#clip0)">
<rect x="20" y="20" width="375" height="877" rx="22" fill="white"/>
<line x1="40" y1="376.75" x2="375" y2="376.75" stroke="#CDCED2" stroke-width="0.5"/>
<rect x="40" y="249" width="335" height="96" fill="#F5F5F6"/>
<path d="M121.408 292H122.816V283.344H122.832L126.528 289.712H127.472L131.168 283.344H131.2V292H132.592V280.64H131.2L127.024 287.984H126.992L122.816 280.64H121.408V292ZM138.256 292.096C139.52 292.096 140.48 291.52 141.04 290.592H141.056V292H142.304V284.208H141.008V285.584L140.976 285.6C140.416 284.656 139.408 284.112 138.256 284.112C136.048 284.112 134.464 285.856 134.464 288.16C134.464 290.528 136.112 292.096 138.256 292.096ZM138.448 290.912C136.848 290.912 135.776 289.728 135.776 288.16C135.776 286.432 136.976 285.296 138.448 285.296C139.984 285.296 141.056 286.56 141.056 288.16C141.056 289.808 139.888 290.912 138.448 290.912ZM144.392 292H145.688V290.064L147.288 288.336L149.64 292H151.128L148.184 287.424L151.096 284.208H149.528L145.704 288.48L145.688 288.464V280.224H144.392V292ZM158.955 287.968C158.955 285.744 157.499 284.112 155.371 284.112C153.147 284.112 151.531 285.76 151.531 288.112C151.531 290.496 153.163 292.096 155.467 292.096C157.035 292.096 158.011 291.504 158.683 290.64L157.771 289.872C157.291 290.464 156.555 290.912 155.515 290.912C154.043 290.912 153.019 289.952 152.843 288.496H158.923C158.923 288.4 158.955 288.176 158.955 287.968ZM155.355 285.296C156.635 285.296 157.467 286.16 157.659 287.44H152.875C153.115 286.112 154.107 285.296 155.355 285.296ZM172.015 288.96C172.015 286.88 170.575 286.336 168.495 285.68C167.279 285.296 166.575 284.976 166.575 284.224C166.575 283.52 167.167 283.104 168.095 283.104C168.831 283.104 169.775 283.392 170.639 284.016L171.727 282.672C170.991 282.08 169.935 281.6 168.911 281.408V279.344H167.503V281.36C165.631 281.552 164.559 282.752 164.559 284.352C164.559 286.336 166.175 286.928 167.951 287.472C169.327 287.904 169.983 288.24 169.983 289.104C169.983 289.856 169.327 290.32 168.383 290.32C167.455 290.32 166.351 289.92 165.455 289.056L164.319 290.416C165.247 291.328 166.351 291.84 167.503 292V293.952H168.911V292.032C170.831 291.84 172.015 290.672 172.015 288.96ZM175.603 292H177.459V281.008H175.955L172.739 283.344L173.619 284.72L175.603 283.232V292ZM183.657 292.128C186.313 292.128 187.881 289.824 187.881 286.512C187.881 282.928 186.137 280.896 183.657 280.896C181.017 280.896 179.433 283.184 179.433 286.512C179.433 290.08 181.177 292.128 183.657 292.128ZM183.657 290.4C182.249 290.4 181.321 288.944 181.321 286.512C181.321 284.048 182.217 282.608 183.657 282.608C185.097 282.608 185.993 284.048 185.993 286.512C185.993 288.96 185.129 290.4 183.657 290.4ZM193.527 292.128C196.183 292.128 197.751 289.824 197.751 286.512C197.751 282.928 196.007 280.896 193.527 280.896C190.887 280.896 189.303 283.184 189.303 286.512C189.303 290.08 191.047 292.128 193.527 292.128ZM193.527 290.4C192.119 290.4 191.191 288.944 191.191 286.512C191.191 284.048 192.087 282.608 193.527 282.608C194.967 282.608 195.863 284.048 195.863 286.512C195.863 288.96 194.999 290.4 193.527 290.4ZM203.396 292.128C206.052 292.128 207.62 289.824 207.62 286.512C207.62 282.928 205.876 280.896 203.396 280.896C200.756 280.896 199.172 283.184 199.172 286.512C199.172 290.08 200.916 292.128 203.396 292.128ZM203.396 290.4C201.988 290.4 201.06 288.944 201.06 286.512C201.06 284.048 201.956 282.608 203.396 282.608C204.836 282.608 205.732 284.048 205.732 286.512C205.732 288.96 204.868 290.4 203.396 290.4ZM214.297 282.784C214.825 282.784 215.241 282.368 215.241 281.856C215.241 281.344 214.825 280.928 214.297 280.928C213.769 280.928 213.353 281.344 213.353 281.856C213.353 282.368 213.769 282.784 214.297 282.784ZM213.641 292H214.937V284.208H213.641V292ZM217.227 292H218.523V288.112C218.523 286.352 219.483 285.296 220.955 285.296C222.091 285.296 222.875 285.92 222.875 287.744V292H224.171V287.376C224.171 285.152 223.051 284.112 221.371 284.112C220.171 284.112 219.147 284.672 218.539 285.616H218.523V284.208H217.227V292ZM232.517 292.096C233.445 292.096 233.973 291.872 234.405 291.616L234.069 290.48C233.685 290.688 233.205 290.88 232.741 290.88C232.005 290.88 231.797 290.432 231.797 289.488V285.328H234.373V284.208H231.797V281.408L230.501 281.552V284.208H229.493V285.328H230.501V289.68C230.501 291.248 231.141 292.096 232.517 292.096ZM239.027 292.096C241.331 292.096 243.043 290.48 243.043 288.112C243.043 285.744 241.331 284.112 239.027 284.112C236.611 284.112 234.995 285.872 234.995 288.112C234.995 290.352 236.611 292.096 239.027 292.096ZM239.027 290.912C237.411 290.912 236.323 289.664 236.323 288.112C236.323 286.56 237.395 285.296 239.027 285.296C240.531 285.296 241.715 286.448 241.715 288.112C241.715 289.776 240.515 290.912 239.027 290.912ZM246.927 292.096C247.855 292.096 248.383 291.872 248.815 291.616L248.479 290.48C248.095 290.688 247.615 290.88 247.151 290.88C246.415 290.88 246.207 290.432 246.207 289.488V285.328H248.783V284.208H246.207V281.408L244.911 281.552V284.208H243.903V285.328H244.911V289.68C244.911 291.248 245.551 292.096 246.927 292.096ZM253.197 292.096C254.461 292.096 255.421 291.52 255.981 290.592H255.997V292H257.245V284.208H255.949V285.584L255.917 285.6C255.357 284.656 254.349 284.112 253.197 284.112C250.989 284.112 249.405 285.856 249.405 288.16C249.405 290.528 251.053 292.096 253.197 292.096ZM253.389 290.912C251.789 290.912 250.717 289.728 250.717 288.16C250.717 286.432 251.917 285.296 253.389 285.296C254.925 285.296 255.997 286.56 255.997 288.16C255.997 289.808 254.829 290.912 253.389 290.912ZM259.429 292H260.725V280.224H259.429V292ZM271.215 292.096C273.359 292.096 275.007 290.528 275.007 288.16C275.007 285.856 273.423 284.112 271.215 284.112C270.031 284.112 269.039 284.64 268.447 285.568H268.431V280.224H267.135V292H268.367V290.592H268.399C268.975 291.52 269.935 292.096 271.215 292.096ZM271.039 290.912C269.551 290.912 268.367 289.808 268.367 288.16C268.367 286.56 269.439 285.296 271.023 285.296C272.495 285.296 273.695 286.432 273.695 288.16C273.695 289.728 272.607 290.912 271.039 290.912ZM283.651 287.968C283.651 285.744 282.195 284.112 280.067 284.112C277.843 284.112 276.227 285.76 276.227 288.112C276.227 290.496 277.859 292.096 280.163 292.096C281.731 292.096 282.707 291.504 283.379 290.64L282.467 289.872C281.987 290.464 281.251 290.912 280.211 290.912C278.739 290.912 277.715 289.952 277.539 288.496H283.619C283.619 288.4 283.651 288.176 283.651 287.968ZM280.051 285.296C281.331 285.296 282.163 286.16 282.355 287.44H277.571C277.811 286.112 278.803 285.296 280.051 285.296ZM287.503 292.096C288.431 292.096 288.959 291.872 289.391 291.616L289.055 290.48C288.671 290.688 288.191 290.88 287.727 290.88C286.991 290.88 286.783 290.432 286.783 289.488V285.328H289.359V284.208H286.783V281.408L285.487 281.552V284.208H284.479V285.328H285.487V289.68C285.487 291.248 286.127 292.096 287.503 292.096ZM292.756 292H293.94L295.732 286.288H295.748L297.54 292H298.756L301.444 284.208H300.116L298.164 290.064H298.132L296.308 284.208H295.188L293.396 290.064H293.364L291.396 284.208H290.068L292.756 292ZM309.29 287.968C309.29 285.744 307.834 284.112 305.706 284.112C303.482 284.112 301.866 285.76 301.866 288.112C301.866 290.496 303.498 292.096 305.802 292.096C307.37 292.096 308.346 291.504 309.018 290.64L308.106 289.872C307.626 290.464 306.89 290.912 305.85 290.912C304.378 290.912 303.354 289.952 303.178 288.496H309.258C309.258 288.4 309.29 288.176 309.29 287.968ZM305.69 285.296C306.97 285.296 307.802 286.16 307.994 287.44H303.21C303.45 286.112 304.442 285.296 305.69 285.296ZM317.878 287.968C317.878 285.744 316.422 284.112 314.294 284.112C312.07 284.112 310.454 285.76 310.454 288.112C310.454 290.496 312.086 292.096 314.39 292.096C315.958 292.096 316.934 291.504 317.606 290.64L316.694 289.872C316.214 290.464 315.478 290.912 314.438 290.912C312.966 290.912 311.942 289.952 311.766 288.496H317.846C317.846 288.4 317.878 288.176 317.878 287.968ZM314.278 285.296C315.558 285.296 316.39 286.16 316.582 287.44H311.798C312.038 286.112 313.03 285.296 314.278 285.296ZM319.538 292H320.834V288.112C320.834 286.352 321.794 285.296 323.266 285.296C324.402 285.296 325.186 285.92 325.186 287.744V292H326.482V287.376C326.482 285.152 325.362 284.112 323.682 284.112C322.482 284.112 321.458 284.672 320.85 285.616H320.834V284.208H319.538V292ZM123.504 314.096C125.968 314.096 126.896 312.608 126.896 310.112V302.64H124.96V310.096C124.96 311.712 124.32 312.272 123.424 312.272C122.72 312.272 122 311.76 121.584 311.264L120.496 312.672C121.232 313.632 122.432 314.096 123.504 314.096ZM132.333 314.128C133.421 314.128 134.253 313.712 134.813 312.96L134.845 312.976V314H136.557V306.192H134.765V307.136L134.733 307.152C134.173 306.448 133.309 306.08 132.317 306.08C130.173 306.08 128.557 307.776 128.557 310.128C128.557 312.544 130.173 314.128 132.333 314.128ZM132.621 312.496C131.293 312.496 130.381 311.52 130.381 310.144C130.381 308.64 131.373 307.696 132.621 307.696C133.901 307.696 134.845 308.752 134.845 310.144C134.845 311.552 133.837 312.496 132.621 312.496ZM138.579 314H140.371V310.08C140.371 308.544 141.171 307.696 142.387 307.696C143.459 307.696 144.083 308.224 144.083 309.872V314H145.875V309.408C145.875 307.056 144.723 306.08 143.011 306.08C141.987 306.08 141.043 306.496 140.403 307.264H140.371V306.192H138.579V314ZM153.848 314H155.704V303.008H154.2L150.984 305.344L151.864 306.72L153.848 305.232V314ZM161.736 309.936H166.552V308.192H161.736V309.936ZM171.573 314H173.589L174.437 311.552H179.077L179.941 314H181.957L177.701 302.64H175.813L171.573 314ZM175.029 309.888L176.741 304.96H176.773L178.501 309.888H175.029ZM183.258 317.168H185.05V313.056L185.082 313.04C185.658 313.744 186.474 314.128 187.53 314.128C189.706 314.128 191.322 312.544 191.322 310.128C191.322 307.776 189.706 306.08 187.546 306.08C186.522 306.08 185.658 306.448 185.082 307.12H185.05V306.192H183.258V317.168ZM187.258 312.496C185.978 312.496 184.97 311.552 184.97 310.144C184.97 308.752 185.898 307.696 187.242 307.696C188.49 307.696 189.498 308.64 189.498 310.144C189.498 311.52 188.57 312.496 187.258 312.496ZM192.955 314H194.747V310.304C194.747 309.024 195.515 308.048 196.875 308.048C197.003 308.048 197.211 308.064 197.419 308.08V306.08H197.195C196.251 306.08 195.387 306.544 194.779 307.36H194.747V306.192H192.955V314ZM199.677 305.04C200.349 305.04 200.893 304.496 200.893 303.84C200.893 303.2 200.349 302.656 199.677 302.656C199.005 302.656 198.477 303.2 198.477 303.84C198.477 304.496 199.005 305.04 199.677 305.04ZM198.781 314H200.573V306.192H198.781V314ZM202.9 314H204.692V302.224H202.9V314ZM214.101 314.128C216.197 314.128 217.749 312.896 217.749 311.024C217.749 309.744 217.045 308.8 215.989 308.32V308.272C216.901 307.776 217.445 306.88 217.445 305.808C217.445 303.952 215.893 302.896 213.973 302.896C212.373 302.896 211.157 303.68 210.629 304.768L212.117 305.568C212.469 305.008 213.013 304.608 213.925 304.608C214.837 304.608 215.573 305.216 215.573 306.096C215.573 306.864 215.125 307.552 213.973 307.552H212.965V309.12H213.797C215.173 309.12 215.861 309.904 215.861 310.768C215.861 311.76 215.013 312.4 213.973 312.4C212.869 312.4 212.165 311.904 211.829 311.088L210.229 311.792C210.773 313.136 212.181 314.128 214.101 314.128ZM221.49 314H223.346V303.008H221.842L218.626 305.344L219.506 306.72L221.49 305.232V314ZM232.015 314.096C232.943 314.096 233.471 313.872 233.903 313.616L233.567 312.48C233.183 312.688 232.703 312.88 232.239 312.88C231.503 312.88 231.295 312.432 231.295 311.488V307.328H233.871V306.208H231.295V303.408L229.999 303.552V306.208H228.991V307.328H229.999V311.68C229.999 313.248 230.639 314.096 232.015 314.096ZM238.526 314.096C240.83 314.096 242.542 312.48 242.542 310.112C242.542 307.744 240.83 306.112 238.526 306.112C236.11 306.112 234.494 307.872 234.494 310.112C234.494 312.352 236.11 314.096 238.526 314.096ZM238.526 312.912C236.91 312.912 235.822 311.664 235.822 310.112C235.822 308.56 236.894 307.296 238.526 307.296C240.03 307.296 241.214 308.448 241.214 310.112C241.214 311.776 240.014 312.912 238.526 312.912ZM248.275 314H249.571V312.064L251.171 310.336L253.523 314H255.011L252.067 309.424L254.979 306.208H253.411L249.587 310.48L249.571 310.464V302.224H248.275V314ZM262.838 309.968C262.838 307.744 261.382 306.112 259.254 306.112C257.03 306.112 255.414 307.76 255.414 310.112C255.414 312.496 257.046 314.096 259.35 314.096C260.918 314.096 261.894 313.504 262.566 312.64L261.654 311.872C261.174 312.464 260.438 312.912 259.398 312.912C257.926 312.912 256.902 311.952 256.726 310.496H262.806C262.806 310.4 262.838 310.176 262.838 309.968ZM259.238 307.296C260.518 307.296 261.35 308.16 261.542 309.44H256.758C256.998 308.112 257.99 307.296 259.238 307.296ZM271.427 309.968C271.427 307.744 269.971 306.112 267.843 306.112C265.619 306.112 264.003 307.76 264.003 310.112C264.003 312.496 265.635 314.096 267.939 314.096C269.507 314.096 270.483 313.504 271.155 312.64L270.243 311.872C269.763 312.464 269.027 312.912 267.987 312.912C266.515 312.912 265.491 311.952 265.315 310.496H271.395C271.395 310.4 271.427 310.176 271.427 309.968ZM267.827 307.296C269.107 307.296 269.939 308.16 270.131 309.44H265.347C265.587 308.112 266.579 307.296 267.827 307.296ZM273.087 317.168H274.383V312.656H274.399C274.975 313.552 275.935 314.096 277.167 314.096C279.311 314.096 280.959 312.528 280.959 310.16C280.959 307.856 279.375 306.112 277.167 306.112C275.983 306.112 274.991 306.656 274.399 307.584H274.383V306.208H273.087V317.168ZM276.991 312.912C275.503 312.912 274.319 311.808 274.319 310.16C274.319 308.56 275.391 307.296 276.975 307.296C278.447 307.296 279.647 308.432 279.647 310.16C279.647 311.728 278.559 312.912 276.991 312.912ZM286.892 314H288.828V309.952H290.78C293.228 309.952 294.892 308.784 294.892 306.32C294.892 304.208 293.724 302.64 291.004 302.64H286.892V314ZM288.828 308.208V304.368H290.732C292.124 304.368 292.892 305.088 292.892 306.288C292.892 307.408 292.172 308.208 290.588 308.208H288.828ZM296.602 314H298.394V302.224H296.602V314ZM303.906 314.128C304.994 314.128 305.826 313.712 306.386 312.96L306.418 312.976V314H308.13V306.192H306.338V307.136L306.306 307.152C305.746 306.448 304.882 306.08 303.89 306.08C301.746 306.08 300.13 307.776 300.13 310.128C300.13 312.544 301.746 314.128 303.906 314.128ZM304.194 312.496C302.866 312.496 301.954 311.52 301.954 310.144C301.954 308.64 302.946 307.696 304.194 307.696C305.474 307.696 306.418 308.752 306.418 310.144C306.418 311.552 305.41 312.496 304.194 312.496ZM312.471 314.128C313.495 314.128 313.991 313.92 314.455 313.664L313.991 312.112C313.575 312.336 313.143 312.448 312.839 312.448C312.327 312.448 312.087 312.16 312.087 311.36V307.712H314.375V306.192H312.087V303.408L310.295 303.6V306.192H309.335V307.712H310.295V311.536C310.295 313.28 311.127 314.128 312.471 314.128ZM316.763 305.04C317.435 305.04 317.979 304.496 317.979 303.84C317.979 303.2 317.435 302.656 316.763 302.656C316.091 302.656 315.563 303.2 315.563 303.84C315.563 304.496 316.091 305.04 316.763 305.04ZM315.867 314H317.659V306.192H315.867V314ZM319.874 314H321.666V310.08C321.666 308.544 322.466 307.696 323.682 307.696C324.754 307.696 325.378 308.224 325.378 309.872V314H327.17V309.408C327.17 307.056 326.018 306.08 324.306 306.08C323.282 306.08 322.338 306.496 321.698 307.264H321.666V306.192H319.874V314ZM331.887 314.128C332.783 314.128 333.647 313.76 334.271 313.008L334.303 313.024V314H336.095V306.192H334.303V309.936C334.303 311.616 333.343 312.496 332.303 312.496C331.231 312.496 330.751 312.016 330.751 310.464V306.192H328.959V310.944C328.959 313.264 330.159 314.128 331.887 314.128ZM338.129 314H339.921V310.112C339.921 308.576 340.721 307.696 341.793 307.696C342.849 307.696 343.345 308.528 343.345 309.936V314H345.137V310.112C345.137 308.576 345.953 307.696 346.961 307.696C348.017 307.696 348.481 308.528 348.481 309.936V314H350.273V309.488C350.273 307.152 349.249 306.08 347.537 306.08C346.385 306.08 345.393 306.528 344.737 307.376H344.705C344.241 306.496 343.425 306.08 342.369 306.08C341.473 306.08 340.577 306.496 339.937 307.264H339.921V306.192H338.129V314Z" fill="#4C4C4C"/>
<path d="M88.8922 312.582C87.1753 313.136 85.403 313.468 83.4645 313.468C74.0491 313.468 66.4614 305.88 66.4614 296.465C66.4614 287.05 74.1045 279.462 83.4645 279.462C92.8245 279.462 100.468 287.05 100.468 296.465C100.468 298.791 100.025 301.007 99.1384 303.056" fill="white"/>
<path d="M88.8922 312.582C87.1753 313.136 85.403 313.468 83.4645 313.468C74.0491 313.468 66.4614 305.88 66.4614 296.465C66.4614 287.05 74.1045 279.462 83.4645 279.462C92.8245 279.462 100.468 287.05 100.468 296.465C100.468 298.791 100.025 301.007 99.1384 303.056" stroke="black" stroke-width="1.10769"/>
<path d="M84.295 295.856C84.295 295.856 84.0735 281.677 84.0735 281.068C93.1566 281.788 96.5904 288.434 96.5904 288.434L84.295 295.856Z" fill="#5E6DF2"/>
<path d="M88.8921 312.637C87.2305 313.191 85.4582 313.468 83.6305 313.468C74.2151 313.468 66.6274 305.825 66.6274 296.465C66.6274 287.105 74.2705 279.461 83.6305 279.461C92.9905 279.461 100.689 287.049 100.689 296.465C100.689 298.846 99.8582 301.449 99.0274 303.498" stroke="black" stroke-width="1.17282"/>
<path d="M68.3445 295.855H69.8399" stroke="black" stroke-width="1.10769" stroke-linecap="round"/>
<path d="M96.9229 295.855H98.3629" stroke="black" stroke-width="1.10769" stroke-linecap="round"/>
<path d="M70.0613 303.444L71.2797 302.724" stroke="black" stroke-width="1.10769" stroke-linecap="round"/>
<path d="M75.2676 309.203L75.9876 307.929" stroke="black" stroke-width="1.10769" stroke-linecap="round"/>
<path d="M89.5564 284.446L90.2764 283.228" stroke="black" stroke-width="1.10769" stroke-linecap="round"/>
<path d="M84.1846 281.566V295.856" stroke="black" stroke-width="1.10769" stroke-linecap="round"/>
<path d="M84.1846 310.199V311.639" stroke="black" stroke-width="1.10769" stroke-linecap="round"/>
<path d="M84.2949 295.799L96.0918 288.488" stroke="black" stroke-width="1.10769" stroke-linecap="round"/>
<path d="M76.5413 283.282L77.3166 284.556" stroke="black" stroke-width="1.10769" stroke-linecap="round"/>
<path d="M70.7812 288.434L72.0551 289.209" stroke="black" stroke-width="1.10769" stroke-linecap="round"/>
<path d="M98.5958 303.339C99.9041 304.543 100.689 306.27 100.689 308.206C100.689 311.869 97.7061 314.852 94.0429 314.852C90.3796 314.852 87.3967 311.869 87.3967 308.206C87.3967 304.543 90.3796 301.56 94.0429 301.56C95.7698 301.56 97.3921 302.24 98.5958 303.339Z" fill="#5E6DF2" stroke="black" stroke-width="1.10769"/>
<path d="M95.5177 306.652C95.3869 305.867 94.7019 305.268 93.8799 305.268C92.9624 305.268 92.2192 305.872 92.2192 306.789C92.2192 307.707 93.0496 308.122 93.8799 308.311" stroke="white" stroke-width="1.10769" stroke-miterlimit="10" stroke-linecap="round"/>
<path d="M92.2192 309.696C92.2192 310.614 92.9624 311.357 93.8799 311.357C94.7974 311.357 95.5405 310.753 95.5405 309.836C95.5405 308.918 94.7102 308.501 93.8799 308.314" stroke="white" stroke-width="1.10769" stroke-miterlimit="10" stroke-linecap="round"/>
<path d="M93.8799 305.268V304.161" stroke="white" stroke-width="1.10769" stroke-miterlimit="10" stroke-linecap="round"/>
<path d="M93.8799 312.465V311.358" stroke="white" stroke-width="1.10769" stroke-miterlimit="10" stroke-linecap="round"/>
<rect x="20" y="377" width="375" height="54" fill="white"/>
<path d="M45.02 421H47.44V414.72L52.22 406.8H49.42L46.26 412.3H46.22L43.04 406.8H40.28L45.02 414.72V421ZM55.9459 421.16C58.9459 421.16 61.0659 419.1 61.0659 416.14C61.0659 413.14 58.9459 411.1 55.9459 411.1C52.8659 411.1 50.8259 413.26 50.8259 416.14C50.8259 419 52.8659 421.16 55.9459 421.16ZM55.9459 419.12C54.2659 419.12 53.1059 417.8 53.1059 416.14C53.1059 414.44 54.2459 413.12 55.9459 413.12C57.5459 413.12 58.7859 414.34 58.7859 416.14C58.7859 417.9 57.5259 419.12 55.9459 419.12ZM66.2181 421.16C67.3381 421.16 68.4181 420.7 69.1981 419.76L69.2381 419.78V421H71.4781V411.24H69.2381V415.92C69.2381 418.02 68.0381 419.12 66.7381 419.12C65.3981 419.12 64.7981 418.52 64.7981 416.58V411.24H62.5581V417.18C62.5581 420.08 64.0581 421.16 66.2181 421.16ZM73.6806 421H75.9206V416.38C75.9206 414.78 76.8806 413.56 78.5806 413.56C78.7406 413.56 79.0006 413.58 79.2606 413.6V411.1H78.9806C77.8006 411.1 76.7206 411.68 75.9606 412.7H75.9206V411.24H73.6806V421ZM84.9136 423.94H89.3936V422.2H86.8936V408.08H89.3936V406.36H84.9136V423.94ZM91.3537 421H93.5937V406.28H91.3537V421ZM104.943 416C104.943 413.16 103.083 411.1 100.343 411.1C97.483 411.1 95.443 413.12 95.443 416.12C95.443 419.18 97.543 421.16 100.503 421.16C102.603 421.16 103.823 420.38 104.643 419.32L103.083 417.98C102.583 418.6 101.783 419.12 100.623 419.12C99.103 419.12 98.043 418.28 97.763 416.86H104.883C104.903 416.7 104.943 416.36 104.943 416ZM100.323 413.12C101.603 413.12 102.403 413.92 102.683 415.1H97.803C98.123 413.82 99.083 413.12 100.323 413.12ZM108.867 421H111.007L114.887 411.24H112.507L109.967 418.2H109.947L107.407 411.24H105.007L108.867 421ZM124.425 416C124.425 413.16 122.565 411.1 119.825 411.1C116.965 411.1 114.925 413.12 114.925 416.12C114.925 419.18 117.025 421.16 119.985 421.16C122.085 421.16 123.305 420.38 124.125 419.32L122.565 417.98C122.065 418.6 121.265 419.12 120.105 419.12C118.585 419.12 117.525 418.28 117.245 416.86H124.365C124.385 416.7 124.425 416.36 124.425 416ZM119.805 413.12C121.085 413.12 121.885 413.92 122.165 415.1H117.285C117.605 413.82 118.565 413.12 119.805 413.12ZM126.235 421H128.475V406.28H126.235V421ZM134.924 423.94V406.36H130.444V408.08H132.944V422.2H130.444V423.94H134.924ZM146.976 421.16C149.696 421.16 151.716 419.18 151.716 416.16C151.716 413.22 149.696 411.1 146.996 411.1C145.716 411.1 144.656 411.54 143.896 412.4H143.876V406.28H141.636V421H143.776V419.7H143.816C144.536 420.64 145.576 421.16 146.976 421.16ZM146.636 419.12C145.036 419.12 143.776 417.94 143.776 416.18C143.776 414.44 144.936 413.12 146.616 413.12C148.176 413.12 149.436 414.3 149.436 416.18C149.436 417.9 148.276 419.12 146.636 419.12ZM162.338 416C162.338 413.16 160.478 411.1 157.738 411.1C154.878 411.1 152.838 413.12 152.838 416.12C152.838 419.18 154.938 421.16 157.898 421.16C159.998 421.16 161.218 420.38 162.038 419.32L160.478 417.98C159.978 418.6 159.178 419.12 158.018 419.12C156.498 419.12 155.438 418.28 155.158 416.86H162.278C162.298 416.7 162.338 416.36 162.338 416ZM157.718 413.12C158.998 413.12 159.798 413.92 160.078 415.1H155.198C155.518 413.82 156.478 413.12 157.718 413.12ZM164.008 421H166.248V416.1C166.248 414.18 167.248 413.12 168.768 413.12C170.108 413.12 170.888 413.78 170.888 415.84V421H173.128V415.26C173.128 412.32 171.688 411.1 169.548 411.1C168.268 411.1 167.088 411.62 166.288 412.58H166.248V411.24H164.008V421ZM184.144 416C184.144 413.16 182.284 411.1 179.544 411.1C176.684 411.1 174.644 413.12 174.644 416.12C174.644 419.18 176.744 421.16 179.704 421.16C181.804 421.16 183.024 420.38 183.844 419.32L182.284 417.98C181.784 418.6 180.984 419.12 179.824 419.12C178.304 419.12 177.244 418.28 176.964 416.86H184.084C184.104 416.7 184.144 416.36 184.144 416ZM179.524 413.12C180.804 413.12 181.604 413.92 181.884 415.1H177.004C177.324 413.82 178.284 413.12 179.524 413.12ZM185.999 421H188.239V413.14H190.639V411.24H188.239V409.7C188.239 408.64 188.599 408.18 189.279 408.18C189.699 408.18 190.259 408.38 190.899 408.68L191.399 406.8C190.879 406.46 190.039 406.12 188.959 406.12C187.039 406.12 185.999 407.28 185.999 409.46V411.24H184.919V413.14H185.999V421ZM193.114 409.8C193.954 409.8 194.634 409.12 194.634 408.3C194.634 407.5 193.954 406.82 193.114 406.82C192.274 406.82 191.614 407.5 191.614 408.3C191.614 409.12 192.274 409.8 193.114 409.8ZM191.994 421H194.234V411.24H191.994V421ZM199.563 421.16C200.843 421.16 201.463 420.9 202.043 420.58L201.463 418.64C200.943 418.92 200.403 419.06 200.023 419.06C199.383 419.06 199.083 418.7 199.083 417.7V413.14H201.943V411.24H199.083V407.76L196.843 408V411.24H195.643V413.14H196.843V417.92C196.843 420.1 197.883 421.16 199.563 421.16ZM206.448 421.16C208.928 421.16 210.088 419.84 210.088 418.2C210.088 416.26 208.788 415.88 206.708 415.06C205.768 414.7 205.168 414.36 205.168 413.88C205.168 413.28 205.788 413.04 206.228 413.04C206.988 413.04 207.888 413.34 208.668 414.08L209.788 412.32C208.708 411.44 207.588 411.1 206.348 411.1C204.348 411.1 202.908 412.26 202.908 413.86C202.908 415.78 204.288 416.5 205.888 417.06C207.168 417.5 207.808 417.74 207.808 418.24C207.808 418.82 207.308 419.2 206.448 419.2C205.248 419.2 204.408 418.82 203.628 418.06L202.508 419.74C203.528 420.64 204.868 421.16 206.448 421.16Z" fill="#4C4C4C"/>
<path d="M153.747 852H155.925V846.87H161.685V852H163.863V839.22H161.685V844.926H155.925V839.22H153.747V852ZM167.636 841.92C168.392 841.92 169.004 841.308 169.004 840.57C169.004 839.85 168.392 839.238 167.636 839.238C166.88 839.238 166.286 839.85 166.286 840.57C166.286 841.308 166.88 841.92 167.636 841.92ZM166.628 852H168.644V843.216H166.628V852ZM175.133 852.144C176.393 852.144 177.347 851.658 177.995 850.812H178.013V852H179.939V838.752H177.941V844.296H177.923C177.257 843.504 176.267 843.09 175.115 843.09C172.703 843.09 170.867 844.998 170.867 847.644C170.867 850.362 172.703 852.144 175.133 852.144ZM175.439 850.308C173.963 850.308 172.919 849.21 172.919 847.662C172.919 845.97 174.053 844.908 175.457 844.908C176.969 844.908 178.013 846.096 178.013 847.662C178.013 849.246 176.879 850.308 175.439 850.308ZM190.597 847.5C190.597 844.944 188.923 843.09 186.457 843.09C183.883 843.09 182.047 844.908 182.047 847.608C182.047 850.362 183.937 852.144 186.601 852.144C188.491 852.144 189.589 851.442 190.327 850.488L188.923 849.282C188.473 849.84 187.753 850.308 186.709 850.308C185.341 850.308 184.387 849.552 184.135 848.274H190.543C190.561 848.13 190.597 847.824 190.597 847.5ZM186.439 844.908C187.591 844.908 188.311 845.628 188.563 846.69H184.171C184.459 845.538 185.323 844.908 186.439 844.908ZM202.299 852.144C204.747 852.144 206.565 850.362 206.565 847.644C206.565 844.998 204.747 843.09 202.317 843.09C201.165 843.09 200.211 843.486 199.527 844.26H199.509V838.752H197.493V852H199.419V850.83H199.455C200.103 851.676 201.039 852.144 202.299 852.144ZM201.993 850.308C200.553 850.308 199.419 849.246 199.419 847.662C199.419 846.096 200.463 844.908 201.975 844.908C203.379 844.908 204.513 845.97 204.513 847.662C204.513 849.21 203.469 850.308 201.993 850.308ZM216.7 847.5C216.7 844.944 215.026 843.09 212.56 843.09C209.986 843.09 208.15 844.908 208.15 847.608C208.15 850.362 210.04 852.144 212.704 852.144C214.594 852.144 215.692 851.442 216.43 850.488L215.026 849.282C214.576 849.84 213.856 850.308 212.812 850.308C211.444 850.308 210.49 849.552 210.238 848.274H216.646C216.664 848.13 216.7 847.824 216.7 847.5ZM212.542 844.908C213.694 844.908 214.414 845.628 214.666 846.69H210.274C210.562 845.538 211.426 844.908 212.542 844.908ZM218.78 852H220.796V847.59C220.796 845.862 221.696 844.908 223.064 844.908C224.27 844.908 224.972 845.502 224.972 847.356V852H226.988V846.834C226.988 844.188 225.692 843.09 223.766 843.09C222.614 843.09 221.552 843.558 220.832 844.422H220.796V843.216H218.78V852ZM237.478 847.5C237.478 844.944 235.804 843.09 233.338 843.09C230.764 843.09 228.928 844.908 228.928 847.608C228.928 850.362 230.818 852.144 233.482 852.144C235.372 852.144 236.47 851.442 237.208 850.488L235.804 849.282C235.354 849.84 234.634 850.308 233.59 850.308C232.222 850.308 231.268 849.552 231.016 848.274H237.424C237.442 848.13 237.478 847.824 237.478 847.5ZM233.32 844.908C234.472 844.908 235.192 845.628 235.444 846.69H231.052C231.34 845.538 232.204 844.908 233.32 844.908ZM239.723 852H241.739V844.926H243.899V843.216H241.739V841.83C241.739 840.876 242.063 840.462 242.675 840.462C243.053 840.462 243.557 840.642 244.133 840.912L244.583 839.22C244.115 838.914 243.359 838.608 242.387 838.608C240.659 838.608 239.723 839.652 239.723 841.614V843.216H238.751V844.926H239.723V852ZM246.703 841.92C247.459 841.92 248.071 841.308 248.071 840.57C248.071 839.85 247.459 839.238 246.703 839.238C245.947 839.238 245.353 839.85 245.353 840.57C245.353 841.308 245.947 841.92 246.703 841.92ZM245.695 852H247.711V843.216H245.695V852ZM253.083 852.144C254.235 852.144 254.793 851.91 255.315 851.622L254.793 849.876C254.325 850.128 253.839 850.254 253.497 850.254C252.921 850.254 252.651 849.93 252.651 849.03V844.926H255.225V843.216H252.651V840.084L250.635 840.3V843.216H249.555V844.926H250.635V849.228C250.635 851.19 251.571 852.144 253.083 852.144ZM259.855 852.144C262.087 852.144 263.131 850.956 263.131 849.48C263.131 847.734 261.961 847.392 260.089 846.654C259.243 846.33 258.703 846.024 258.703 845.592C258.703 845.052 259.261 844.836 259.657 844.836C260.341 844.836 261.151 845.106 261.853 845.772L262.861 844.188C261.889 843.396 260.881 843.09 259.765 843.09C257.965 843.09 256.669 844.134 256.669 845.574C256.669 847.302 257.911 847.95 259.351 848.454C260.503 848.85 261.079 849.066 261.079 849.516C261.079 850.038 260.629 850.38 259.855 850.38C258.775 850.38 258.019 850.038 257.317 849.354L256.309 850.866C257.227 851.676 258.433 852.144 259.855 852.144Z" fill="#5E6DF2"/>
<path d="M117.392 483H121.888C124.4 483 125.616 481.688 125.616 479.88C125.616 478.312 124.688 477.32 123.36 477V476.984C124.528 476.52 125.04 475.464 125.04 474.408C125.04 472.552 123.68 471.64 121.344 471.64H117.392V483ZM119.328 476.344V473.368L121.136 473.352C122.464 473.352 123.072 473.944 123.072 474.84C123.072 475.912 122.288 476.344 121.2 476.344H119.328ZM119.328 481.272V478.008H121.344C122.848 478.008 123.6 478.664 123.6 479.672C123.6 480.744 122.848 481.272 121.648 481.272H119.328ZM127.415 483H129.207V471.224H127.415V483ZM134.19 483.128C135.086 483.128 135.95 482.76 136.574 482.008L136.606 482.024V483H138.398V475.192H136.606V478.936C136.606 480.616 135.646 481.496 134.606 481.496C133.534 481.496 133.054 481.016 133.054 479.464V475.192H131.262V479.944C131.262 482.264 132.462 483.128 134.19 483.128ZM147.568 479C147.568 476.728 146.08 475.08 143.888 475.08C141.6 475.08 139.968 476.696 139.968 479.096C139.968 481.544 141.648 483.128 144.016 483.128C145.696 483.128 146.672 482.504 147.328 481.656L146.08 480.584C145.68 481.08 145.04 481.496 144.112 481.496C142.896 481.496 142.048 480.824 141.824 479.688H147.52C147.536 479.56 147.568 479.288 147.568 479ZM143.872 476.696C144.896 476.696 145.536 477.336 145.76 478.28H141.856C142.112 477.256 142.88 476.696 143.872 476.696Z" fill="#4C4C4C"/>
<path d="M120.102 508.084C121.838 508.084 123.434 507.104 123.434 505.284C123.434 503.422 122.02 502.974 120.354 502.316C119.108 501.84 118.212 501.49 118.226 500.538C118.24 499.586 119.066 499.082 120.004 499.082C120.746 499.082 121.6 499.432 122.398 500.09L123.14 499.124C122.202 498.368 121.11 497.962 120.004 497.962C118.296 497.962 116.966 499.11 116.966 500.594C116.966 502.344 118.464 502.974 119.934 503.52C121.264 504.024 122.16 504.318 122.16 505.424C122.16 506.39 121.334 506.95 120.116 506.95C119.15 506.95 118.086 506.502 117.372 505.606L116.588 506.544C117.582 507.608 118.856 508.084 120.102 508.084ZM131.087 504.472C131.087 502.526 129.813 501.098 127.951 501.098C126.005 501.098 124.591 502.54 124.591 504.598C124.591 506.684 126.019 508.084 128.035 508.084C129.407 508.084 130.261 507.566 130.849 506.81L130.051 506.138C129.631 506.656 128.987 507.048 128.077 507.048C126.789 507.048 125.893 506.208 125.739 504.934H131.059C131.059 504.85 131.087 504.654 131.087 504.472ZM127.937 502.134C129.057 502.134 129.785 502.89 129.953 504.01H125.767C125.977 502.848 126.845 502.134 127.937 502.134ZM132.674 508H133.808V497.696H132.674V508ZM135.945 508H137.079V497.696H135.945V508ZM139.791 499.936C140.253 499.936 140.617 499.572 140.617 499.124C140.617 498.676 140.253 498.312 139.791 498.312C139.329 498.312 138.965 498.676 138.965 499.124C138.965 499.572 139.329 499.936 139.791 499.936ZM139.217 508H140.351V501.182H139.217V508ZM142.405 508H143.539V504.598C143.539 503.058 144.379 502.134 145.667 502.134C146.661 502.134 147.347 502.68 147.347 504.276V508H148.481V503.954C148.481 502.008 147.501 501.098 146.031 501.098C144.981 501.098 144.085 501.588 143.553 502.414H143.539V501.182H142.405V508ZM153.321 510.856C155.701 510.856 156.681 509.456 156.681 507.496V501.182H155.547V502.274H155.519C154.973 501.532 154.091 501.098 153.125 501.098C151.207 501.098 149.863 502.554 149.863 504.5C149.863 506.53 151.305 507.874 153.167 507.874C154.217 507.874 155.029 507.412 155.533 506.684H155.561V507.776C155.561 508.924 154.819 509.82 153.279 509.82C152.299 509.82 151.613 509.554 150.829 509.106L150.549 510.114C151.361 510.604 152.299 510.856 153.321 510.856ZM153.307 506.824C152.019 506.824 151.011 505.914 151.011 504.472C151.011 503.142 151.935 502.148 153.321 502.148C154.595 502.148 155.589 503.072 155.589 504.444C155.589 505.802 154.679 506.824 153.307 506.824ZM162.48 508H163.614V502.162H165.546V501.182H163.614V499.908C163.614 499.012 163.978 498.648 164.538 498.648C164.916 498.648 165.294 498.788 165.728 499.012L165.98 498.046C165.602 497.808 165.084 497.598 164.398 497.598C163.18 497.598 162.48 498.34 162.48 499.796V501.182H161.654V502.162H162.48V508ZM172.586 504.472C172.586 502.526 171.312 501.098 169.45 501.098C167.504 501.098 166.09 502.54 166.09 504.598C166.09 506.684 167.518 508.084 169.534 508.084C170.906 508.084 171.76 507.566 172.348 506.81L171.55 506.138C171.13 506.656 170.486 507.048 169.576 507.048C168.288 507.048 167.392 506.208 167.238 504.934H172.558C172.558 504.85 172.586 504.654 172.586 504.472ZM169.436 502.134C170.556 502.134 171.284 502.89 171.452 504.01H167.266C167.476 502.848 168.344 502.134 169.436 502.134ZM180.151 504.472C180.151 502.526 178.877 501.098 177.015 501.098C175.069 501.098 173.655 502.54 173.655 504.598C173.655 506.684 175.083 508.084 177.099 508.084C178.471 508.084 179.325 507.566 179.913 506.81L179.115 506.138C178.695 506.656 178.051 507.048 177.141 507.048C175.853 507.048 174.957 506.208 174.803 504.934H180.123C180.123 504.85 180.151 504.654 180.151 504.472ZM177.001 502.134C178.121 502.134 178.849 502.89 179.017 504.01H174.831C175.041 502.848 175.909 502.134 177.001 502.134ZM188.402 508.084C190.418 508.084 191.916 506.67 191.916 504.598C191.916 502.526 190.418 501.098 188.402 501.098C186.288 501.098 184.874 502.638 184.874 504.598C184.874 506.558 186.288 508.084 188.402 508.084ZM188.402 507.048C186.988 507.048 186.036 505.956 186.036 504.598C186.036 503.24 186.974 502.134 188.402 502.134C189.718 502.134 190.754 503.142 190.754 504.598C190.754 506.054 189.704 507.048 188.402 507.048ZM193.7 508H194.834V502.162H196.766V501.182H194.834V499.908C194.834 499.012 195.198 498.648 195.758 498.648C196.136 498.648 196.514 498.788 196.948 499.012L197.2 498.046C196.822 497.808 196.304 497.598 195.618 497.598C194.4 497.598 193.7 498.34 193.7 499.796V501.182H192.874V502.162H193.7V508ZM203.27 508H204.446V498.382H203.466L200.778 500.37L201.352 501.252L203.27 499.796V508ZM209.915 508.084C212.211 508.084 213.527 506.04 213.527 503.198C213.527 500.048 212.001 498.298 209.915 498.298C207.633 498.298 206.303 500.342 206.303 503.198C206.303 506.334 207.829 508.084 209.915 508.084ZM209.915 506.992C208.501 506.992 207.507 505.634 207.507 503.198C207.507 500.888 208.389 499.39 209.915 499.39C211.343 499.39 212.323 500.748 212.323 503.198C212.323 505.494 211.455 506.992 209.915 506.992ZM219.374 508.238L223.728 498.284L222.804 497.892L218.45 507.846L219.374 508.238ZM217.512 503.478C219.178 503.478 220.298 502.232 220.298 500.706C220.298 499.068 219.038 497.962 217.512 497.962C215.846 497.962 214.726 499.194 214.726 500.706C214.726 502.372 215.972 503.478 217.512 503.478ZM217.512 502.582C216.518 502.582 215.72 501.84 215.72 500.72C215.72 499.698 216.434 498.872 217.512 498.872C218.534 498.872 219.332 499.614 219.332 500.72C219.332 501.756 218.618 502.582 217.512 502.582ZM224.596 508.084C226.276 508.084 227.396 506.852 227.396 505.326C227.396 503.674 226.136 502.582 224.596 502.582C222.93 502.582 221.81 503.814 221.81 505.326C221.81 506.978 223.07 508.084 224.596 508.084ZM224.61 507.202C223.602 507.202 222.79 506.446 222.79 505.34C222.79 504.318 223.518 503.492 224.61 503.492C225.618 503.492 226.43 504.234 226.43 505.34C226.43 506.376 225.702 507.202 224.61 507.202Z" fill="#4C4C4C"/>
<g opacity="0.16">
<circle cx="72" cy="489" r="32" fill="#F5F5F6"/>
<circle cx="58.6814" cy="481.785" r="2.68148" fill="white" stroke="black" stroke-width="1.06667"/>
<circle cx="71.9997" cy="479.948" r="2.68148" fill="white" stroke="black" stroke-width="1.06667"/>
<path d="M61.8665 501.533V497.533H82.1331V501.533H61.8665Z" fill="white"/>
<path d="M61.8959 497.4L59.1404 485L66.0293 490.512L71.9996 482.704L77.5107 490.512L84.3996 484.082L82.1033 497.4H61.8959Z" fill="#5E6DF2"/>
<path d="M61.8962 497.4V501.533H82.1036V497.4" stroke="black" stroke-width="1.06667" stroke-linejoin="round"/>
<path d="M61.8961 497.4L59.2 484.467L66.0295 490.971L71.9998 482.704L77.5109 490.971L84.3998 484.082L82.1035 497.4H61.8961Z" stroke="black" stroke-width="1.06667" stroke-linejoin="round"/>
<circle cx="85.3183" cy="481.785" r="2.68148" fill="white" stroke="black" stroke-width="1.06667"/>
</g>
<path d="M120.784 564.128C122.608 564.128 124.704 563.072 124.704 560.72C124.704 558.528 123.136 558 121.184 557.232C119.808 556.704 119.04 556.416 119.056 555.584C119.072 554.736 119.776 554.256 120.656 554.256C121.424 554.256 122.336 554.656 123.264 555.424L124.416 553.904C123.264 552.992 122 552.512 120.656 552.512C118.688 552.512 117.056 553.904 117.056 555.68C117.056 557.76 118.768 558.528 120.496 559.136C121.936 559.648 122.688 559.968 122.688 560.96C122.688 561.792 122.048 562.336 120.8 562.336C119.824 562.336 118.704 561.84 117.888 560.848L116.672 562.336C117.856 563.568 119.328 564.128 120.784 564.128ZM127.389 555.04C128.061 555.04 128.605 554.496 128.605 553.84C128.605 553.2 128.061 552.656 127.389 552.656C126.717 552.656 126.189 553.2 126.189 553.84C126.189 554.496 126.717 555.04 127.389 555.04ZM126.493 564H128.285V556.192H126.493V564ZM130.613 564H132.405V552.224H130.613V564ZM137.126 564H138.838L141.942 556.192H140.038L138.006 561.76H137.99L135.958 556.192H134.038L137.126 564ZM149.844 560C149.844 557.728 148.356 556.08 146.164 556.08C143.876 556.08 142.244 557.696 142.244 560.096C142.244 562.544 143.924 564.128 146.292 564.128C147.972 564.128 148.948 563.504 149.604 562.656L148.356 561.584C147.956 562.08 147.316 562.496 146.388 562.496C145.172 562.496 144.324 561.824 144.1 560.688H149.796C149.812 560.56 149.844 560.288 149.844 560ZM146.148 557.696C147.172 557.696 147.812 558.336 148.036 559.28H144.132C144.388 558.256 145.156 557.696 146.148 557.696ZM151.452 564H153.244V560.304C153.244 559.024 154.012 558.048 155.372 558.048C155.5 558.048 155.708 558.064 155.916 558.08V556.08H155.692C154.748 556.08 153.884 556.544 153.276 557.36H153.244V556.192H151.452V564Z" fill="#4C4C4C"/>
<path d="M120.102 589.084C121.838 589.084 123.434 588.104 123.434 586.284C123.434 584.422 122.02 583.974 120.354 583.316C119.108 582.84 118.212 582.49 118.226 581.538C118.24 580.586 119.066 580.082 120.004 580.082C120.746 580.082 121.6 580.432 122.398 581.09L123.14 580.124C122.202 579.368 121.11 578.962 120.004 578.962C118.296 578.962 116.966 580.11 116.966 581.594C116.966 583.344 118.464 583.974 119.934 584.52C121.264 585.024 122.16 585.318 122.16 586.424C122.16 587.39 121.334 587.95 120.116 587.95C119.15 587.95 118.086 587.502 117.372 586.606L116.588 587.544C117.582 588.608 118.856 589.084 120.102 589.084ZM131.087 585.472C131.087 583.526 129.813 582.098 127.951 582.098C126.005 582.098 124.591 583.54 124.591 585.598C124.591 587.684 126.019 589.084 128.035 589.084C129.407 589.084 130.261 588.566 130.849 587.81L130.051 587.138C129.631 587.656 128.987 588.048 128.077 588.048C126.789 588.048 125.893 587.208 125.739 585.934H131.059C131.059 585.85 131.087 585.654 131.087 585.472ZM127.937 583.134C129.057 583.134 129.785 583.89 129.953 585.01H125.767C125.977 583.848 126.845 583.134 127.937 583.134ZM132.674 589H133.808V578.696H132.674V589ZM135.945 589H137.079V578.696H135.945V589ZM139.791 580.936C140.253 580.936 140.617 580.572 140.617 580.124C140.617 579.676 140.253 579.312 139.791 579.312C139.329 579.312 138.965 579.676 138.965 580.124C138.965 580.572 139.329 580.936 139.791 580.936ZM139.217 589H140.351V582.182H139.217V589ZM142.405 589H143.539V585.598C143.539 584.058 144.379 583.134 145.667 583.134C146.661 583.134 147.347 583.68 147.347 585.276V589H148.481V584.954C148.481 583.008 147.501 582.098 146.031 582.098C144.981 582.098 144.085 582.588 143.553 583.414H143.539V582.182H142.405V589ZM153.321 591.856C155.701 591.856 156.681 590.456 156.681 588.496V582.182H155.547V583.274H155.519C154.973 582.532 154.091 582.098 153.125 582.098C151.207 582.098 149.863 583.554 149.863 585.5C149.863 587.53 151.305 588.874 153.167 588.874C154.217 588.874 155.029 588.412 155.533 587.684H155.561V588.776C155.561 589.924 154.819 590.82 153.279 590.82C152.299 590.82 151.613 590.554 150.829 590.106L150.549 591.114C151.361 591.604 152.299 591.856 153.321 591.856ZM153.307 587.824C152.019 587.824 151.011 586.914 151.011 585.472C151.011 584.142 151.935 583.148 153.321 583.148C154.595 583.148 155.589 584.072 155.589 585.444C155.589 586.802 154.679 587.824 153.307 587.824ZM162.48 589H163.614V583.162H165.546V582.182H163.614V580.908C163.614 580.012 163.978 579.648 164.538 579.648C164.916 579.648 165.294 579.788 165.728 580.012L165.98 579.046C165.602 578.808 165.084 578.598 164.398 578.598C163.18 578.598 162.48 579.34 162.48 580.796V582.182H161.654V583.162H162.48V589ZM172.586 585.472C172.586 583.526 171.312 582.098 169.45 582.098C167.504 582.098 166.09 583.54 166.09 585.598C166.09 587.684 167.518 589.084 169.534 589.084C170.906 589.084 171.76 588.566 172.348 587.81L171.55 587.138C171.13 587.656 170.486 588.048 169.576 588.048C168.288 588.048 167.392 587.208 167.238 585.934H172.558C172.558 585.85 172.586 585.654 172.586 585.472ZM169.436 583.134C170.556 583.134 171.284 583.89 171.452 585.01H167.266C167.476 583.848 168.344 583.134 169.436 583.134ZM180.151 585.472C180.151 583.526 178.877 582.098 177.015 582.098C175.069 582.098 173.655 583.54 173.655 585.598C173.655 587.684 175.083 589.084 177.099 589.084C178.471 589.084 179.325 588.566 179.913 587.81L179.115 587.138C178.695 587.656 178.051 588.048 177.141 588.048C175.853 588.048 174.957 587.208 174.803 585.934H180.123C180.123 585.85 180.151 585.654 180.151 585.472ZM177.001 583.134C178.121 583.134 178.849 583.89 179.017 585.01H174.831C175.041 583.848 175.909 583.134 177.001 583.134ZM188.402 589.084C190.418 589.084 191.916 587.67 191.916 585.598C191.916 583.526 190.418 582.098 188.402 582.098C186.288 582.098 184.874 583.638 184.874 585.598C184.874 587.558 186.288 589.084 188.402 589.084ZM188.402 588.048C186.988 588.048 186.036 586.956 186.036 585.598C186.036 584.24 186.974 583.134 188.402 583.134C189.718 583.134 190.754 584.142 190.754 585.598C190.754 587.054 189.704 588.048 188.402 588.048ZM193.7 589H194.834V583.162H196.766V582.182H194.834V580.908C194.834 580.012 195.198 579.648 195.758 579.648C196.136 579.648 196.514 579.788 196.948 580.012L197.2 579.046C196.822 578.808 196.304 578.598 195.618 578.598C194.4 578.598 193.7 579.34 193.7 580.796V582.182H192.874V583.162H193.7V589ZM204.502 579.298C202.57 579.298 201.128 580.642 201.128 582.448C201.128 584.31 202.402 585.472 204.082 585.472C205.034 585.472 205.902 585.136 206.518 584.59C205.944 586.746 204.25 587.894 202.5 588.342L202.85 589.336C205.342 588.874 207.862 586.578 207.862 583.078C207.876 580.796 206.392 579.298 204.502 579.298ZM204.348 584.38C203.116 584.38 202.318 583.61 202.318 582.448C202.318 581.328 203.172 580.39 204.516 580.39C205.776 580.39 206.714 581.412 206.714 582.98V583.064C206.21 583.848 205.314 584.38 204.348 584.38ZM209.701 589.098C210.163 589.098 210.527 588.734 210.527 588.272C210.527 587.81 210.163 587.446 209.701 587.446C209.239 587.446 208.861 587.81 208.861 588.272C208.861 588.734 209.239 589.098 209.701 589.098ZM215.16 582.896C214.768 582.896 214.194 582.994 213.69 583.176L213.844 580.474H217.82V579.382H212.738L212.458 584.24L213.144 584.45C213.634 584.072 214.208 583.918 214.838 583.918C216.014 583.918 217.064 584.646 217.064 585.948C217.064 587.138 216.168 587.992 214.824 587.992C213.844 587.992 213.032 587.53 212.598 586.83L211.716 587.488C212.388 588.496 213.592 589.084 214.922 589.084C216.868 589.084 218.268 587.824 218.268 585.962C218.268 584.03 216.868 582.896 215.16 582.896ZM223.89 589.238L228.244 579.284L227.32 578.892L222.966 588.846L223.89 589.238ZM222.028 584.478C223.694 584.478 224.814 583.232 224.814 581.706C224.814 580.068 223.554 578.962 222.028 578.962C220.362 578.962 219.242 580.194 219.242 581.706C219.242 583.372 220.488 584.478 222.028 584.478ZM222.028 583.582C221.034 583.582 220.236 582.84 220.236 581.72C220.236 580.698 220.95 579.872 222.028 579.872C223.05 579.872 223.848 580.614 223.848 581.72C223.848 582.756 223.134 583.582 222.028 583.582ZM229.112 589.084C230.792 589.084 231.912 587.852 231.912 586.326C231.912 584.674 230.652 583.582 229.112 583.582C227.446 583.582 226.326 584.814 226.326 586.326C226.326 587.978 227.586 589.084 229.112 589.084ZM229.126 588.202C228.118 588.202 227.306 587.446 227.306 586.34C227.306 585.318 228.034 584.492 229.126 584.492C230.134 584.492 230.946 585.234 230.946 586.34C230.946 587.376 230.218 588.202 229.126 588.202Z" fill="#4C4C4C"/>
<path d="M120.236 611.072C122.264 611.072 123.548 609.716 123.548 607.532V602.48H122.504V607.46C122.504 609.104 121.556 610.088 120.236 610.088C118.856 610.088 117.98 609.032 117.98 607.46V602.48H116.936V607.532C116.936 609.776 118.28 611.072 120.236 611.072ZM125.305 611H126.277V608.084C126.277 606.764 126.997 605.972 128.101 605.972C128.953 605.972 129.541 606.44 129.541 607.808V611H130.513V607.532C130.513 605.864 129.673 605.084 128.413 605.084C127.513 605.084 126.745 605.504 126.289 606.212H126.277V605.156H125.305V611ZM132.211 611H133.183V602.168H132.211V611ZM137.652 611.072C139.38 611.072 140.664 609.86 140.664 608.084C140.664 606.308 139.38 605.084 137.652 605.084C135.84 605.084 134.628 606.404 134.628 608.084C134.628 609.764 135.84 611.072 137.652 611.072ZM137.652 610.184C136.44 610.184 135.624 609.248 135.624 608.084C135.624 606.92 136.428 605.972 137.652 605.972C138.78 605.972 139.668 606.836 139.668 608.084C139.668 609.332 138.768 610.184 137.652 610.184ZM144.577 611.072C145.717 611.072 146.497 610.64 146.989 610.052L146.317 609.44C145.957 609.884 145.345 610.184 144.649 610.184C143.461 610.184 142.657 609.332 142.657 608.084C142.657 606.848 143.461 605.972 144.661 605.972C145.357 605.972 145.933 606.284 146.305 606.716L146.965 606.128C146.389 605.444 145.489 605.084 144.613 605.084C142.873 605.084 141.661 606.32 141.661 608.084C141.661 609.86 142.873 611.072 144.577 611.072ZM148.211 611H149.183V609.548L150.383 608.252L152.147 611H153.263L151.055 607.568L153.239 605.156H152.063L149.195 608.36L149.183 608.348V602.168H148.211V611ZM159.98 611.072C160.928 611.072 161.648 610.64 162.068 609.944H162.08V611H163.016V605.156H162.044V606.188L162.02 606.2C161.6 605.492 160.844 605.084 159.98 605.084C158.324 605.084 157.136 606.392 157.136 608.12C157.136 609.896 158.372 611.072 159.98 611.072ZM160.124 610.184C158.924 610.184 158.12 609.296 158.12 608.12C158.12 606.824 159.02 605.972 160.124 605.972C161.276 605.972 162.08 606.92 162.08 608.12C162.08 609.356 161.204 610.184 160.124 610.184ZM166.326 611.072C167.022 611.072 167.418 610.904 167.742 610.712L167.49 609.86C167.202 610.016 166.842 610.16 166.494 610.16C165.942 610.16 165.786 609.824 165.786 609.116V605.996H167.718V605.156H165.786V603.056L164.814 603.164V605.156H164.058V605.996H164.814V609.26C164.814 610.436 165.294 611.072 166.326 611.072ZM177.432 608.828C177.432 607.292 176.316 606.896 174.84 606.416C173.844 606.092 173.112 605.828 173.112 605.072C173.112 604.376 173.7 603.968 174.54 603.968C175.128 603.968 175.932 604.22 176.556 604.676L177.156 603.944C176.616 603.512 175.812 603.176 175.068 603.056V601.508H174.288V603.008C172.836 603.092 172.02 603.98 172.02 605.132C172.02 606.56 173.232 606.98 174.54 607.388C175.644 607.748 176.328 608.036 176.328 608.9C176.328 609.644 175.68 610.088 174.792 610.088C174.024 610.088 173.16 609.752 172.488 609.092L171.852 609.836C172.56 610.532 173.4 610.904 174.288 611.012V612.476H175.068V611.024C176.556 610.928 177.432 610.052 177.432 608.828ZM180.25 611H181.258V602.756H180.418L178.114 604.46L178.606 605.216L180.25 603.968V611ZM186.003 611.072C187.971 611.072 189.099 609.32 189.099 606.884C189.099 604.184 187.791 602.684 186.003 602.684C184.047 602.684 182.907 604.436 182.907 606.884C182.907 609.572 184.215 611.072 186.003 611.072ZM186.003 610.136C184.791 610.136 183.939 608.972 183.939 606.884C183.939 604.904 184.695 603.62 186.003 603.62C187.227 603.62 188.067 604.784 188.067 606.884C188.067 608.852 187.323 610.136 186.003 610.136ZM193.411 611.072C195.379 611.072 196.507 609.32 196.507 606.884C196.507 604.184 195.199 602.684 193.411 602.684C191.455 602.684 190.315 604.436 190.315 606.884C190.315 609.572 191.623 611.072 193.411 611.072ZM193.411 610.136C192.199 610.136 191.347 608.972 191.347 606.884C191.347 604.904 192.103 603.62 193.411 603.62C194.635 603.62 195.475 604.784 195.475 606.884C195.475 608.852 194.731 610.136 193.411 610.136ZM202.941 611.072C204.345 611.072 205.041 610.316 205.041 609.404C205.053 608.264 204.237 608.048 203.001 607.568C202.365 607.34 201.897 607.112 201.897 606.656C201.897 606.212 202.341 605.948 202.797 605.948C203.301 605.948 203.841 606.104 204.345 606.572L204.849 605.804C204.201 605.276 203.541 605.084 202.833 605.084C201.729 605.084 200.913 605.756 200.913 606.656C200.913 607.724 201.717 608.108 202.665 608.444C203.517 608.756 204.057 608.9 204.057 609.416C204.057 609.86 203.649 610.208 202.941 610.208C202.125 610.208 201.609 609.944 201.153 609.5L200.661 610.244C201.225 610.736 201.969 611.072 202.941 611.072ZM208.655 611.072C209.603 611.072 210.323 610.64 210.743 609.944H210.755V611H211.691V605.156H210.719V606.188L210.695 606.2C210.275 605.492 209.519 605.084 208.655 605.084C206.999 605.084 205.811 606.392 205.811 608.12C205.811 609.896 207.047 611.072 208.655 611.072ZM208.799 610.184C207.599 610.184 206.795 609.296 206.795 608.12C206.795 606.824 207.695 605.972 208.799 605.972C209.951 605.972 210.755 606.92 210.755 608.12C210.755 609.356 209.879 610.184 208.799 610.184ZM213.429 611H214.401V602.168H213.429V611ZM221.414 607.976C221.414 606.308 220.322 605.084 218.726 605.084C217.058 605.084 215.846 606.32 215.846 608.084C215.846 609.872 217.07 611.072 218.798 611.072C219.974 611.072 220.706 610.628 221.21 609.98L220.526 609.404C220.166 609.848 219.614 610.184 218.834 610.184C217.73 610.184 216.962 609.464 216.83 608.372H221.39C221.39 608.3 221.414 608.132 221.414 607.976ZM218.714 605.972C219.674 605.972 220.298 606.62 220.442 607.58H216.854C217.034 606.584 217.778 605.972 218.714 605.972ZM224.523 611.072C225.927 611.072 226.623 610.316 226.623 609.404C226.635 608.264 225.819 608.048 224.583 607.568C223.947 607.34 223.479 607.112 223.479 606.656C223.479 606.212 223.923 605.948 224.379 605.948C224.883 605.948 225.423 606.104 225.927 606.572L226.431 605.804C225.783 605.276 225.123 605.084 224.415 605.084C223.311 605.084 222.495 605.756 222.495 606.656C222.495 607.724 223.299 608.108 224.247 608.444C225.099 608.756 225.639 608.9 225.639 609.416C225.639 609.86 225.231 610.208 224.523 610.208C223.707 610.208 223.191 609.944 222.735 609.5L222.243 610.244C222.807 610.736 223.551 611.072 224.523 611.072Z" fill="#999999"/>
<g opacity="0.16">
<circle cx="72" cy="581" r="32" fill="#F5F5F6"/>
<circle cx="58.6814" cy="573.785" r="2.68148" fill="white" stroke="black" stroke-width="1.06667"/>
<circle cx="71.9997" cy="571.948" r="2.68148" fill="white" stroke="black" stroke-width="1.06667"/>
<path d="M61.8665 593.533V589.533H82.1331V593.533H61.8665Z" fill="white"/>
<path d="M61.8959 589.4L59.1404 577L66.0293 582.512L71.9996 574.704L77.5107 582.512L84.3996 576.082L82.1033 589.4H61.8959Z" fill="#BFC9D4"/>
<path d="M61.8962 589.4V593.533H82.1036V589.4" stroke="black" stroke-width="1.06667" stroke-linejoin="round"/>
<path d="M61.8961 589.4L59.2 576.467L66.0295 582.971L71.9998 574.704L77.5109 582.971L84.3998 576.082L82.1035 589.4H61.8961Z" stroke="black" stroke-width="1.06667" stroke-linejoin="round"/>
<circle cx="85.3183" cy="573.785" r="2.68148" fill="white" stroke="black" stroke-width="1.06667"/>
</g>
<path d="M122.608 656.096C124.352 656.096 126.016 655.536 127.056 654.672V649.936H122.352V651.664H125.136V653.584C124.368 654.096 123.52 654.336 122.608 654.336C120.336 654.336 118.896 652.608 118.896 650.336C118.896 647.872 120.48 646.336 122.528 646.336C123.808 646.336 124.832 646.8 125.616 647.568L126.976 646.384C125.792 645.104 124.128 644.512 122.544 644.512C119.04 644.512 116.88 646.992 116.88 650.336C116.88 653.936 119.344 656.096 122.608 656.096ZM132.701 656.128C135.101 656.128 136.797 654.48 136.797 652.112C136.797 649.712 135.101 648.08 132.701 648.08C130.237 648.08 128.605 649.808 128.605 652.112C128.605 654.4 130.237 656.128 132.701 656.128ZM132.701 654.496C131.357 654.496 130.429 653.44 130.429 652.112C130.429 650.752 131.341 649.696 132.701 649.696C133.981 649.696 134.973 650.672 134.973 652.112C134.973 653.52 133.965 654.496 132.701 654.496ZM138.534 656H140.326V644.224H138.534V656ZM145.854 656.128C146.974 656.128 147.822 655.696 148.398 654.944H148.414V656H150.126V644.224H148.35V649.152H148.334C147.742 648.448 146.862 648.08 145.838 648.08C143.694 648.08 142.062 649.776 142.062 652.128C142.062 654.544 143.694 656.128 145.854 656.128ZM146.126 654.496C144.814 654.496 143.886 653.52 143.886 652.144C143.886 650.64 144.894 649.696 146.142 649.696C147.486 649.696 148.414 650.752 148.414 652.144C148.414 653.552 147.406 654.496 146.126 654.496Z" fill="#4C4C4C"/>
<path d="M120.102 681.084C121.838 681.084 123.434 680.104 123.434 678.284C123.434 676.422 122.02 675.974 120.354 675.316C119.108 674.84 118.212 674.49 118.226 673.538C118.24 672.586 119.066 672.082 120.004 672.082C120.746 672.082 121.6 672.432 122.398 673.09L123.14 672.124C122.202 671.368 121.11 670.962 120.004 670.962C118.296 670.962 116.966 672.11 116.966 673.594C116.966 675.344 118.464 675.974 119.934 676.52C121.264 677.024 122.16 677.318 122.16 678.424C122.16 679.39 121.334 679.95 120.116 679.95C119.15 679.95 118.086 679.502 117.372 678.606L116.588 679.544C117.582 680.608 118.856 681.084 120.102 681.084ZM131.087 677.472C131.087 675.526 129.813 674.098 127.951 674.098C126.005 674.098 124.591 675.54 124.591 677.598C124.591 679.684 126.019 681.084 128.035 681.084C129.407 681.084 130.261 680.566 130.849 679.81L130.051 679.138C129.631 679.656 128.987 680.048 128.077 680.048C126.789 680.048 125.893 679.208 125.739 677.934H131.059C131.059 677.85 131.087 677.654 131.087 677.472ZM127.937 675.134C129.057 675.134 129.785 675.89 129.953 677.01H125.767C125.977 675.848 126.845 675.134 127.937 675.134ZM132.674 681H133.808V670.696H132.674V681ZM135.945 681H137.079V670.696H135.945V681ZM139.791 672.936C140.253 672.936 140.617 672.572 140.617 672.124C140.617 671.676 140.253 671.312 139.791 671.312C139.329 671.312 138.965 671.676 138.965 672.124C138.965 672.572 139.329 672.936 139.791 672.936ZM139.217 681H140.351V674.182H139.217V681ZM142.405 681H143.539V677.598C143.539 676.058 144.379 675.134 145.667 675.134C146.661 675.134 147.347 675.68 147.347 677.276V681H148.481V676.954C148.481 675.008 147.501 674.098 146.031 674.098C144.981 674.098 144.085 674.588 143.553 675.414H143.539V674.182H142.405V681ZM153.321 683.856C155.701 683.856 156.681 682.456 156.681 680.496V674.182H155.547V675.274H155.519C154.973 674.532 154.091 674.098 153.125 674.098C151.207 674.098 149.863 675.554 149.863 677.5C149.863 679.53 151.305 680.874 153.167 680.874C154.217 680.874 155.029 680.412 155.533 679.684H155.561V680.776C155.561 681.924 154.819 682.82 153.279 682.82C152.299 682.82 151.613 682.554 150.829 682.106L150.549 683.114C151.361 683.604 152.299 683.856 153.321 683.856ZM153.307 679.824C152.019 679.824 151.011 678.914 151.011 677.472C151.011 676.142 151.935 675.148 153.321 675.148C154.595 675.148 155.589 676.072 155.589 677.444C155.589 678.802 154.679 679.824 153.307 679.824ZM162.48 681H163.614V675.162H165.546V674.182H163.614V672.908C163.614 672.012 163.978 671.648 164.538 671.648C164.916 671.648 165.294 671.788 165.728 672.012L165.98 671.046C165.602 670.808 165.084 670.598 164.398 670.598C163.18 670.598 162.48 671.34 162.48 672.796V674.182H161.654V675.162H162.48V681ZM172.586 677.472C172.586 675.526 171.312 674.098 169.45 674.098C167.504 674.098 166.09 675.54 166.09 677.598C166.09 679.684 167.518 681.084 169.534 681.084C170.906 681.084 171.76 680.566 172.348 679.81L171.55 679.138C171.13 679.656 170.486 680.048 169.576 680.048C168.288 680.048 167.392 679.208 167.238 677.934H172.558C172.558 677.85 172.586 677.654 172.586 677.472ZM169.436 675.134C170.556 675.134 171.284 675.89 171.452 677.01H167.266C167.476 675.848 168.344 675.134 169.436 675.134ZM180.151 677.472C180.151 675.526 178.877 674.098 177.015 674.098C175.069 674.098 173.655 675.54 173.655 677.598C173.655 679.684 175.083 681.084 177.099 681.084C178.471 681.084 179.325 680.566 179.913 679.81L179.115 679.138C178.695 679.656 178.051 680.048 177.141 680.048C175.853 680.048 174.957 679.208 174.803 677.934H180.123C180.123 677.85 180.151 677.654 180.151 677.472ZM177.001 675.134C178.121 675.134 178.849 675.89 179.017 677.01H174.831C175.041 675.848 175.909 675.134 177.001 675.134ZM188.402 681.084C190.418 681.084 191.916 679.67 191.916 677.598C191.916 675.526 190.418 674.098 188.402 674.098C186.288 674.098 184.874 675.638 184.874 677.598C184.874 679.558 186.288 681.084 188.402 681.084ZM188.402 680.048C186.988 680.048 186.036 678.956 186.036 677.598C186.036 676.24 186.974 675.134 188.402 675.134C189.718 675.134 190.754 676.142 190.754 677.598C190.754 679.054 189.704 680.048 188.402 680.048ZM193.7 681H194.834V675.162H196.766V674.182H194.834V672.908C194.834 672.012 195.198 671.648 195.758 671.648C196.136 671.648 196.514 671.788 196.948 672.012L197.2 671.046C196.822 670.808 196.304 670.598 195.618 670.598C194.4 670.598 193.7 671.34 193.7 672.796V674.182H192.874V675.162H193.7V681ZM204.488 681.084C206.378 681.084 207.876 680.02 207.876 678.354C207.876 677.052 207.092 676.128 206.028 675.806V675.778C206.7 675.554 207.4 674.784 207.4 673.748C207.4 672.278 206.224 671.298 204.488 671.298C202.85 671.298 201.59 672.208 201.59 673.748C201.59 674.77 202.276 675.526 202.948 675.778V675.806C201.898 676.142 201.114 677.066 201.114 678.354C201.114 679.922 202.5 681.084 204.488 681.084ZM204.488 675.288C203.452 675.288 202.724 674.728 202.724 673.846C202.724 673.02 203.41 672.348 204.488 672.348C205.51 672.348 206.266 672.964 206.266 673.846C206.266 674.728 205.538 675.288 204.488 675.288ZM204.488 680.02C203.27 680.02 202.318 679.264 202.318 678.228C202.318 677.122 203.172 676.38 204.488 676.38C205.79 676.38 206.672 677.122 206.672 678.228C206.672 679.194 205.804 680.02 204.488 680.02ZM209.92 681.098C210.382 681.098 210.746 680.734 210.746 680.272C210.746 679.81 210.382 679.446 209.92 679.446C209.458 679.446 209.08 679.81 209.08 680.272C209.08 680.734 209.458 681.098 209.92 681.098ZM215.379 674.896C214.987 674.896 214.413 674.994 213.909 675.176L214.063 672.474H218.039V671.382H212.957L212.677 676.24L213.363 676.45C213.853 676.072 214.427 675.918 215.057 675.918C216.233 675.918 217.283 676.646 217.283 677.948C217.283 679.138 216.387 679.992 215.043 679.992C214.063 679.992 213.251 679.53 212.817 678.83L211.935 679.488C212.607 680.496 213.811 681.084 215.141 681.084C217.087 681.084 218.487 679.824 218.487 677.962C218.487 676.03 217.087 674.896 215.379 674.896ZM224.108 681.238L228.462 671.284L227.538 670.892L223.184 680.846L224.108 681.238ZM222.246 676.478C223.912 676.478 225.032 675.232 225.032 673.706C225.032 672.068 223.772 670.962 222.246 670.962C220.58 670.962 219.46 672.194 219.46 673.706C219.46 675.372 220.706 676.478 222.246 676.478ZM222.246 675.582C221.252 675.582 220.454 674.84 220.454 673.72C220.454 672.698 221.168 671.872 222.246 671.872C223.268 671.872 224.066 672.614 224.066 673.72C224.066 674.756 223.352 675.582 222.246 675.582ZM229.33 681.084C231.01 681.084 232.13 679.852 232.13 678.326C232.13 676.674 230.87 675.582 229.33 675.582C227.664 675.582 226.544 676.814 226.544 678.326C226.544 679.978 227.804 681.084 229.33 681.084ZM229.344 680.202C228.336 680.202 227.524 679.446 227.524 678.34C227.524 677.318 228.252 676.492 229.344 676.492C230.352 676.492 231.164 677.234 231.164 678.34C231.164 679.376 230.436 680.202 229.344 680.202Z" fill="#4C4C4C"/>
<path d="M120.236 703.072C122.264 703.072 123.548 701.716 123.548 699.532V694.48H122.504V699.46C122.504 701.104 121.556 702.088 120.236 702.088C118.856 702.088 117.98 701.032 117.98 699.46V694.48H116.936V699.532C116.936 701.776 118.28 703.072 120.236 703.072ZM125.305 703H126.277V700.084C126.277 698.764 126.997 697.972 128.101 697.972C128.953 697.972 129.541 698.44 129.541 699.808V703H130.513V699.532C130.513 697.864 129.673 697.084 128.413 697.084C127.513 697.084 126.745 697.504 126.289 698.212H126.277V697.156H125.305V703ZM132.211 703H133.183V694.168H132.211V703ZM137.652 703.072C139.38 703.072 140.664 701.86 140.664 700.084C140.664 698.308 139.38 697.084 137.652 697.084C135.84 697.084 134.628 698.404 134.628 700.084C134.628 701.764 135.84 703.072 137.652 703.072ZM137.652 702.184C136.44 702.184 135.624 701.248 135.624 700.084C135.624 698.92 136.428 697.972 137.652 697.972C138.78 697.972 139.668 698.836 139.668 700.084C139.668 701.332 138.768 702.184 137.652 702.184ZM144.577 703.072C145.717 703.072 146.497 702.64 146.989 702.052L146.317 701.44C145.957 701.884 145.345 702.184 144.649 702.184C143.461 702.184 142.657 701.332 142.657 700.084C142.657 698.848 143.461 697.972 144.661 697.972C145.357 697.972 145.933 698.284 146.305 698.716L146.965 698.128C146.389 697.444 145.489 697.084 144.613 697.084C142.873 697.084 141.661 698.32 141.661 700.084C141.661 701.86 142.873 703.072 144.577 703.072ZM148.211 703H149.183V701.548L150.383 700.252L152.147 703H153.263L151.055 699.568L153.239 697.156H152.063L149.195 700.36L149.183 700.348V694.168H148.211V703ZM159.98 703.072C160.928 703.072 161.648 702.64 162.068 701.944H162.08V703H163.016V697.156H162.044V698.188L162.02 698.2C161.6 697.492 160.844 697.084 159.98 697.084C158.324 697.084 157.136 698.392 157.136 700.12C157.136 701.896 158.372 703.072 159.98 703.072ZM160.124 702.184C158.924 702.184 158.12 701.296 158.12 700.12C158.12 698.824 159.02 697.972 160.124 697.972C161.276 697.972 162.08 698.92 162.08 700.12C162.08 701.356 161.204 702.184 160.124 702.184ZM166.326 703.072C167.022 703.072 167.418 702.904 167.742 702.712L167.49 701.86C167.202 702.016 166.842 702.16 166.494 702.16C165.942 702.16 165.786 701.824 165.786 701.116V697.996H167.718V697.156H165.786V695.056L164.814 695.164V697.156H164.058V697.996H164.814V701.26C164.814 702.436 165.294 703.072 166.326 703.072ZM177.432 700.828C177.432 699.292 176.316 698.896 174.84 698.416C173.844 698.092 173.112 697.828 173.112 697.072C173.112 696.376 173.7 695.968 174.54 695.968C175.128 695.968 175.932 696.22 176.556 696.676L177.156 695.944C176.616 695.512 175.812 695.176 175.068 695.056V693.508H174.288V695.008C172.836 695.092 172.02 695.98 172.02 697.132C172.02 698.56 173.232 698.98 174.54 699.388C175.644 699.748 176.328 700.036 176.328 700.9C176.328 701.644 175.68 702.088 174.792 702.088C174.024 702.088 173.16 701.752 172.488 701.092L171.852 701.836C172.56 702.532 173.4 702.904 174.288 703.012V704.476H175.068V703.024C176.556 702.928 177.432 702.052 177.432 700.828ZM182.05 703H183.058V701.548H184.258V700.636H183.058V694.756H182.206L178.222 700.828V701.548H182.05V703ZM179.398 700.66L182.086 696.472V700.66H179.398ZM188.3 703.072C190.268 703.072 191.396 701.32 191.396 698.884C191.396 696.184 190.088 694.684 188.3 694.684C186.344 694.684 185.204 696.436 185.204 698.884C185.204 701.572 186.512 703.072 188.3 703.072ZM188.3 702.136C187.088 702.136 186.236 700.972 186.236 698.884C186.236 696.904 186.992 695.62 188.3 695.62C189.524 695.62 190.364 696.784 190.364 698.884C190.364 700.852 189.62 702.136 188.3 702.136ZM195.708 703.072C197.676 703.072 198.804 701.32 198.804 698.884C198.804 696.184 197.496 694.684 195.708 694.684C193.752 694.684 192.612 696.436 192.612 698.884C192.612 701.572 193.92 703.072 195.708 703.072ZM195.708 702.136C194.496 702.136 193.644 700.972 193.644 698.884C193.644 696.904 194.4 695.62 195.708 695.62C196.932 695.62 197.772 696.784 197.772 698.884C197.772 700.852 197.028 702.136 195.708 702.136ZM205.238 703.072C206.642 703.072 207.338 702.316 207.338 701.404C207.35 700.264 206.534 700.048 205.298 699.568C204.662 699.34 204.194 699.112 204.194 698.656C204.194 698.212 204.638 697.948 205.094 697.948C205.598 697.948 206.138 698.104 206.642 698.572L207.146 697.804C206.498 697.276 205.838 697.084 205.13 697.084C204.026 697.084 203.21 697.756 203.21 698.656C203.21 699.724 204.014 700.108 204.962 700.444C205.814 700.756 206.354 700.9 206.354 701.416C206.354 701.86 205.946 702.208 205.238 702.208C204.422 702.208 203.906 701.944 203.45 701.5L202.958 702.244C203.522 702.736 204.266 703.072 205.238 703.072ZM210.951 703.072C211.899 703.072 212.619 702.64 213.039 701.944H213.051V703H213.987V697.156H213.015V698.188L212.991 698.2C212.571 697.492 211.815 697.084 210.951 697.084C209.295 697.084 208.107 698.392 208.107 700.12C208.107 701.896 209.343 703.072 210.951 703.072ZM211.095 702.184C209.895 702.184 209.091 701.296 209.091 700.12C209.091 698.824 209.991 697.972 211.095 697.972C212.247 697.972 213.051 698.92 213.051 700.12C213.051 701.356 212.175 702.184 211.095 702.184ZM215.726 703H216.698V694.168H215.726V703ZM223.711 699.976C223.711 698.308 222.619 697.084 221.023 697.084C219.355 697.084 218.143 698.32 218.143 700.084C218.143 701.872 219.367 703.072 221.095 703.072C222.271 703.072 223.003 702.628 223.507 701.98L222.823 701.404C222.463 701.848 221.911 702.184 221.131 702.184C220.027 702.184 219.259 701.464 219.127 700.372H223.687C223.687 700.3 223.711 700.132 223.711 699.976ZM221.011 697.972C221.971 697.972 222.595 698.62 222.739 699.58H219.151C219.331 698.584 220.075 697.972 221.011 697.972ZM226.82 703.072C228.224 703.072 228.92 702.316 228.92 701.404C228.932 700.264 228.116 700.048 226.88 699.568C226.244 699.34 225.776 699.112 225.776 698.656C225.776 698.212 226.22 697.948 226.676 697.948C227.18 697.948 227.72 698.104 228.224 698.572L228.728 697.804C228.08 697.276 227.42 697.084 226.712 697.084C225.608 697.084 224.792 697.756 224.792 698.656C224.792 699.724 225.596 700.108 226.544 700.444C227.396 700.756 227.936 700.9 227.936 701.416C227.936 701.86 227.528 702.208 226.82 702.208C226.004 702.208 225.488 701.944 225.032 701.5L224.54 702.244C225.104 702.736 225.848 703.072 226.82 703.072Z" fill="#999999"/>
<g opacity="0.16">
<circle cx="72" cy="673" r="32" fill="#F5F5F6"/>
<circle cx="58.6814" cy="665.785" r="2.68148" fill="white" stroke="black" stroke-width="1.06667"/>
<circle cx="71.9997" cy="663.948" r="2.68148" fill="white" stroke="black" stroke-width="1.06667"/>
<path d="M61.8665 685.533V681.533H82.1331V685.533H61.8665Z" fill="white"/>
<path d="M61.8959 681.4L59.1404 669L66.0293 674.512L71.9996 666.704L77.5107 674.512L84.3996 668.082L82.1033 681.4H61.8959Z" fill="#68758F"/>
<path d="M61.8962 681.4V685.533H82.1036V681.4" stroke="black" stroke-width="1.06667" stroke-linejoin="round"/>
<path d="M61.8961 681.4L59.2 668.467L66.0295 674.971L71.9998 666.704L77.5109 674.971L84.3998 668.082L82.1035 681.4H61.8961Z" stroke="black" stroke-width="1.06667" stroke-linejoin="round"/>
<circle cx="85.3183" cy="665.785" r="2.68148" fill="white" stroke="black" stroke-width="1.06667"/>
</g>
<path d="M117.392 748H119.328V743.952H121.28C123.728 743.952 125.392 742.784 125.392 740.32C125.392 738.208 124.224 736.64 121.504 736.64H117.392V748ZM119.328 742.208V738.368H121.232C122.624 738.368 123.392 739.088 123.392 740.288C123.392 741.408 122.672 742.208 121.088 742.208H119.328ZM127.103 748H128.895V736.224H127.103V748ZM134.406 748.128C135.494 748.128 136.326 747.712 136.886 746.96L136.918 746.976V748H138.63V740.192H136.838V741.136L136.806 741.152C136.246 740.448 135.382 740.08 134.39 740.08C132.246 740.08 130.63 741.776 130.63 744.128C130.63 746.544 132.246 748.128 134.406 748.128ZM134.694 746.496C133.366 746.496 132.454 745.52 132.454 744.144C132.454 742.64 133.446 741.696 134.694 741.696C135.974 741.696 136.918 742.752 136.918 744.144C136.918 745.552 135.91 746.496 134.694 746.496ZM142.971 748.128C143.995 748.128 144.491 747.92 144.955 747.664L144.491 746.112C144.075 746.336 143.643 746.448 143.339 746.448C142.827 746.448 142.587 746.16 142.587 745.36V741.712H144.875V740.192H142.587V737.408L140.795 737.6V740.192H139.835V741.712H140.795V745.536C140.795 747.28 141.627 748.128 142.971 748.128ZM147.263 739.04C147.935 739.04 148.479 738.496 148.479 737.84C148.479 737.2 147.935 736.656 147.263 736.656C146.591 736.656 146.063 737.2 146.063 737.84C146.063 738.496 146.591 739.04 147.263 739.04ZM146.367 748H148.159V740.192H146.367V748ZM150.374 748H152.166V744.08C152.166 742.544 152.966 741.696 154.182 741.696C155.254 741.696 155.878 742.224 155.878 743.872V748H157.67V743.408C157.67 741.056 156.518 740.08 154.806 740.08C153.782 740.08 152.838 740.496 152.198 741.264H152.166V740.192H150.374V748ZM162.387 748.128C163.283 748.128 164.147 747.76 164.771 747.008L164.803 747.024V748H166.595V740.192H164.803V743.936C164.803 745.616 163.843 746.496 162.803 746.496C161.731 746.496 161.251 746.016 161.251 744.464V740.192H159.459V744.944C159.459 747.264 160.659 748.128 162.387 748.128ZM168.629 748H170.421V744.112C170.421 742.576 171.221 741.696 172.293 741.696C173.349 741.696 173.845 742.528 173.845 743.936V748H175.637V744.112C175.637 742.576 176.453 741.696 177.461 741.696C178.517 741.696 178.981 742.528 178.981 743.936V748H180.773V743.488C180.773 741.152 179.749 740.08 178.037 740.08C176.885 740.08 175.893 740.528 175.237 741.376H175.205C174.741 740.496 173.925 740.08 172.869 740.08C171.973 740.08 171.077 740.496 170.437 741.264H170.421V740.192H168.629V748Z" fill="#4C4C4C"/>
<path d="M120.102 773.084C121.838 773.084 123.434 772.104 123.434 770.284C123.434 768.422 122.02 767.974 120.354 767.316C119.108 766.84 118.212 766.49 118.226 765.538C118.24 764.586 119.066 764.082 120.004 764.082C120.746 764.082 121.6 764.432 122.398 765.09L123.14 764.124C122.202 763.368 121.11 762.962 120.004 762.962C118.296 762.962 116.966 764.11 116.966 765.594C116.966 767.344 118.464 767.974 119.934 768.52C121.264 769.024 122.16 769.318 122.16 770.424C122.16 771.39 121.334 771.95 120.116 771.95C119.15 771.95 118.086 771.502 117.372 770.606L116.588 771.544C117.582 772.608 118.856 773.084 120.102 773.084ZM131.087 769.472C131.087 767.526 129.813 766.098 127.951 766.098C126.005 766.098 124.591 767.54 124.591 769.598C124.591 771.684 126.019 773.084 128.035 773.084C129.407 773.084 130.261 772.566 130.849 771.81L130.051 771.138C129.631 771.656 128.987 772.048 128.077 772.048C126.789 772.048 125.893 771.208 125.739 769.934H131.059C131.059 769.85 131.087 769.654 131.087 769.472ZM127.937 767.134C129.057 767.134 129.785 767.89 129.953 769.01H125.767C125.977 767.848 126.845 767.134 127.937 767.134ZM132.674 773H133.808V762.696H132.674V773ZM135.945 773H137.079V762.696H135.945V773ZM139.791 764.936C140.253 764.936 140.617 764.572 140.617 764.124C140.617 763.676 140.253 763.312 139.791 763.312C139.329 763.312 138.965 763.676 138.965 764.124C138.965 764.572 139.329 764.936 139.791 764.936ZM139.217 773H140.351V766.182H139.217V773ZM142.405 773H143.539V769.598C143.539 768.058 144.379 767.134 145.667 767.134C146.661 767.134 147.347 767.68 147.347 769.276V773H148.481V768.954C148.481 767.008 147.501 766.098 146.031 766.098C144.981 766.098 144.085 766.588 143.553 767.414H143.539V766.182H142.405V773ZM153.321 775.856C155.701 775.856 156.681 774.456 156.681 772.496V766.182H155.547V767.274H155.519C154.973 766.532 154.091 766.098 153.125 766.098C151.207 766.098 149.863 767.554 149.863 769.5C149.863 771.53 151.305 772.874 153.167 772.874C154.217 772.874 155.029 772.412 155.533 771.684H155.561V772.776C155.561 773.924 154.819 774.82 153.279 774.82C152.299 774.82 151.613 774.554 150.829 774.106L150.549 775.114C151.361 775.604 152.299 775.856 153.321 775.856ZM153.307 771.824C152.019 771.824 151.011 770.914 151.011 769.472C151.011 768.142 151.935 767.148 153.321 767.148C154.595 767.148 155.589 768.072 155.589 769.444C155.589 770.802 154.679 771.824 153.307 771.824ZM162.48 773H163.614V767.162H165.546V766.182H163.614V764.908C163.614 764.012 163.978 763.648 164.538 763.648C164.916 763.648 165.294 763.788 165.728 764.012L165.98 763.046C165.602 762.808 165.084 762.598 164.398 762.598C163.18 762.598 162.48 763.34 162.48 764.796V766.182H161.654V767.162H162.48V773ZM172.586 769.472C172.586 767.526 171.312 766.098 169.45 766.098C167.504 766.098 166.09 767.54 166.09 769.598C166.09 771.684 167.518 773.084 169.534 773.084C170.906 773.084 171.76 772.566 172.348 771.81L171.55 771.138C171.13 771.656 170.486 772.048 169.576 772.048C168.288 772.048 167.392 771.208 167.238 769.934H172.558C172.558 769.85 172.586 769.654 172.586 769.472ZM169.436 767.134C170.556 767.134 171.284 767.89 171.452 769.01H167.266C167.476 767.848 168.344 767.134 169.436 767.134ZM180.151 769.472C180.151 767.526 178.877 766.098 177.015 766.098C175.069 766.098 173.655 767.54 173.655 769.598C173.655 771.684 175.083 773.084 177.099 773.084C178.471 773.084 179.325 772.566 179.913 771.81L179.115 771.138C178.695 771.656 178.051 772.048 177.141 772.048C175.853 772.048 174.957 771.208 174.803 769.934H180.123C180.123 769.85 180.151 769.654 180.151 769.472ZM177.001 767.134C178.121 767.134 178.849 767.89 179.017 769.01H174.831C175.041 767.848 175.909 767.134 177.001 767.134ZM188.402 773.084C190.418 773.084 191.916 771.67 191.916 769.598C191.916 767.526 190.418 766.098 188.402 766.098C186.288 766.098 184.874 767.638 184.874 769.598C184.874 771.558 186.288 773.084 188.402 773.084ZM188.402 772.048C186.988 772.048 186.036 770.956 186.036 769.598C186.036 768.24 186.974 767.134 188.402 767.134C189.718 767.134 190.754 768.142 190.754 769.598C190.754 771.054 189.704 772.048 188.402 772.048ZM193.7 773H194.834V767.162H196.766V766.182H194.834V764.908C194.834 764.012 195.198 763.648 195.758 763.648C196.136 763.648 196.514 763.788 196.948 764.012L197.2 763.046C196.822 762.808 196.304 762.598 195.618 762.598C194.4 762.598 193.7 763.34 193.7 764.796V766.182H192.874V767.162H193.7V773ZM200.848 763.382V764.46H205.496L201.828 772.93L203.004 773.168L206.812 764.208V763.382H200.848ZM208.074 773.098C208.536 773.098 208.9 772.734 208.9 772.272C208.9 771.81 208.536 771.446 208.074 771.446C207.612 771.446 207.234 771.81 207.234 772.272C207.234 772.734 207.612 773.098 208.074 773.098ZM213.533 766.896C213.141 766.896 212.567 766.994 212.063 767.176L212.217 764.474H216.193V763.382H211.111L210.831 768.24L211.517 768.45C212.007 768.072 212.581 767.918 213.211 767.918C214.387 767.918 215.437 768.646 215.437 769.948C215.437 771.138 214.541 771.992 213.197 771.992C212.217 771.992 211.405 771.53 210.971 770.83L210.089 771.488C210.761 772.496 211.965 773.084 213.295 773.084C215.241 773.084 216.641 771.824 216.641 769.962C216.641 768.03 215.241 766.896 213.533 766.896ZM222.263 773.238L226.617 763.284L225.693 762.892L221.339 772.846L222.263 773.238ZM220.401 768.478C222.067 768.478 223.187 767.232 223.187 765.706C223.187 764.068 221.927 762.962 220.401 762.962C218.735 762.962 217.615 764.194 217.615 765.706C217.615 767.372 218.861 768.478 220.401 768.478ZM220.401 767.582C219.407 767.582 218.609 766.84 218.609 765.72C218.609 764.698 219.323 763.872 220.401 763.872C221.423 763.872 222.221 764.614 222.221 765.72C222.221 766.756 221.507 767.582 220.401 767.582ZM227.485 773.084C229.165 773.084 230.285 771.852 230.285 770.326C230.285 768.674 229.025 767.582 227.485 767.582C225.819 767.582 224.699 768.814 224.699 770.326C224.699 771.978 225.959 773.084 227.485 773.084ZM227.499 772.202C226.491 772.202 225.679 771.446 225.679 770.34C225.679 769.318 226.407 768.492 227.499 768.492C228.507 768.492 229.319 769.234 229.319 770.34C229.319 771.376 228.591 772.202 227.499 772.202Z" fill="#4C4C4C"/>
<path d="M120.236 795.072C122.264 795.072 123.548 793.716 123.548 791.532V786.48H122.504V791.46C122.504 793.104 121.556 794.088 120.236 794.088C118.856 794.088 117.98 793.032 117.98 791.46V786.48H116.936V791.532C116.936 793.776 118.28 795.072 120.236 795.072ZM125.305 795H126.277V792.084C126.277 790.764 126.997 789.972 128.101 789.972C128.953 789.972 129.541 790.44 129.541 791.808V795H130.513V791.532C130.513 789.864 129.673 789.084 128.413 789.084C127.513 789.084 126.745 789.504 126.289 790.212H126.277V789.156H125.305V795ZM132.211 795H133.183V786.168H132.211V795ZM137.652 795.072C139.38 795.072 140.664 793.86 140.664 792.084C140.664 790.308 139.38 789.084 137.652 789.084C135.84 789.084 134.628 790.404 134.628 792.084C134.628 793.764 135.84 795.072 137.652 795.072ZM137.652 794.184C136.44 794.184 135.624 793.248 135.624 792.084C135.624 790.92 136.428 789.972 137.652 789.972C138.78 789.972 139.668 790.836 139.668 792.084C139.668 793.332 138.768 794.184 137.652 794.184ZM144.577 795.072C145.717 795.072 146.497 794.64 146.989 794.052L146.317 793.44C145.957 793.884 145.345 794.184 144.649 794.184C143.461 794.184 142.657 793.332 142.657 792.084C142.657 790.848 143.461 789.972 144.661 789.972C145.357 789.972 145.933 790.284 146.305 790.716L146.965 790.128C146.389 789.444 145.489 789.084 144.613 789.084C142.873 789.084 141.661 790.32 141.661 792.084C141.661 793.86 142.873 795.072 144.577 795.072ZM148.211 795H149.183V793.548L150.383 792.252L152.147 795H153.263L151.055 791.568L153.239 789.156H152.063L149.195 792.36L149.183 792.348V786.168H148.211V795ZM159.98 795.072C160.928 795.072 161.648 794.64 162.068 793.944H162.08V795H163.016V789.156H162.044V790.188L162.02 790.2C161.6 789.492 160.844 789.084 159.98 789.084C158.324 789.084 157.136 790.392 157.136 792.12C157.136 793.896 158.372 795.072 159.98 795.072ZM160.124 794.184C158.924 794.184 158.12 793.296 158.12 792.12C158.12 790.824 159.02 789.972 160.124 789.972C161.276 789.972 162.08 790.92 162.08 792.12C162.08 793.356 161.204 794.184 160.124 794.184ZM166.326 795.072C167.022 795.072 167.418 794.904 167.742 794.712L167.49 793.86C167.202 794.016 166.842 794.16 166.494 794.16C165.942 794.16 165.786 793.824 165.786 793.116V789.996H167.718V789.156H165.786V787.056L164.814 787.164V789.156H164.058V789.996H164.814V793.26C164.814 794.436 165.294 795.072 166.326 795.072ZM177.432 792.828C177.432 791.292 176.316 790.896 174.84 790.416C173.844 790.092 173.112 789.828 173.112 789.072C173.112 788.376 173.7 787.968 174.54 787.968C175.128 787.968 175.932 788.22 176.556 788.676L177.156 787.944C176.616 787.512 175.812 787.176 175.068 787.056V785.508H174.288V787.008C172.836 787.092 172.02 787.98 172.02 789.132C172.02 790.56 173.232 790.98 174.54 791.388C175.644 791.748 176.328 792.036 176.328 792.9C176.328 793.644 175.68 794.088 174.792 794.088C174.024 794.088 173.16 793.752 172.488 793.092L171.852 793.836C172.56 794.532 173.4 794.904 174.288 795.012V796.476H175.068V795.024C176.556 794.928 177.432 794.052 177.432 792.828ZM180.25 795H181.258V786.756H180.418L178.114 788.46L178.606 789.216L180.25 787.968V795ZM186.003 795.072C187.971 795.072 189.099 793.32 189.099 790.884C189.099 788.184 187.791 786.684 186.003 786.684C184.047 786.684 182.907 788.436 182.907 790.884C182.907 793.572 184.215 795.072 186.003 795.072ZM186.003 794.136C184.791 794.136 183.939 792.972 183.939 790.884C183.939 788.904 184.695 787.62 186.003 787.62C187.227 787.62 188.067 788.784 188.067 790.884C188.067 792.852 187.323 794.136 186.003 794.136ZM193.411 795.072C195.379 795.072 196.507 793.32 196.507 790.884C196.507 788.184 195.199 786.684 193.411 786.684C191.455 786.684 190.315 788.436 190.315 790.884C190.315 793.572 191.623 795.072 193.411 795.072ZM193.411 794.136C192.199 794.136 191.347 792.972 191.347 790.884C191.347 788.904 192.103 787.62 193.411 787.62C194.635 787.62 195.475 788.784 195.475 790.884C195.475 792.852 194.731 794.136 193.411 794.136ZM200.819 795.072C202.787 795.072 203.915 793.32 203.915 790.884C203.915 788.184 202.607 786.684 200.819 786.684C198.863 786.684 197.723 788.436 197.723 790.884C197.723 793.572 199.031 795.072 200.819 795.072ZM200.819 794.136C199.607 794.136 198.755 792.972 198.755 790.884C198.755 788.904 199.511 787.62 200.819 787.62C202.043 787.62 202.883 788.784 202.883 790.884C202.883 792.852 202.139 794.136 200.819 794.136ZM210.349 795.072C211.753 795.072 212.449 794.316 212.449 793.404C212.461 792.264 211.645 792.048 210.409 791.568C209.773 791.34 209.305 791.112 209.305 790.656C209.305 790.212 209.749 789.948 210.205 789.948C210.709 789.948 211.249 790.104 211.753 790.572L212.257 789.804C211.609 789.276 210.949 789.084 210.241 789.084C209.137 789.084 208.321 789.756 208.321 790.656C208.321 791.724 209.125 792.108 210.073 792.444C210.925 792.756 211.465 792.9 211.465 793.416C211.465 793.86 211.057 794.208 210.349 794.208C209.533 794.208 209.017 793.944 208.561 793.5L208.069 794.244C208.633 794.736 209.377 795.072 210.349 795.072ZM216.063 795.072C217.011 795.072 217.731 794.64 218.151 793.944H218.163V795H219.099V789.156H218.127V790.188L218.103 790.2C217.683 789.492 216.927 789.084 216.063 789.084C214.407 789.084 213.219 790.392 213.219 792.12C213.219 793.896 214.455 795.072 216.063 795.072ZM216.207 794.184C215.007 794.184 214.203 793.296 214.203 792.12C214.203 790.824 215.103 789.972 216.207 789.972C217.359 789.972 218.163 790.92 218.163 792.12C218.163 793.356 217.287 794.184 216.207 794.184ZM220.837 795H221.809V786.168H220.837V795ZM228.822 791.976C228.822 790.308 227.73 789.084 226.134 789.084C224.466 789.084 223.254 790.32 223.254 792.084C223.254 793.872 224.478 795.072 226.206 795.072C227.382 795.072 228.114 794.628 228.618 793.98L227.934 793.404C227.574 793.848 227.022 794.184 226.242 794.184C225.138 794.184 224.37 793.464 224.238 792.372H228.798C228.798 792.3 228.822 792.132 228.822 791.976ZM226.122 789.972C227.082 789.972 227.706 790.62 227.85 791.58H224.262C224.442 790.584 225.186 789.972 226.122 789.972ZM231.931 795.072C233.335 795.072 234.031 794.316 234.031 793.404C234.043 792.264 233.227 792.048 231.991 791.568C231.355 791.34 230.887 791.112 230.887 790.656C230.887 790.212 231.331 789.948 231.787 789.948C232.291 789.948 232.831 790.104 233.335 790.572L233.839 789.804C233.191 789.276 232.531 789.084 231.823 789.084C230.719 789.084 229.903 789.756 229.903 790.656C229.903 791.724 230.707 792.108 231.655 792.444C232.507 792.756 233.047 792.9 233.047 793.416C233.047 793.86 232.639 794.208 231.931 794.208C231.115 794.208 230.599 793.944 230.143 793.5L229.651 794.244C230.215 794.736 230.959 795.072 231.931 795.072Z" fill="#999999"/>
<circle cx="72" cy="765" r="32" fill="#F5F5F6"/>
<circle cx="58.6814" cy="757.785" r="2.68148" fill="white" stroke="black" stroke-width="1.06667"/>
<circle cx="71.9997" cy="755.948" r="2.68148" fill="white" stroke="black" stroke-width="1.06667"/>
<path d="M61.8665 777.533V773.533H82.1331V777.533H61.8665Z" fill="white"/>
<path d="M61.8959 773.4L59.1404 761L66.0293 766.512L71.9996 758.704L77.5107 766.512L84.3996 760.082L82.1033 773.4H61.8959Z" fill="#68758F"/>
<path d="M61.8962 773.4V777.533H82.1036V773.4" stroke="black" stroke-width="1.06667" stroke-linejoin="round"/>
<path d="M61.8961 773.4L59.2 760.467L66.0295 766.971L71.9998 758.704L77.5109 766.971L84.3998 760.082L82.1035 773.4H61.8961Z" stroke="black" stroke-width="1.06667" stroke-linejoin="round"/>
<circle cx="85.3183" cy="757.785" r="2.68148" fill="white" stroke="black" stroke-width="1.06667"/>
<path d="M185.16 93.92C185.16 89.76 182.28 88.672 178.12 87.36C175.688 86.592 174.28 85.952 174.28 84.448C174.28 83.04 175.464 82.208 177.319 82.208C178.792 82.208 180.68 82.784 182.408 84.032L184.583 81.344C183.111 80.16 181 79.2 178.951 78.816V74.688H176.135V78.72C172.391 79.104 170.247 81.504 170.247 84.704C170.247 88.672 173.479 89.856 177.031 90.944C179.783 91.808 181.095 92.48 181.095 94.208C181.095 95.712 179.783 96.64 177.896 96.64C176.039 96.64 173.831 95.84 172.039 94.112L169.767 96.832C171.623 98.656 173.831 99.68 176.135 100V103.904H178.951V100.064C182.792 99.68 185.16 97.344 185.16 93.92ZM195.383 100.256C200.695 100.256 203.831 95.648 203.831 89.024C203.831 81.856 200.343 77.792 195.383 77.792C190.103 77.792 186.935 82.368 186.935 89.024C186.935 96.16 190.423 100.256 195.383 100.256ZM195.383 96.8C192.567 96.8 190.711 93.888 190.711 89.024C190.711 84.096 192.503 81.216 195.383 81.216C198.263 81.216 200.055 84.096 200.055 89.024C200.055 93.92 198.327 96.8 195.383 96.8ZM204.583 104.224H207.207L209.447 96.128H205.607L204.583 104.224ZM219.747 100.256C225.059 100.256 228.195 95.648 228.195 89.024C228.195 81.856 224.707 77.792 219.747 77.792C214.467 77.792 211.299 82.368 211.299 89.024C211.299 96.16 214.787 100.256 219.747 100.256ZM219.747 96.8C216.931 96.8 215.075 93.888 215.075 89.024C215.075 84.096 216.867 81.216 219.747 81.216C222.627 81.216 224.419 84.096 224.419 89.024C224.419 93.92 222.691 96.8 219.747 96.8ZM238.726 100.256C244.038 100.256 247.174 95.648 247.174 89.024C247.174 81.856 243.686 77.792 238.726 77.792C233.446 77.792 230.278 82.368 230.278 89.024C230.278 96.16 233.766 100.256 238.726 100.256ZM238.726 96.8C235.91 96.8 234.054 93.888 234.054 89.024C234.054 84.096 235.846 81.216 238.726 81.216C241.606 81.216 243.398 84.096 243.398 89.024C243.398 93.92 241.67 96.8 238.726 96.8Z" fill="#4C4C4C"/>
<path d="M178.173 127.096C180.477 127.096 182.189 125.48 182.189 123.112C182.189 120.744 180.477 119.112 178.173 119.112C175.757 119.112 174.141 120.872 174.141 123.112C174.141 125.352 175.757 127.096 178.173 127.096ZM178.173 125.912C176.557 125.912 175.469 124.664 175.469 123.112C175.469 121.56 176.541 120.296 178.173 120.296C179.677 120.296 180.861 121.448 180.861 123.112C180.861 124.776 179.661 125.912 178.173 125.912ZM184.17 127H185.466V120.328H187.674V119.208H185.466V117.752C185.466 116.728 185.882 116.312 186.522 116.312C186.954 116.312 187.386 116.472 187.882 116.728L188.17 115.624C187.738 115.352 187.146 115.112 186.362 115.112C184.97 115.112 184.17 115.96 184.17 117.624V119.208H183.226V120.328H184.17V127ZM200.114 124.104C200.114 122.056 198.626 121.528 196.658 120.888C195.33 120.456 194.354 120.104 194.354 119.096C194.354 118.168 195.138 117.624 196.258 117.624C197.042 117.624 198.114 117.96 198.946 118.568L199.746 117.592C199.026 117.016 197.954 116.568 196.962 116.408V114.344H195.922V116.344C193.986 116.456 192.898 117.64 192.898 119.176C192.898 121.08 194.514 121.64 196.258 122.184C197.73 122.664 198.642 123.048 198.642 124.2C198.642 125.192 197.778 125.784 196.594 125.784C195.57 125.784 194.418 125.336 193.522 124.456L192.674 125.448C193.618 126.376 194.738 126.872 195.922 127.016V128.968H196.962V127.032C198.946 126.904 200.114 125.736 200.114 124.104ZM203.738 127H205.082V116.008H203.962L200.89 118.28L201.546 119.288L203.738 117.624V127ZM206.763 129.096H207.739L208.699 125.24H207.291L206.763 129.096ZM214.098 127.096C216.722 127.096 218.226 124.76 218.226 121.512C218.226 117.912 216.482 115.912 214.098 115.912C211.49 115.912 209.97 118.248 209.97 121.512C209.97 125.096 211.714 127.096 214.098 127.096ZM214.098 125.848C212.482 125.848 211.346 124.296 211.346 121.512C211.346 118.872 212.354 117.16 214.098 117.16C215.73 117.16 216.85 118.712 216.85 121.512C216.85 124.136 215.858 125.848 214.098 125.848ZM223.842 127.096C226.466 127.096 227.97 124.76 227.97 121.512C227.97 117.912 226.226 115.912 223.842 115.912C221.234 115.912 219.714 118.248 219.714 121.512C219.714 125.096 221.458 127.096 223.842 127.096ZM223.842 125.848C222.226 125.848 221.09 124.296 221.09 121.512C221.09 118.872 222.098 117.16 223.842 117.16C225.474 117.16 226.594 118.712 226.594 121.512C226.594 124.136 225.602 125.848 223.842 125.848ZM233.587 127.096C236.211 127.096 237.715 124.76 237.715 121.512C237.715 117.912 235.971 115.912 233.587 115.912C230.979 115.912 229.459 118.248 229.459 121.512C229.459 125.096 231.203 127.096 233.587 127.096ZM233.587 125.848C231.971 125.848 230.835 124.296 230.835 121.512C230.835 118.872 231.843 117.16 233.587 117.16C235.219 117.16 236.339 118.712 236.339 121.512C236.339 124.136 235.347 125.848 233.587 125.848Z" fill="#999999"/>
<circle cx="208" cy="95" r="114" stroke="#F5F5F6" stroke-width="32"/>
</g>
<path d="M351.627 88H358.923V86.736H353.019V82.976H357.579V81.712H353.019V77.904H358.587V76.64H351.627V88ZM364.012 88.096C365.276 88.096 366.268 87.504 366.828 86.56H366.844V88H368.092V76.224H366.796V81.6H366.78C366.188 80.656 365.18 80.112 363.996 80.112C361.804 80.112 360.188 81.856 360.188 84.16C360.188 86.528 361.852 88.096 364.012 88.096ZM364.188 86.912C362.604 86.912 361.516 85.728 361.516 84.16C361.516 82.432 362.716 81.296 364.204 81.296C365.772 81.296 366.844 82.56 366.844 84.16C366.844 85.808 365.66 86.912 364.188 86.912ZM371.265 78.784C371.793 78.784 372.209 78.368 372.209 77.856C372.209 77.344 371.793 76.928 371.265 76.928C370.737 76.928 370.321 77.344 370.321 77.856C370.321 78.368 370.737 78.784 371.265 78.784ZM370.609 88H371.905V80.208H370.609V88ZM376.627 88.096C377.555 88.096 378.083 87.872 378.515 87.616L378.179 86.48C377.795 86.688 377.315 86.88 376.851 86.88C376.115 86.88 375.907 86.432 375.907 85.488V81.328H378.483V80.208H375.907V77.408L374.611 77.552V80.208H373.603V81.328H374.611V85.68C374.611 87.248 375.251 88.096 376.627 88.096Z" fill="#4C4C4C"/>
<path d="M20 40C20 28.9543 28.9543 20 40 20H375C386.046 20 395 28.9543 395 40V63H20V40Z" fill="white"/>
<path opacity="0.35" d="M358.667 36.833H375.333C376.53 36.833 377.5 37.8031 377.5 38.9997V44.9997C377.5 46.1963 376.53 47.1663 375.333 47.1663H358.667C357.47 47.1663 356.5 46.1963 356.5 44.9997V38.9997C356.5 37.8031 357.47 36.833 358.667 36.833Z" stroke="black"/>
<path opacity="0.4" d="M379 39.9995V43.9995C379.805 43.6607 380.328 42.8726 380.328 41.9995C380.328 41.1264 379.805 40.3383 379 39.9995" fill="black"/>
<path d="M358 39.6663C358 38.93 358.597 38.333 359.333 38.333H374.667C375.403 38.333 376 38.93 376 39.6663V44.333C376 45.0694 375.403 45.6663 374.667 45.6663H359.333C358.597 45.6663 358 45.0694 358 44.333V39.6663Z" fill="black"/>
<path fill-rule="evenodd" clip-rule="evenodd" d="M343.33 38.6084C345.546 38.6085 347.677 39.4599 349.283 40.9867C349.404 41.1046 349.597 41.1031 349.716 40.9834L350.872 39.8167C350.933 39.756 350.966 39.6737 350.966 39.5882C350.965 39.5026 350.931 39.4207 350.87 39.3607C346.655 35.3212 340.005 35.3212 335.79 39.3607C335.729 39.4207 335.694 39.5025 335.693 39.5881C335.693 39.6737 335.726 39.7559 335.787 39.8167L336.943 40.9834C337.062 41.1033 337.255 41.1048 337.376 40.9867C338.982 39.4598 341.114 38.6084 343.33 38.6084ZM343.33 42.404C344.547 42.404 345.721 42.8565 346.624 43.6737C346.746 43.7897 346.938 43.7872 347.057 43.668L348.212 42.5014C348.273 42.4402 348.307 42.3572 348.306 42.2709C348.305 42.1846 348.269 42.1023 348.207 42.0424C345.459 39.486 341.203 39.486 338.455 42.0424C338.393 42.1023 338.357 42.1847 338.357 42.271C338.356 42.3573 338.39 42.4403 338.451 42.5014L339.605 43.668C339.724 43.7872 339.916 43.7897 340.038 43.6737C340.94 42.857 342.113 42.4046 343.33 42.404ZM345.643 44.9579C345.645 45.0444 345.611 45.1278 345.549 45.1884L343.552 47.204C343.493 47.2633 343.413 47.2966 343.33 47.2966C343.247 47.2966 343.167 47.2633 343.108 47.204L341.111 45.1884C341.049 45.1277 341.015 45.0443 341.017 44.9578C341.019 44.8713 341.056 44.7894 341.12 44.7314C342.396 43.6525 344.264 43.6525 345.54 44.7314C345.604 44.7894 345.641 44.8714 345.643 44.9579Z" fill="black"/>
<path fill-rule="evenodd" clip-rule="evenodd" d="M329.667 36.667H328.667C328.115 36.667 327.667 37.1147 327.667 37.667V46.3337C327.667 46.8859 328.115 47.3337 328.667 47.3337H329.667C330.219 47.3337 330.667 46.8859 330.667 46.3337V37.667C330.667 37.1147 330.219 36.667 329.667 36.667ZM324 39.0003H325C325.553 39.0003 326 39.448 326 40.0003V46.3337C326 46.8859 325.553 47.3337 325 47.3337H324C323.448 47.3337 323 46.8859 323 46.3337V40.0003C323 39.448 323.448 39.0003 324 39.0003ZM320.334 41.3337H319.334C318.781 41.3337 318.334 41.7814 318.334 42.3337V46.3337C318.334 46.8859 318.781 47.3337 319.334 47.3337H320.334C320.886 47.3337 321.334 46.8859 321.334 46.3337V42.3337C321.334 41.7814 320.886 41.3337 320.334 41.3337ZM315.667 43.3337H314.667C314.115 43.3337 313.667 43.7814 313.667 44.3337V46.3337C313.667 46.8859 314.115 47.3337 314.667 47.3337H315.667C316.219 47.3337 316.667 46.8859 316.667 46.3337V44.3337C316.667 43.7814 316.219 43.3337 315.667 43.3337Z" fill="black"/>
<path d="M57.2841 47.2563C59.9721 47.2563 61.5688 45.1543 61.5688 41.5947C61.5688 38.1011 59.8695 36.1675 57.3427 36.1675C55.0429 36.1675 53.4169 37.7129 53.4169 39.8809C53.4169 41.9097 54.8817 43.3892 56.8959 43.3892C58.1337 43.3892 59.1371 42.8179 59.6352 41.8145H59.7597C59.7377 44.2607 58.8515 45.6743 57.3061 45.6743C56.3979 45.6743 55.6728 45.1836 55.4457 44.3926H53.5634C53.871 46.1211 55.3505 47.2563 57.2841 47.2563ZM57.35 41.895C56.1195 41.895 55.2699 41.0454 55.2699 39.8223C55.2699 38.6431 56.1635 37.7422 57.3573 37.7422C58.5512 37.7422 59.4447 38.6577 59.4447 39.8589C59.4447 41.0381 58.5731 41.895 57.35 41.895ZM64.5866 45.5425C65.2824 45.5425 65.7585 45.0444 65.7585 44.3853C65.7585 43.7188 65.2824 43.228 64.5866 43.228C63.8981 43.228 63.4147 43.7188 63.4147 44.3853C63.4147 45.0444 63.8981 45.5425 64.5866 45.5425ZM64.5866 40.1958C65.2824 40.1958 65.7585 39.7051 65.7585 39.0459C65.7585 38.3794 65.2824 37.8887 64.5866 37.8887C63.8981 37.8887 63.4147 38.3794 63.4147 39.0459C63.4147 39.7051 63.8981 40.1958 64.5866 40.1958ZM72.7607 47H74.5698V44.9858H75.998V43.3892H74.5698V36.4312H71.9038C70.4683 38.6138 68.9668 41.0234 67.5972 43.4111V44.9858H72.7607V47ZM69.3477 43.3306C70.3804 41.5508 71.6035 39.6099 72.6875 37.9692H72.79V43.4331H69.3477V43.3306ZM80.0267 47H81.9163V36.4312H80.034L77.2728 38.3647V40.1812L79.9021 38.3354H80.0267V47Z" fill="black"/>
<rect x="20" y="63" width="375" height="44" fill="white"/>
<path d="M43.2918 80.0002L52.9007 89.3532L52.2737 90L42 79.9999L52.2824 70L52.9091 70.6471L43.2918 80.0002Z" fill="#4C4C4C"/>
<path d="M172.932 85.128C174.756 85.128 176.852 84.072 176.852 81.72C176.852 79.528 175.284 79 173.332 78.232C171.956 77.704 171.188 77.416 171.204 76.584C171.22 75.736 171.924 75.256 172.804 75.256C173.572 75.256 174.484 75.656 175.412 76.424L176.564 74.904C175.412 73.992 174.148 73.512 172.804 73.512C170.836 73.512 169.204 74.904 169.204 76.68C169.204 78.76 170.916 79.528 172.644 80.136C174.084 80.648 174.836 80.968 174.836 81.96C174.836 82.792 174.196 83.336 172.948 83.336C171.972 83.336 170.852 82.84 170.036 81.848L168.82 83.336C170.004 84.568 171.476 85.128 172.932 85.128ZM185.906 81C185.906 78.728 184.418 77.08 182.226 77.08C179.938 77.08 178.306 78.696 178.306 81.096C178.306 83.544 179.986 85.128 182.354 85.128C184.034 85.128 185.01 84.504 185.666 83.656L184.418 82.584C184.018 83.08 183.378 83.496 182.45 83.496C181.234 83.496 180.386 82.824 180.162 81.688H185.858C185.874 81.56 185.906 81.288 185.906 81ZM182.21 78.696C183.234 78.696 183.874 79.336 184.098 80.28H180.194C180.45 79.256 181.218 78.696 182.21 78.696ZM187.866 85H189.658V73.224H187.866V85ZM192.225 85H194.017V73.224H192.225V85ZM203.609 81C203.609 78.728 202.121 77.08 199.929 77.08C197.641 77.08 196.009 78.696 196.009 81.096C196.009 83.544 197.689 85.128 200.057 85.128C201.737 85.128 202.713 84.504 203.369 83.656L202.121 82.584C201.721 83.08 201.081 83.496 200.153 83.496C198.937 83.496 198.089 82.824 197.865 81.688H203.561C203.577 81.56 203.609 81.288 203.609 81ZM199.913 78.696C200.937 78.696 201.577 79.336 201.801 80.28H197.897C198.153 79.256 198.921 78.696 199.913 78.696ZM205.457 85H207.249V81.304C207.249 80.024 208.017 79.048 209.377 79.048C209.505 79.048 209.713 79.064 209.921 79.08V77.08H209.697C208.753 77.08 207.889 77.544 207.281 78.36H207.249V77.192H205.457V85ZM218.011 85.128C219.035 85.128 219.531 84.92 219.995 84.664L219.531 83.112C219.115 83.336 218.683 83.448 218.379 83.448C217.867 83.448 217.627 83.16 217.627 82.36V78.712H219.915V77.192H217.627V74.408L215.835 74.6V77.192H214.875V78.712H215.835V82.536C215.835 84.28 216.667 85.128 218.011 85.128ZM222.543 76.04C223.215 76.04 223.759 75.496 223.759 74.84C223.759 74.2 223.215 73.656 222.543 73.656C221.871 73.656 221.343 74.2 221.343 74.84C221.343 75.496 221.871 76.04 222.543 76.04ZM221.647 85H223.439V77.192H221.647V85ZM233.031 81C233.031 78.728 231.543 77.08 229.351 77.08C227.063 77.08 225.431 78.696 225.431 81.096C225.431 83.544 227.111 85.128 229.479 85.128C231.159 85.128 232.135 84.504 232.791 83.656L231.543 82.584C231.143 83.08 230.503 83.496 229.575 83.496C228.359 83.496 227.511 82.824 227.287 81.688H232.983C232.999 81.56 233.031 81.288 233.031 81ZM229.335 78.696C230.359 78.696 230.999 79.336 231.223 80.28H227.319C227.575 79.256 228.343 78.696 229.335 78.696ZM234.879 85H236.671V81.304C236.671 80.024 237.439 79.048 238.799 79.048C238.927 79.048 239.135 79.064 239.343 79.08V77.08H239.119C238.175 77.08 237.311 77.544 236.703 78.36H236.671V77.192H234.879V85ZM243.328 85.128C245.312 85.128 246.24 84.072 246.24 82.76C246.24 81.208 245.2 80.904 243.536 80.248C242.784 79.96 242.304 79.688 242.304 79.304C242.304 78.824 242.8 78.632 243.152 78.632C243.76 78.632 244.48 78.872 245.104 79.464L246 78.056C245.136 77.352 244.24 77.08 243.248 77.08C241.648 77.08 240.496 78.008 240.496 79.288C240.496 80.824 241.6 81.4 242.88 81.848C243.904 82.2 244.416 82.392 244.416 82.792C244.416 83.256 244.016 83.56 243.328 83.56C242.368 83.56 241.696 83.256 241.072 82.648L240.176 83.992C240.992 84.712 242.064 85.128 243.328 85.128Z" fill="#4C4C4C"/>
<rect x="20" y="106.5" width="375" height="0.5" fill="#CDCED2"/>
<defs>
<clipPath id="clip0">
<rect x="20" y="20" width="375" height="877" rx="22" fill="white"/>
</clipPath>
</defs>
</svg>
